<?xml version="1.0" encoding="utf-8" standalone="no"?>
<!DOCTYPE svg PUBLIC "-//W3C//DTD SVG 1.1//EN"
  "http://www.w3.org/Graphics/SVG/1.1/DTD/svg11.dtd">
<svg xmlns:xlink="http://www.w3.org/1999/xlink" width="566.929134pt" height="141.732283pt" viewBox="0 0 566.929134 141.732283" xmlns="http://www.w3.org/2000/svg" version="1.1">
 <metadata>
  <rdf:RDF xmlns:dc="http://purl.org/dc/elements/1.1/" xmlns:cc="http://creativecommons.org/ns#" xmlns:rdf="http://www.w3.org/1999/02/22-rdf-syntax-ns#">
   <cc:Work>
    <dc:type rdf:resource="http://purl.org/dc/dcmitype/StillImage"/>
    <dc:date>2023-02-28T23:56:13.775043</dc:date>
    <dc:format>image/svg+xml</dc:format>
    <dc:creator>
     <cc:Agent>
      <dc:title>Matplotlib v3.6.3, https://matplotlib.org/</dc:title>
     </cc:Agent>
    </dc:creator>
   </cc:Work>
  </rdf:RDF>
 </metadata>
 <defs>
  <style type="text/css">*{stroke-linejoin: round; stroke-linecap: butt}</style>
 </defs>
 <g id="figure_1">
  <g id="patch_1">
   <path d="M 0 141.732283 
L 566.929134 141.732283 
L 566.929134 0 
L 0 0 
z
" style="fill: #ffffff"/>
  </g>
  <g id="axes_1">
   <g id="patch_2">
    <path d="M 70.866142 126.141732 
L 510.23622 126.141732 
L 510.23622 17.007874 
L 70.866142 17.007874 
z
" style="fill: #ffffff"/>
   </g>
   <g id="matplotlib.axis_1">
    <g id="xtick_1">
     <g id="line2d_1">
      <defs>
       <path id="me7ab41a159" d="M 0 0 
L 0 3.5 
" style="stroke: #000000; stroke-width: 0.8"/>
      </defs>
      <g>
       <use xlink:href="#me7ab41a159" x="90.869137" y="126.141732" style="stroke: #000000; stroke-width: 0.8"/>
      </g>
     </g>
     <g id="text_1">
      <!-- 1988 -->
      <g transform="translate(78.869137 141.474232) scale(0.12 -0.12)">
       <defs>
        <path id="TimesNewRomanPSMT-31" d="M 750 3822 
L 1781 4325 
L 1884 4325 
L 1884 747 
Q 1884 391 1914 303 
Q 1944 216 2037 169 
Q 2131 122 2419 116 
L 2419 0 
L 825 0 
L 825 116 
Q 1125 122 1212 167 
Q 1300 213 1334 289 
Q 1369 366 1369 747 
L 1369 3034 
Q 1369 3497 1338 3628 
Q 1316 3728 1258 3775 
Q 1200 3822 1119 3822 
Q 1003 3822 797 3725 
L 750 3822 
z
" transform="scale(0.015625)"/>
        <path id="TimesNewRomanPSMT-39" d="M 338 -88 
L 338 28 
Q 744 34 1094 217 
Q 1444 400 1770 856 
Q 2097 1313 2225 1859 
Q 1734 1544 1338 1544 
Q 891 1544 572 1889 
Q 253 2234 253 2806 
Q 253 3363 572 3797 
Q 956 4325 1575 4325 
Q 2097 4325 2469 3894 
Q 2925 3359 2925 2575 
Q 2925 1869 2578 1258 
Q 2231 647 1613 244 
Q 1109 -88 516 -88 
L 338 -88 
z
M 2275 2091 
Q 2331 2497 2331 2741 
Q 2331 3044 2228 3395 
Q 2125 3747 1936 3934 
Q 1747 4122 1506 4122 
Q 1228 4122 1018 3872 
Q 809 3622 809 3128 
Q 809 2469 1088 2097 
Q 1291 1828 1588 1828 
Q 1731 1828 1928 1897 
Q 2125 1966 2275 2091 
z
" transform="scale(0.015625)"/>
        <path id="TimesNewRomanPSMT-38" d="M 1228 2134 
Q 725 2547 579 2797 
Q 434 3047 434 3316 
Q 434 3728 753 4026 
Q 1072 4325 1600 4325 
Q 2113 4325 2425 4047 
Q 2738 3769 2738 3413 
Q 2738 3175 2569 2928 
Q 2400 2681 1866 2347 
Q 2416 1922 2594 1678 
Q 2831 1359 2831 1006 
Q 2831 559 2490 242 
Q 2150 -75 1597 -75 
Q 994 -75 656 303 
Q 388 606 388 966 
Q 388 1247 577 1523 
Q 766 1800 1228 2134 
z
M 1719 2469 
Q 2094 2806 2194 3001 
Q 2294 3197 2294 3444 
Q 2294 3772 2109 3958 
Q 1925 4144 1606 4144 
Q 1288 4144 1088 3959 
Q 888 3775 888 3528 
Q 888 3366 970 3203 
Q 1053 3041 1206 2894 
L 1719 2469 
z
M 1375 2016 
Q 1116 1797 991 1539 
Q 866 1281 866 981 
Q 866 578 1086 336 
Q 1306 94 1647 94 
Q 1984 94 2187 284 
Q 2391 475 2391 747 
Q 2391 972 2272 1150 
Q 2050 1481 1375 2016 
z
" transform="scale(0.015625)"/>
       </defs>
       <use xlink:href="#TimesNewRomanPSMT-31"/>
       <use xlink:href="#TimesNewRomanPSMT-39" x="50"/>
       <use xlink:href="#TimesNewRomanPSMT-38" x="100"/>
       <use xlink:href="#TimesNewRomanPSMT-38" x="150"/>
      </g>
     </g>
    </g>
    <g id="xtick_2">
     <g id="line2d_2">
      <g>
       <use xlink:href="#me7ab41a159" x="137.077336" y="126.141732" style="stroke: #000000; stroke-width: 0.8"/>
      </g>
     </g>
     <g id="text_2">
      <!-- 1992 -->
      <g transform="translate(125.077336 141.474232) scale(0.12 -0.12)">
       <defs>
        <path id="TimesNewRomanPSMT-32" d="M 2934 816 
L 2638 0 
L 138 0 
L 138 116 
Q 1241 1122 1691 1759 
Q 2141 2397 2141 2925 
Q 2141 3328 1894 3587 
Q 1647 3847 1303 3847 
Q 991 3847 742 3664 
Q 494 3481 375 3128 
L 259 3128 
Q 338 3706 661 4015 
Q 984 4325 1469 4325 
Q 1984 4325 2329 3994 
Q 2675 3663 2675 3213 
Q 2675 2891 2525 2569 
Q 2294 2063 1775 1497 
Q 997 647 803 472 
L 1909 472 
Q 2247 472 2383 497 
Q 2519 522 2628 598 
Q 2738 675 2819 816 
L 2934 816 
z
" transform="scale(0.015625)"/>
       </defs>
       <use xlink:href="#TimesNewRomanPSMT-31"/>
       <use xlink:href="#TimesNewRomanPSMT-39" x="50"/>
       <use xlink:href="#TimesNewRomanPSMT-39" x="100"/>
       <use xlink:href="#TimesNewRomanPSMT-32" x="150"/>
      </g>
     </g>
    </g>
    <g id="xtick_3">
     <g id="line2d_3">
      <g>
       <use xlink:href="#me7ab41a159" x="183.285536" y="126.141732" style="stroke: #000000; stroke-width: 0.8"/>
      </g>
     </g>
     <g id="text_3">
      <!-- 1996 -->
      <g transform="translate(171.285536 141.474232) scale(0.12 -0.12)">
       <defs>
        <path id="TimesNewRomanPSMT-36" d="M 2869 4325 
L 2869 4209 
Q 2456 4169 2195 4045 
Q 1934 3922 1679 3669 
Q 1425 3416 1258 3105 
Q 1091 2794 978 2366 
Q 1428 2675 1881 2675 
Q 2316 2675 2634 2325 
Q 2953 1975 2953 1425 
Q 2953 894 2631 456 
Q 2244 -75 1606 -75 
Q 1172 -75 869 213 
Q 275 772 275 1663 
Q 275 2231 503 2743 
Q 731 3256 1154 3653 
Q 1578 4050 1965 4187 
Q 2353 4325 2688 4325 
L 2869 4325 
z
M 925 2138 
Q 869 1716 869 1456 
Q 869 1156 980 804 
Q 1091 453 1309 247 
Q 1469 100 1697 100 
Q 1969 100 2183 356 
Q 2397 613 2397 1088 
Q 2397 1622 2184 2012 
Q 1972 2403 1581 2403 
Q 1463 2403 1327 2353 
Q 1191 2303 925 2138 
z
" transform="scale(0.015625)"/>
       </defs>
       <use xlink:href="#TimesNewRomanPSMT-31"/>
       <use xlink:href="#TimesNewRomanPSMT-39" x="50"/>
       <use xlink:href="#TimesNewRomanPSMT-39" x="100"/>
       <use xlink:href="#TimesNewRomanPSMT-36" x="150"/>
      </g>
     </g>
    </g>
    <g id="xtick_4">
     <g id="line2d_4">
      <g>
       <use xlink:href="#me7ab41a159" x="229.493735" y="126.141732" style="stroke: #000000; stroke-width: 0.8"/>
      </g>
     </g>
     <g id="text_4">
      <!-- 2000 -->
      <g transform="translate(217.493735 141.474232) scale(0.12 -0.12)">
       <defs>
        <path id="TimesNewRomanPSMT-30" d="M 231 2094 
Q 231 2819 450 3342 
Q 669 3866 1031 4122 
Q 1313 4325 1613 4325 
Q 2100 4325 2488 3828 
Q 2972 3213 2972 2159 
Q 2972 1422 2759 906 
Q 2547 391 2217 158 
Q 1888 -75 1581 -75 
Q 975 -75 572 641 
Q 231 1244 231 2094 
z
M 844 2016 
Q 844 1141 1059 588 
Q 1238 122 1591 122 
Q 1759 122 1940 273 
Q 2122 425 2216 781 
Q 2359 1319 2359 2297 
Q 2359 3022 2209 3506 
Q 2097 3866 1919 4016 
Q 1791 4119 1609 4119 
Q 1397 4119 1231 3928 
Q 1006 3669 925 3112 
Q 844 2556 844 2016 
z
" transform="scale(0.015625)"/>
       </defs>
       <use xlink:href="#TimesNewRomanPSMT-32"/>
       <use xlink:href="#TimesNewRomanPSMT-30" x="50"/>
       <use xlink:href="#TimesNewRomanPSMT-30" x="100"/>
       <use xlink:href="#TimesNewRomanPSMT-30" x="150"/>
      </g>
     </g>
    </g>
    <g id="xtick_5">
     <g id="line2d_5">
      <g>
       <use xlink:href="#me7ab41a159" x="275.701934" y="126.141732" style="stroke: #000000; stroke-width: 0.8"/>
      </g>
     </g>
     <g id="text_5">
      <!-- 2004 -->
      <g transform="translate(263.701934 141.474232) scale(0.12 -0.12)">
       <defs>
        <path id="TimesNewRomanPSMT-34" d="M 2978 1563 
L 2978 1119 
L 2409 1119 
L 2409 0 
L 1894 0 
L 1894 1119 
L 100 1119 
L 100 1519 
L 2066 4325 
L 2409 4325 
L 2409 1563 
L 2978 1563 
z
M 1894 1563 
L 1894 3666 
L 406 1563 
L 1894 1563 
z
" transform="scale(0.015625)"/>
       </defs>
       <use xlink:href="#TimesNewRomanPSMT-32"/>
       <use xlink:href="#TimesNewRomanPSMT-30" x="50"/>
       <use xlink:href="#TimesNewRomanPSMT-30" x="100"/>
       <use xlink:href="#TimesNewRomanPSMT-34" x="150"/>
      </g>
     </g>
    </g>
    <g id="xtick_6">
     <g id="line2d_6">
      <g>
       <use xlink:href="#me7ab41a159" x="321.910134" y="126.141732" style="stroke: #000000; stroke-width: 0.8"/>
      </g>
     </g>
     <g id="text_6">
      <!-- 2008 -->
      <g transform="translate(309.910134 141.474232) scale(0.12 -0.12)">
       <use xlink:href="#TimesNewRomanPSMT-32"/>
       <use xlink:href="#TimesNewRomanPSMT-30" x="50"/>
       <use xlink:href="#TimesNewRomanPSMT-30" x="100"/>
       <use xlink:href="#TimesNewRomanPSMT-38" x="150"/>
      </g>
     </g>
    </g>
    <g id="xtick_7">
     <g id="line2d_7">
      <g>
       <use xlink:href="#me7ab41a159" x="368.118333" y="126.141732" style="stroke: #000000; stroke-width: 0.8"/>
      </g>
     </g>
     <g id="text_7">
      <!-- 2012 -->
      <g transform="translate(356.118333 141.474232) scale(0.12 -0.12)">
       <use xlink:href="#TimesNewRomanPSMT-32"/>
       <use xlink:href="#TimesNewRomanPSMT-30" x="50"/>
       <use xlink:href="#TimesNewRomanPSMT-31" x="100"/>
       <use xlink:href="#TimesNewRomanPSMT-32" x="150"/>
      </g>
     </g>
    </g>
    <g id="xtick_8">
     <g id="line2d_8">
      <g>
       <use xlink:href="#me7ab41a159" x="414.326532" y="126.141732" style="stroke: #000000; stroke-width: 0.8"/>
      </g>
     </g>
     <g id="text_8">
      <!-- 2016 -->
      <g transform="translate(402.326532 141.474232) scale(0.12 -0.12)">
       <use xlink:href="#TimesNewRomanPSMT-32"/>
       <use xlink:href="#TimesNewRomanPSMT-30" x="50"/>
       <use xlink:href="#TimesNewRomanPSMT-31" x="100"/>
       <use xlink:href="#TimesNewRomanPSMT-36" x="150"/>
      </g>
     </g>
    </g>
    <g id="xtick_9">
     <g id="line2d_9">
      <g>
       <use xlink:href="#me7ab41a159" x="460.534732" y="126.141732" style="stroke: #000000; stroke-width: 0.8"/>
      </g>
     </g>
     <g id="text_9">
      <!-- 2020 -->
      <g transform="translate(448.534732 141.474232) scale(0.12 -0.12)">
       <use xlink:href="#TimesNewRomanPSMT-32"/>
       <use xlink:href="#TimesNewRomanPSMT-30" x="50"/>
       <use xlink:href="#TimesNewRomanPSMT-32" x="100"/>
       <use xlink:href="#TimesNewRomanPSMT-30" x="150"/>
      </g>
     </g>
    </g>
    <g id="xtick_10">
     <g id="line2d_10">
      <g>
       <use xlink:href="#me7ab41a159" x="506.742931" y="126.141732" style="stroke: #000000; stroke-width: 0.8"/>
      </g>
     </g>
     <g id="text_10">
      <!-- 2024 -->
      <g transform="translate(494.742931 141.474232) scale(0.12 -0.12)">
       <use xlink:href="#TimesNewRomanPSMT-32"/>
       <use xlink:href="#TimesNewRomanPSMT-30" x="50"/>
       <use xlink:href="#TimesNewRomanPSMT-32" x="100"/>
       <use xlink:href="#TimesNewRomanPSMT-34" x="150"/>
      </g>
     </g>
    </g>
    <g id="text_11">
     <!-- date -->
     <g transform="translate(280.557431 156.373607) scale(0.12 -0.12)">
      <defs>
       <path id="TimesNewRomanPSMT-64" d="M 2222 322 
Q 2013 103 1813 7 
Q 1613 -88 1381 -88 
Q 913 -88 563 304 
Q 213 697 213 1313 
Q 213 1928 600 2439 
Q 988 2950 1597 2950 
Q 1975 2950 2222 2709 
L 2222 3238 
Q 2222 3728 2198 3840 
Q 2175 3953 2125 3993 
Q 2075 4034 2000 4034 
Q 1919 4034 1784 3984 
L 1744 4094 
L 2597 4444 
L 2738 4444 
L 2738 1134 
Q 2738 631 2761 520 
Q 2784 409 2836 365 
Q 2888 322 2956 322 
Q 3041 322 3181 375 
L 3216 266 
L 2366 -88 
L 2222 -88 
L 2222 322 
z
M 2222 541 
L 2222 2016 
Q 2203 2228 2109 2403 
Q 2016 2578 1861 2667 
Q 1706 2756 1559 2756 
Q 1284 2756 1069 2509 
Q 784 2184 784 1559 
Q 784 928 1059 592 
Q 1334 256 1672 256 
Q 1956 256 2222 541 
z
" transform="scale(0.015625)"/>
       <path id="TimesNewRomanPSMT-61" d="M 1822 413 
Q 1381 72 1269 19 
Q 1100 -59 909 -59 
Q 613 -59 420 144 
Q 228 347 228 678 
Q 228 888 322 1041 
Q 450 1253 767 1440 
Q 1084 1628 1822 1897 
L 1822 2009 
Q 1822 2438 1686 2597 
Q 1550 2756 1291 2756 
Q 1094 2756 978 2650 
Q 859 2544 859 2406 
L 866 2225 
Q 866 2081 792 2003 
Q 719 1925 600 1925 
Q 484 1925 411 2006 
Q 338 2088 338 2228 
Q 338 2497 613 2722 
Q 888 2947 1384 2947 
Q 1766 2947 2009 2819 
Q 2194 2722 2281 2516 
Q 2338 2381 2338 1966 
L 2338 994 
Q 2338 584 2353 492 
Q 2369 400 2405 369 
Q 2441 338 2488 338 
Q 2538 338 2575 359 
Q 2641 400 2828 588 
L 2828 413 
Q 2478 -56 2159 -56 
Q 2006 -56 1915 50 
Q 1825 156 1822 413 
z
M 1822 616 
L 1822 1706 
Q 1350 1519 1213 1441 
Q 966 1303 859 1153 
Q 753 1003 753 825 
Q 753 600 887 451 
Q 1022 303 1197 303 
Q 1434 303 1822 616 
z
" transform="scale(0.015625)"/>
       <path id="TimesNewRomanPSMT-74" d="M 1031 3803 
L 1031 2863 
L 1700 2863 
L 1700 2644 
L 1031 2644 
L 1031 788 
Q 1031 509 1111 412 
Q 1191 316 1316 316 
Q 1419 316 1516 380 
Q 1613 444 1666 569 
L 1788 569 
Q 1678 263 1478 108 
Q 1278 -47 1066 -47 
Q 922 -47 784 33 
Q 647 113 581 261 
Q 516 409 516 719 
L 516 2644 
L 63 2644 
L 63 2747 
Q 234 2816 414 2980 
Q 594 3144 734 3369 
Q 806 3488 934 3803 
L 1031 3803 
z
" transform="scale(0.015625)"/>
       <path id="TimesNewRomanPSMT-65" d="M 681 1784 
Q 678 1147 991 784 
Q 1303 422 1725 422 
Q 2006 422 2214 576 
Q 2422 731 2563 1106 
L 2659 1044 
Q 2594 616 2278 264 
Q 1963 -88 1488 -88 
Q 972 -88 605 314 
Q 238 716 238 1394 
Q 238 2128 614 2539 
Q 991 2950 1559 2950 
Q 2041 2950 2350 2633 
Q 2659 2316 2659 1784 
L 681 1784 
z
M 681 1966 
L 2006 1966 
Q 1991 2241 1941 2353 
Q 1863 2528 1708 2628 
Q 1553 2728 1384 2728 
Q 1125 2728 920 2526 
Q 716 2325 681 1966 
z
" transform="scale(0.015625)"/>
      </defs>
      <use xlink:href="#TimesNewRomanPSMT-64"/>
      <use xlink:href="#TimesNewRomanPSMT-61" x="50"/>
      <use xlink:href="#TimesNewRomanPSMT-74" x="94.384766"/>
      <use xlink:href="#TimesNewRomanPSMT-65" x="122.167969"/>
     </g>
    </g>
   </g>
   <g id="matplotlib.axis_2">
    <g id="ytick_1">
     <g id="line2d_11">
      <defs>
       <path id="m5ac3e37de3" d="M 0 0 
L -3.5 0 
" style="stroke: #000000; stroke-width: 0.8"/>
      </defs>
      <g>
       <use xlink:href="#m5ac3e37de3" x="70.866142" y="90.085043" style="stroke: #000000; stroke-width: 0.8"/>
      </g>
     </g>
     <g id="text_12">
      <!-- 5 -->
      <g transform="translate(57.866142 94.251293) scale(0.12 -0.12)">
       <defs>
        <path id="TimesNewRomanPSMT-35" d="M 2778 4238 
L 2534 3706 
L 1259 3706 
L 981 3138 
Q 1809 3016 2294 2522 
Q 2709 2097 2709 1522 
Q 2709 1188 2573 903 
Q 2438 619 2231 419 
Q 2025 219 1772 97 
Q 1413 -75 1034 -75 
Q 653 -75 479 54 
Q 306 184 306 341 
Q 306 428 378 495 
Q 450 563 559 563 
Q 641 563 702 538 
Q 763 513 909 409 
Q 1144 247 1384 247 
Q 1750 247 2026 523 
Q 2303 800 2303 1197 
Q 2303 1581 2056 1914 
Q 1809 2247 1375 2428 
Q 1034 2569 447 2591 
L 1259 4238 
L 2778 4238 
z
" transform="scale(0.015625)"/>
       </defs>
       <use xlink:href="#TimesNewRomanPSMT-35"/>
      </g>
     </g>
    </g>
    <g id="ytick_2">
     <g id="line2d_12">
      <g>
       <use xlink:href="#m5ac3e37de3" x="70.866142" y="51.214969" style="stroke: #000000; stroke-width: 0.8"/>
      </g>
     </g>
     <g id="text_13">
      <!-- 10 -->
      <g transform="translate(51.866142 55.381219) scale(0.12 -0.12)">
       <use xlink:href="#TimesNewRomanPSMT-31"/>
       <use xlink:href="#TimesNewRomanPSMT-30" x="50"/>
      </g>
     </g>
    </g>
    <g id="text_14">
     <!-- price -->
     <g transform="translate(45.299267 83.566366) rotate(-90) scale(0.12 -0.12)">
      <defs>
       <path id="TimesNewRomanPSMT-70" d="M -6 2578 
L 875 2934 
L 994 2934 
L 994 2266 
Q 1216 2644 1439 2795 
Q 1663 2947 1909 2947 
Q 2341 2947 2628 2609 
Q 2981 2197 2981 1534 
Q 2981 794 2556 309 
Q 2206 -88 1675 -88 
Q 1444 -88 1275 -22 
Q 1150 25 994 166 
L 994 -706 
Q 994 -1000 1030 -1079 
Q 1066 -1159 1155 -1206 
Q 1244 -1253 1478 -1253 
L 1478 -1369 
L -22 -1369 
L -22 -1253 
L 56 -1253 
Q 228 -1256 350 -1188 
Q 409 -1153 442 -1076 
Q 475 -1000 475 -688 
L 475 2019 
Q 475 2297 450 2372 
Q 425 2447 370 2484 
Q 316 2522 222 2522 
Q 147 2522 31 2478 
L -6 2578 
z
M 994 2081 
L 994 1013 
Q 994 666 1022 556 
Q 1066 375 1236 237 
Q 1406 100 1666 100 
Q 1978 100 2172 344 
Q 2425 663 2425 1241 
Q 2425 1897 2138 2250 
Q 1938 2494 1663 2494 
Q 1513 2494 1366 2419 
Q 1253 2363 994 2081 
z
" transform="scale(0.015625)"/>
       <path id="TimesNewRomanPSMT-72" d="M 1038 2947 
L 1038 2303 
Q 1397 2947 1775 2947 
Q 1947 2947 2059 2842 
Q 2172 2738 2172 2600 
Q 2172 2478 2090 2393 
Q 2009 2309 1897 2309 
Q 1788 2309 1652 2417 
Q 1516 2525 1450 2525 
Q 1394 2525 1328 2463 
Q 1188 2334 1038 2041 
L 1038 669 
Q 1038 431 1097 309 
Q 1138 225 1241 169 
Q 1344 113 1538 113 
L 1538 0 
L 72 0 
L 72 113 
Q 291 113 397 181 
Q 475 231 506 341 
Q 522 394 522 644 
L 522 1753 
Q 522 2253 501 2348 
Q 481 2444 426 2487 
Q 372 2531 291 2531 
Q 194 2531 72 2484 
L 41 2597 
L 906 2947 
L 1038 2947 
z
" transform="scale(0.015625)"/>
       <path id="TimesNewRomanPSMT-69" d="M 928 4444 
Q 1059 4444 1151 4351 
Q 1244 4259 1244 4128 
Q 1244 3997 1151 3903 
Q 1059 3809 928 3809 
Q 797 3809 703 3903 
Q 609 3997 609 4128 
Q 609 4259 701 4351 
Q 794 4444 928 4444 
z
M 1188 2947 
L 1188 647 
Q 1188 378 1227 289 
Q 1266 200 1342 156 
Q 1419 113 1622 113 
L 1622 0 
L 231 0 
L 231 113 
Q 441 113 512 153 
Q 584 194 626 287 
Q 669 381 669 647 
L 669 1750 
Q 669 2216 641 2353 
Q 619 2453 572 2492 
Q 525 2531 444 2531 
Q 356 2531 231 2484 
L 188 2597 
L 1050 2947 
L 1188 2947 
z
" transform="scale(0.015625)"/>
       <path id="TimesNewRomanPSMT-63" d="M 2631 1088 
Q 2516 522 2178 217 
Q 1841 -88 1431 -88 
Q 944 -88 581 321 
Q 219 731 219 1428 
Q 219 2103 620 2525 
Q 1022 2947 1584 2947 
Q 2006 2947 2278 2723 
Q 2550 2500 2550 2259 
Q 2550 2141 2473 2067 
Q 2397 1994 2259 1994 
Q 2075 1994 1981 2113 
Q 1928 2178 1911 2362 
Q 1894 2547 1784 2644 
Q 1675 2738 1481 2738 
Q 1169 2738 978 2506 
Q 725 2200 725 1697 
Q 725 1184 976 792 
Q 1228 400 1656 400 
Q 1963 400 2206 609 
Q 2378 753 2541 1131 
L 2631 1088 
z
" transform="scale(0.015625)"/>
      </defs>
      <use xlink:href="#TimesNewRomanPSMT-70"/>
      <use xlink:href="#TimesNewRomanPSMT-72" x="50"/>
      <use xlink:href="#TimesNewRomanPSMT-69" x="83.300781"/>
      <use xlink:href="#TimesNewRomanPSMT-63" x="111.083984"/>
      <use xlink:href="#TimesNewRomanPSMT-65" x="155.46875"/>
     </g>
    </g>
   </g>
   <g id="line2d_13">
    <path d="M 90.837509 121.181102 
L 91.754715 121.005441 
L 92.735176 120.558238 
L 93.715638 120.319222 
L 94.632844 120.225151 
L 95.644933 120.414474 
L 96.593767 120.440883 
L 97.510972 120.295385 
L 98.554689 120.785689 
L 99.503523 120.453726 
L 100.483985 119.902944 
L 101.432818 119.603259 
L 102.381652 119.534168 
L 103.393741 119.208665 
L 105.259781 119.363099 
L 106.145359 119.157638 
L 108.137909 119.536836 
L 109.118371 118.488719 
L 110.098832 118.757956 
L 111.016038 118.486395 
L 112.028127 118.851931 
L 113.894167 118.144924 
L 115.823462 119.125303 
L 116.772296 119.736334 
L 117.752757 119.886786 
L 118.733219 118.949718 
L 119.650425 119.039139 
L 120.662514 118.967305 
L 122.528553 120.892412 
L 123.57227 120.158919 
L 124.521104 120.322595 
L 125.501565 120.161072 
L 126.482027 119.858872 
L 127.367605 119.035976 
L 128.284811 119.346751 
L 129.2969 119.289988 
L 130.277362 119.089519 
L 131.16294 119.716746 
L 132.206657 119.298849 
L 133.15549 119.348008 
L 135.116413 118.974164 
L 136.033619 119.428112 
L 137.045708 118.754164 
L 138.911748 119.153579 
L 139.923837 119.634241 
L 140.872671 119.523403 
L 141.789877 119.167622 
L 142.801966 119.51519 
L 143.782427 119.510979 
L 144.762889 119.301535 
L 145.711722 119.409839 
L 146.660556 119.687441 
L 148.621479 119.482646 
L 149.538685 119.469289 
L 150.424263 119.262741 
L 152.416814 118.263479 
L 153.397275 118.035743 
L 154.346109 118.145819 
L 155.294942 117.941406 
L 156.307032 117.454817 
L 157.255865 117.685755 
L 158.173071 117.393539 
L 159.18516 118.065849 
L 160.165622 117.551232 
L 161.146083 116.817415 
L 162.031661 116.993057 
L 163.012123 117.527586 
L 163.929329 117.192955 
L 165.890252 117.233064 
L 167.851175 116.68918 
L 168.800008 117.030861 
L 169.78047 116.711435 
L 170.729303 117.261989 
L 171.678137 117.168356 
L 172.690226 117.365129 
L 173.575804 117.216297 
L 175.441844 116.264175 
L 177.434395 116.201792 
L 178.414856 115.585006 
L 179.395317 115.903783 
L 180.312523 115.544802 
L 181.324613 115.77713 
L 183.190652 114.963971 
L 184.234369 114.732062 
L 185.151575 114.667163 
L 187.08087 114.132273 
L 188.94691 114.088963 
L 189.990627 114.636791 
L 190.93946 114.494818 
L 191.919922 113.951124 
L 192.900383 113.868905 
L 193.817589 113.046181 
L 194.829678 113.323744 
L 196.695718 112.998336 
L 197.676179 113.336777 
L 198.625013 112.848932 
L 199.573847 111.877871 
L 201.53477 110.246809 
L 202.451975 111.520985 
L 203.464065 110.596568 
L 204.444526 111.585864 
L 205.330104 111.301442 
L 206.373821 111.109089 
L 207.322655 110.634696 
L 208.208233 109.418864 
L 209.220322 108.6175 
L 210.169156 108.442658 
L 211.086362 108.723499 
L 212.098451 108.267226 
L 213.078913 108.324312 
L 214.059374 111.099543 
L 215.008208 110.807994 
L 215.957041 109.191909 
L 217.917964 107.043658 
L 218.83517 106.588414 
L 219.720748 107.208001 
L 221.713299 105.460156 
L 222.69376 106.343434 
L 223.642594 105.313571 
L 225.603517 105.477228 
L 226.552351 105.729964 
L 227.469556 104.547743 
L 228.481646 103.885933 
L 229.462107 101.881236 
L 230.442569 103.455859 
L 231.359774 103.41133 
L 232.340236 101.67063 
L 233.225814 102.848753 
L 234.269531 103.534172 
L 235.218365 102.703674 
L 236.198826 103.467273 
L 237.179288 102.662746 
L 238.096493 104.084668 
L 239.108583 104.524955 
L 240.057416 106.03184 
L 242.018339 105.247415 
L 242.903917 107.2737 
L 243.852751 108.733578 
L 244.833212 107.269737 
L 245.813674 107.59364 
L 246.73088 108.285308 
L 247.742969 108.573389 
L 248.72343 109.582064 
L 249.609009 111.310455 
L 250.652726 110.98316 
L 251.601559 109.94036 
L 252.582021 109.833884 
L 253.562482 110.426433 
L 254.44806 110.610992 
L 255.365266 109.832341 
L 256.377355 110.505851 
L 257.357817 110.51353 
L 259.287112 113.129639 
L 260.235946 113.12901 
L 261.216407 114.889679 
L 262.196868 113.86639 
L 263.114074 113.073962 
L 264.126164 113.860064 
L 265.106625 114.331409 
L 265.992203 114.609867 
L 266.972665 114.690581 
L 267.921498 113.458267 
L 268.870332 112.613269 
L 270.831255 112.039146 
L 271.748461 111.704858 
L 272.76055 111.622601 
L 273.741011 110.611469 
L 274.626589 110.357819 
L 275.670306 109.208867 
L 277.504718 108.592844 
L 278.548435 108.773688 
L 279.497269 109.221462 
L 280.47773 109.088673 
L 281.426564 108.709723 
L 282.375398 109.386586 
L 283.387487 109.336283 
L 284.336321 108.988924 
L 285.253526 108.515674 
L 286.265616 107.474532 
L 287.246077 106.674215 
L 288.226539 107.188508 
L 289.112117 106.533938 
L 291.009784 107.544975 
L 292.021873 107.220386 
L 292.970707 107.065361 
L 293.887913 106.315538 
L 294.93163 106.18898 
L 295.880464 105.626747 
L 296.860925 106.206643 
L 297.809759 105.4915 
L 298.758592 104.989173 
L 299.770682 103.932825 
L 300.65626 104.004526 
L 301.636721 103.516395 
L 302.522299 102.786332 
L 303.566016 103.760727 
L 304.51485 103.804781 
L 305.495311 103.665704 
L 306.475773 103.062847 
L 307.392979 102.786636 
L 308.405068 101.842346 
L 310.271107 100.686669 
L 311.314824 100.36934 
L 312.200403 100.555919 
L 313.149236 100.103552 
L 314.129698 98.890197 
L 315.110159 98.146872 
L 316.027365 98.423368 
L 317.039454 99.119782 
L 318.019916 99.200305 
L 318.905494 97.828571 
L 319.949211 96.899201 
L 320.898044 98.259845 
L 321.878506 98.681687 
L 322.858967 101.015011 
L 323.776173 101.22053 
L 324.756635 101.566498 
L 325.705468 100.202501 
L 326.654302 99.883571 
L 327.634763 102.238617 
L 328.615225 102.913709 
L 329.532431 103.329797 
L 330.54452 106.424567 
L 331.524981 110.715543 
L 332.41056 111.941093 
L 333.454277 111.420912 
L 334.40311 112.971908 
L 335.288688 114.647995 
L 336.300778 113.61234 
L 338.166817 110.47243 
L 339.178906 110.585917 
L 340.159368 109.048145 
L 342.088663 107.481277 
L 343.037497 107.877891 
L 344.017958 107.061664 
L 344.998419 106.69085 
L 345.915625 107.623193 
L 346.801203 107.360035 
L 347.84492 106.079933 
L 348.793754 106.117393 
L 349.774216 108.380332 
L 350.723049 109.113501 
L 351.671883 107.522415 
L 352.683972 108.363221 
L 353.632806 106.486474 
L 354.550012 105.666532 
L 355.562101 106.212779 
L 356.542562 104.56434 
L 357.523024 104.030592 
L 358.408602 103.200514 
L 359.389063 103.519138 
L 360.306269 102.496021 
L 361.318358 103.144113 
L 363.184398 104.069253 
L 364.228115 105.876167 
L 365.176949 107.918 
L 366.15741 105.760469 
L 367.106244 106.383391 
L 368.055077 106.421671 
L 369.984373 104.208997 
L 370.933206 103.955747 
L 371.913668 104.299105 
L 372.894129 106.515989 
L 373.811335 105.40949 
L 374.823424 105.126478 
L 376.689464 103.965408 
L 377.733181 104.155607 
L 378.682014 103.8894 
L 379.662476 103.45102 
L 380.642937 102.175033 
L 381.528515 102.180483 
L 382.445721 101.621527 
L 383.457811 100.828413 
L 384.438272 100.908555 
L 385.32385 101.639952 
L 386.367567 100.222984 
L 387.316401 100.893217 
L 388.296862 99.541623 
L 389.277324 98.413841 
L 391.206619 97.304713 
L 392.18708 98.497756 
L 393.072658 97.031647 
L 394.05312 97.060724 
L 395.001953 96.796479 
L 396.931249 95.735673 
L 397.91171 96.289427 
L 398.828916 95.6352 
L 399.841005 96.593247 
L 400.821467 96.408726 
L 401.707045 95.810327 
L 403.699595 96.990928 
L 404.585173 95.174583 
L 405.597263 95.785233 
L 406.546096 95.06906 
L 407.463302 95.051778 
L 408.475392 95.884334 
L 409.455853 95.312878 
L 410.436314 97.602702 
L 411.385148 98.812799 
L 412.333982 96.452341 
L 413.314443 96.669673 
L 414.294905 97.271845 
L 415.212111 99.189006 
L 416.192572 99.474896 
L 417.173033 97.551485 
L 418.090239 97.119373 
L 419.102329 97.046643 
L 420.051162 97.454098 
L 420.968368 96.147759 
L 422.012085 96.190898 
L 422.960919 96.073886 
L 423.94138 96.735887 
L 424.890214 96.332566 
L 426.851137 94.802244 
L 427.736715 93.920109 
L 428.717176 93.634467 
L 430.646471 92.528368 
L 431.595305 92.43908 
L 432.575767 91.587851 
L 433.556228 91.613708 
L 434.473434 90.836104 
L 437.351563 88.875518 
L 438.39528 86.783554 
L 439.280858 88.598374 
L 440.229691 89.572961 
L 441.210153 89.198183 
L 442.190614 89.076064 
L 443.10782 89.145079 
L 444.119909 87.929514 
L 445.100371 87.502661 
L 445.985949 87.34049 
L 447.029666 90.427791 
L 447.9785 90.058577 
L 448.958961 93.058819 
L 449.939423 90.303748 
L 450.825001 89.21093 
L 451.742207 88.793699 
L 452.754296 87.442144 
L 453.734757 89.965459 
L 454.620335 87.448375 
L 455.664052 87.272752 
L 456.612886 88.207229 
L 457.593347 87.416535 
L 458.573809 86.396981 
L 460.503104 84.016307 
L 461.483565 84.322203 
L 462.369144 88.157631 
L 463.381233 93.652816 
L 464.330066 89.83972 
L 465.247272 88.028862 
L 466.259362 87.001725 
L 467.239823 85.035442 
L 468.220284 82.167207 
L 469.169118 83.848591 
L 470.117952 85.265179 
L 471.098413 79.735296 
L 472.078875 77.698379 
L 472.996081 78.238623 
L 474.925376 75.380335 
L 475.874209 72.959209 
L 477.803504 71.464251 
L 478.752338 70.472916 
L 479.764427 69.099068 
L 480.713261 71.666569 
L 481.630467 68.463151 
L 482.642556 69.852758 
L 483.623018 67.377022 
L 484.603479 70.667308 
L 485.489057 72.212473 
L 486.469519 70.781195 
L 487.386724 75.686804 
L 488.398814 75.774491 
L 489.347647 80.439502 
L 490.264853 76.625225 
L 490.264853 76.625225 
" clip-path="url(#p7b2ae2de22)" style="fill: none; stroke: #1f77b4; stroke-width: 1.5; stroke-linecap: square"/>
   </g>
   <g id="line2d_14">
    <path d="M 90.837509 121.181102 
L 91.754715 120.448868 
L 92.735176 120.428422 
L 93.715638 119.576312 
L 94.632844 119.13918 
L 96.593767 118.560482 
L 98.554689 119.166155 
L 99.503523 118.558461 
L 101.432818 118.711998 
L 102.381652 118.470226 
L 103.393741 118.642031 
L 104.279319 117.87528 
L 105.259781 116.828276 
L 106.145359 114.632117 
L 107.189076 114.489541 
L 108.137909 116.261317 
L 109.118371 115.467746 
L 110.098832 115.1948 
L 111.016038 113.486227 
L 112.028127 113.305481 
L 112.976961 114.056995 
L 113.894167 112.264463 
L 114.937884 111.753477 
L 115.823462 111.093774 
L 116.772296 113.574229 
L 117.752757 112.578689 
L 118.733219 111.261226 
L 119.650425 110.675066 
L 120.662514 109.114976 
L 122.528553 113.944427 
L 123.57227 114.24295 
L 124.521104 115.042896 
L 125.501565 114.560596 
L 126.482027 113.392161 
L 127.367605 111.10388 
L 128.284811 110.434771 
L 129.2969 110.378876 
L 130.277362 108.978387 
L 131.16294 109.732544 
L 132.206657 108.780849 
L 133.15549 108.411039 
L 134.135952 109.221636 
L 135.116413 108.435061 
L 136.033619 108.760326 
L 137.045708 106.504073 
L 138.02617 103.912683 
L 138.911748 102.836993 
L 139.923837 102.011548 
L 140.872671 102.333004 
L 141.789877 102.490972 
L 142.801966 105.204025 
L 143.782427 104.98161 
L 144.762889 106.143048 
L 145.711722 106.09415 
L 146.660556 104.884513 
L 147.641018 105.162356 
L 148.621479 104.47249 
L 149.538685 104.374538 
L 150.424263 103.982727 
L 151.46798 103.200195 
L 152.416814 102.747203 
L 154.346109 101.371436 
L 155.294942 100.717486 
L 156.307032 98.367479 
L 157.255865 97.278417 
L 158.173071 94.455828 
L 159.18516 92.94798 
L 160.165622 87.026435 
L 161.146083 86.28526 
L 162.031661 87.070358 
L 163.012123 90.923782 
L 163.929329 91.767729 
L 164.941418 90.577916 
L 165.890252 91.703593 
L 166.807458 89.40645 
L 167.851175 84.542482 
L 168.800008 84.076818 
L 169.78047 84.945798 
L 170.729303 87.286787 
L 171.678137 90.662031 
L 172.690226 94.762124 
L 173.575804 95.674016 
L 174.556266 95.542168 
L 176.485561 92.343084 
L 177.434395 92.309733 
L 178.414856 91.540494 
L 179.395317 92.473143 
L 180.312523 92.696646 
L 181.324613 94.119291 
L 182.273446 94.773552 
L 183.190652 93.321443 
L 184.234369 90.822098 
L 185.151575 91.490585 
L 186.068781 91.267004 
L 187.08087 89.893569 
L 188.061332 90.163483 
L 188.94691 90.004116 
L 189.990627 92.738159 
L 190.93946 91.862805 
L 191.919922 91.591958 
L 192.900383 92.616884 
L 193.817589 92.051247 
L 194.829678 91.926319 
L 195.81014 89.43086 
L 196.695718 87.7638 
L 197.676179 88.949415 
L 198.625013 89.019848 
L 199.573847 87.985049 
L 200.554308 85.877358 
L 201.53477 85.318095 
L 202.451975 90.921683 
L 203.464065 89.926065 
L 204.444526 96.362016 
L 205.330104 97.573907 
L 206.373821 96.890027 
L 207.322655 99.429642 
L 208.208233 96.36396 
L 209.220322 95.059169 
L 210.169156 95.495213 
L 211.086362 100.183644 
L 212.098451 103.260366 
L 213.078913 102.536372 
L 214.059374 110.273227 
L 215.008208 109.141486 
L 215.957041 107.078884 
L 216.937503 105.281065 
L 218.83517 106.106199 
L 219.720748 105.90011 
L 220.764465 102.931991 
L 221.713299 99.750865 
L 222.69376 100.010128 
L 223.642594 96.785622 
L 224.591428 97.708242 
L 225.603517 97.447346 
L 226.552351 98.553355 
L 227.469556 97.932678 
L 228.481646 95.16163 
L 229.462107 90.907534 
L 230.442569 90.754153 
L 231.359774 90.260658 
L 232.340236 90.131376 
L 233.225814 93.866402 
L 234.269531 95.394462 
L 235.218365 94.320482 
L 236.198826 96.1424 
L 237.179288 96.0275 
L 238.096493 98.94501 
L 239.108583 101.136038 
L 240.057416 103.584153 
L 240.974622 103.006 
L 242.018339 99.489891 
L 243.852751 104.611723 
L 244.833212 103.478971 
L 245.813674 103.2585 
L 246.73088 103.853756 
L 247.742969 105.503558 
L 248.72343 105.775415 
L 249.609009 109.411633 
L 250.652726 108.209304 
L 251.601559 106.066396 
L 252.582021 104.280394 
L 253.562482 103.476095 
L 254.44806 103.085917 
L 255.365266 101.63513 
L 256.377355 101.525439 
L 257.357817 102.035259 
L 258.243395 104.097549 
L 259.287112 106.051082 
L 260.235946 105.719675 
L 261.216407 108.267997 
L 262.196868 106.942139 
L 263.114074 105.449762 
L 264.126164 106.247997 
L 265.106625 106.376424 
L 266.972665 107.78904 
L 268.870332 104.433076 
L 269.850793 103.092214 
L 270.831255 101.542075 
L 271.748461 99.762292 
L 272.76055 99.597794 
L 273.741011 97.150457 
L 274.626589 96.823171 
L 275.670306 94.53349 
L 276.61914 93.413021 
L 277.504718 91.816161 
L 278.548435 91.479546 
L 279.497269 94.648468 
L 280.47773 95.428668 
L 281.426564 95.355825 
L 282.375398 96.060151 
L 283.387487 94.769198 
L 284.336321 92.87195 
L 285.253526 92.08522 
L 286.265616 88.689608 
L 287.246077 86.80643 
L 288.226539 86.798034 
L 289.112117 83.190969 
L 290.092578 86.299953 
L 291.009784 87.598136 
L 292.970707 85.018873 
L 293.887913 82.111703 
L 294.93163 81.826707 
L 295.880464 77.544158 
L 296.860925 80.957417 
L 297.809759 77.025165 
L 298.758592 74.033024 
L 299.770682 68.024644 
L 300.65626 68.154081 
L 301.636721 67.711273 
L 302.522299 63.530564 
L 303.566016 70.572577 
L 304.51485 70.841325 
L 305.495311 70.196315 
L 306.475773 68.852343 
L 307.392979 68.460766 
L 308.405068 65.640587 
L 309.353902 61.004009 
L 310.271107 58.005727 
L 311.314824 58.874162 
L 312.200403 59.33555 
L 313.149236 56.742061 
L 315.110159 50.076776 
L 317.039454 42.46034 
L 318.019916 44.465181 
L 319.949211 24.981712 
L 320.898044 32.412038 
L 321.878506 32.135827 
L 322.858967 44.329525 
L 323.776173 38.193728 
L 324.756635 43.096566 
L 325.705468 36.338226 
L 326.654302 34.899645 
L 327.634763 44.442325 
L 328.615225 47.961078 
L 329.532431 54.615868 
L 330.54452 67.779529 
L 331.524981 84.60273 
L 332.41056 87.988236 
L 333.454277 84.873188 
L 334.40311 87.789221 
L 335.288688 90.13915 
L 336.300778 84.645798 
L 337.249611 77.434389 
L 338.166817 68.852576 
L 339.178906 69.771931 
L 340.159368 63.340567 
L 341.139829 63.695373 
L 342.088663 57.897124 
L 343.037497 57.880487 
L 344.998419 52.033651 
L 345.915625 56.377693 
L 346.801203 56.195858 
L 347.84492 50.411603 
L 348.793754 49.657601 
L 349.774216 56.936333 
L 350.723049 57.590828 
L 351.671883 51.882757 
L 352.683972 53.543598 
L 353.632806 45.343334 
L 354.550012 42.993638 
L 355.562101 45.318146 
L 356.542562 39.446277 
L 357.523024 41.95775 
L 358.408602 42.837147 
L 359.389063 37.93151 
L 360.306269 35.353803 
L 361.318358 38.156801 
L 362.267192 39.847883 
L 363.184398 40.507741 
L 364.228115 48.637884 
L 365.176949 60.510048 
L 366.15741 51.55998 
L 367.106244 56.786995 
L 368.055077 57.715056 
L 369.067167 49.707277 
L 369.984373 45.039059 
L 370.933206 47.992874 
L 371.913668 49.192482 
L 372.894129 58.499532 
L 373.811335 56.085079 
L 374.823424 54.908559 
L 375.803886 55.309698 
L 376.689464 51.008492 
L 377.733181 51.578327 
L 378.682014 50.669078 
L 379.662476 46.924024 
L 380.642937 45.850122 
L 381.528515 46.969114 
L 382.445721 48.501527 
L 383.457811 48.147965 
L 384.438272 50.524792 
L 385.32385 55.853724 
L 386.367567 55.292207 
L 387.316401 56.692851 
L 388.296862 52.189986 
L 389.277324 48.539154 
L 391.206619 51.005615 
L 392.18708 56.14937 
L 393.072658 53.825406 
L 394.05312 51.630646 
L 395.001953 51.58167 
L 395.950787 49.062112 
L 396.931249 47.26748 
L 397.91171 46.101611 
L 398.828916 44.383165 
L 399.841005 50.800925 
L 400.821467 49.96553 
L 401.707045 50.848425 
L 402.750762 54.611592 
L 403.699595 54.199802 
L 404.585173 51.970992 
L 405.597263 53.191746 
L 406.546096 47.500467 
L 407.463302 50.887061 
L 408.475392 53.371948 
L 409.455853 58.858692 
L 410.436314 65.306926 
L 411.385148 67.381111 
L 412.333982 63.043988 
L 413.314443 65.651548 
L 414.294905 67.218634 
L 415.212111 71.243086 
L 416.192572 71.401987 
L 417.173033 63.901928 
L 418.090239 63.638622 
L 419.102329 66.183524 
L 420.051162 64.111827 
L 420.968368 61.051353 
L 422.012085 59.480457 
L 422.960919 58.720003 
L 423.94138 58.593365 
L 424.890214 61.87843 
L 425.839048 61.921731 
L 426.851137 58.271598 
L 427.736715 56.161497 
L 429.602754 52.92844 
L 430.646471 50.800925 
L 431.595305 50.375376 
L 432.575767 46.066006 
L 433.556228 44.397314 
L 434.473434 44.861889 
L 435.485523 41.95775 
L 436.434357 41.824504 
L 437.351563 38.896732 
L 438.39528 31.423338 
L 439.280858 36.040637 
L 440.229691 37.931122 
L 441.210153 38.432312 
L 442.190614 41.830956 
L 443.10782 45.810708 
L 444.119909 44.416127 
L 445.100371 46.864631 
L 445.985949 47.490594 
L 447.029666 54.641444 
L 447.9785 51.625671 
L 448.958961 53.875548 
L 449.939423 47.333637 
L 450.825001 47.254031 
L 451.742207 46.696168 
L 452.754296 45.055229 
L 453.734757 51.370605 
L 454.620335 46.950456 
L 455.664052 48.337884 
L 456.612886 52.432847 
L 457.593347 51.13754 
L 458.573809 47.95136 
L 459.491015 48.101865 
L 460.503104 42.301284 
L 461.483565 46.368415 
L 462.369144 50.786155 
L 463.381233 62.986616 
L 464.330066 57.050378 
L 465.247272 56.62926 
L 466.259362 51.596052 
L 467.239823 45.079795 
L 468.220284 43.324422 
L 469.169118 44.840588 
L 470.117952 43.172129 
L 471.098413 35.272953 
L 472.078875 28.572063 
L 472.996081 25.59446 
L 473.881659 24.840925 
L 474.925376 26.616043 
L 476.854671 21.968504 
L 477.803504 22.090634 
L 478.752338 29.618368 
L 479.764427 27.218918 
L 480.713261 31.539171 
L 481.630467 30.632954 
L 482.642556 34.701563 
L 483.623018 33.178633 
L 484.603479 35.026983 
L 485.489057 37.897305 
L 486.469519 40.192427 
L 487.386724 45.291948 
L 488.398814 45.177203 
L 489.347647 51.163039 
L 490.264853 51.698358 
L 490.264853 51.698358 
" clip-path="url(#p7b2ae2de22)" style="fill: none; stroke: #ff7f0e; stroke-width: 1.5; stroke-linecap: square"/>
   </g>
   <g id="patch_3">
    <path d="M 70.866142 126.141732 
L 70.866142 17.007874 
" style="fill: none; stroke: #000000; stroke-width: 0.8; stroke-linejoin: miter; stroke-linecap: square"/>
   </g>
   <g id="patch_4">
    <path d="M 510.23622 126.141732 
L 510.23622 17.007874 
" style="fill: none; stroke: #000000; stroke-width: 0.8; stroke-linejoin: miter; stroke-linecap: square"/>
   </g>
   <g id="patch_5">
    <path d="M 70.866142 126.141732 
L 510.23622 126.141732 
" style="fill: none; stroke: #000000; stroke-width: 0.8; stroke-linejoin: miter; stroke-linecap: square"/>
   </g>
   <g id="patch_6">
    <path d="M 70.866142 17.007874 
L 510.23622 17.007874 
" style="fill: none; stroke: #000000; stroke-width: 0.8; stroke-linejoin: miter; stroke-linecap: square"/>
   </g>
   <g id="text_15">
    <!-- Index values over time -->
    <g transform="translate(224.772431 11.007874) scale(0.144 -0.144)">
     <defs>
      <path id="TimesNewRomanPSMT-49" d="M 1975 116 
L 1975 0 
L 159 0 
L 159 116 
L 309 116 
Q 572 116 691 269 
Q 766 369 766 750 
L 766 3488 
Q 766 3809 725 3913 
Q 694 3991 597 4047 
Q 459 4122 309 4122 
L 159 4122 
L 159 4238 
L 1975 4238 
L 1975 4122 
L 1822 4122 
Q 1563 4122 1444 3969 
Q 1366 3869 1366 3488 
L 1366 750 
Q 1366 428 1406 325 
Q 1438 247 1538 191 
Q 1672 116 1822 116 
L 1975 116 
z
" transform="scale(0.015625)"/>
      <path id="TimesNewRomanPSMT-6e" d="M 1034 2341 
Q 1538 2947 1994 2947 
Q 2228 2947 2397 2830 
Q 2566 2713 2666 2444 
Q 2734 2256 2734 1869 
L 2734 647 
Q 2734 375 2778 278 
Q 2813 200 2889 156 
Q 2966 113 3172 113 
L 3172 0 
L 1756 0 
L 1756 113 
L 1816 113 
Q 2016 113 2095 173 
Q 2175 234 2206 353 
Q 2219 400 2219 647 
L 2219 1819 
Q 2219 2209 2117 2386 
Q 2016 2563 1775 2563 
Q 1403 2563 1034 2156 
L 1034 647 
Q 1034 356 1069 288 
Q 1113 197 1189 155 
Q 1266 113 1500 113 
L 1500 0 
L 84 0 
L 84 113 
L 147 113 
Q 366 113 442 223 
Q 519 334 519 647 
L 519 1709 
Q 519 2225 495 2337 
Q 472 2450 423 2490 
Q 375 2531 294 2531 
Q 206 2531 84 2484 
L 38 2597 
L 900 2947 
L 1034 2947 
L 1034 2341 
z
" transform="scale(0.015625)"/>
      <path id="TimesNewRomanPSMT-78" d="M 84 2863 
L 1431 2863 
L 1431 2747 
Q 1303 2747 1251 2703 
Q 1200 2659 1200 2588 
Q 1200 2513 1309 2356 
Q 1344 2306 1413 2200 
L 1616 1875 
L 1850 2200 
Q 2075 2509 2075 2591 
Q 2075 2656 2022 2701 
Q 1969 2747 1850 2747 
L 1850 2863 
L 2819 2863 
L 2819 2747 
Q 2666 2738 2553 2663 
Q 2400 2556 2134 2200 
L 1744 1678 
L 2456 653 
Q 2719 275 2831 198 
Q 2944 122 3122 113 
L 3122 0 
L 1772 0 
L 1772 113 
Q 1913 113 1991 175 
Q 2050 219 2050 291 
Q 2050 363 1850 653 
L 1431 1266 
L 972 653 
Q 759 369 759 316 
Q 759 241 829 180 
Q 900 119 1041 113 
L 1041 0 
L 106 0 
L 106 113 
Q 219 128 303 191 
Q 422 281 703 653 
L 1303 1450 
L 759 2238 
Q 528 2575 401 2661 
Q 275 2747 84 2747 
L 84 2863 
z
" transform="scale(0.015625)"/>
      <path id="TimesNewRomanPSMT-20" transform="scale(0.015625)"/>
      <path id="TimesNewRomanPSMT-76" d="M 53 2863 
L 1400 2863 
L 1400 2747 
L 1313 2747 
Q 1191 2747 1127 2687 
Q 1063 2628 1063 2528 
Q 1063 2419 1128 2269 
L 1794 688 
L 2463 2328 
Q 2534 2503 2534 2594 
Q 2534 2638 2509 2666 
Q 2475 2713 2422 2730 
Q 2369 2747 2206 2747 
L 2206 2863 
L 3141 2863 
L 3141 2747 
Q 2978 2734 2916 2681 
Q 2806 2588 2719 2369 
L 1703 -88 
L 1575 -88 
L 553 2328 
Q 484 2497 421 2570 
Q 359 2644 263 2694 
Q 209 2722 53 2747 
L 53 2863 
z
" transform="scale(0.015625)"/>
      <path id="TimesNewRomanPSMT-6c" d="M 1184 4444 
L 1184 647 
Q 1184 378 1223 290 
Q 1263 203 1344 158 
Q 1425 113 1647 113 
L 1647 0 
L 244 0 
L 244 113 
Q 441 113 512 153 
Q 584 194 625 287 
Q 666 381 666 647 
L 666 3247 
Q 666 3731 644 3842 
Q 622 3953 573 3993 
Q 525 4034 450 4034 
Q 369 4034 244 3984 
L 191 4094 
L 1044 4444 
L 1184 4444 
z
" transform="scale(0.015625)"/>
      <path id="TimesNewRomanPSMT-75" d="M 2709 2863 
L 2709 1128 
Q 2709 631 2732 520 
Q 2756 409 2807 365 
Q 2859 322 2928 322 
Q 3025 322 3147 375 
L 3191 266 
L 2334 -88 
L 2194 -88 
L 2194 519 
Q 1825 119 1631 15 
Q 1438 -88 1222 -88 
Q 981 -88 804 51 
Q 628 191 559 409 
Q 491 628 491 1028 
L 491 2306 
Q 491 2509 447 2587 
Q 403 2666 317 2708 
Q 231 2750 6 2747 
L 6 2863 
L 1009 2863 
L 1009 947 
Q 1009 547 1148 422 
Q 1288 297 1484 297 
Q 1619 297 1789 381 
Q 1959 466 2194 703 
L 2194 2325 
Q 2194 2569 2105 2655 
Q 2016 2741 1734 2747 
L 1734 2863 
L 2709 2863 
z
" transform="scale(0.015625)"/>
      <path id="TimesNewRomanPSMT-73" d="M 2050 2947 
L 2050 1972 
L 1947 1972 
Q 1828 2431 1642 2597 
Q 1456 2763 1169 2763 
Q 950 2763 815 2647 
Q 681 2531 681 2391 
Q 681 2216 781 2091 
Q 878 1963 1175 1819 
L 1631 1597 
Q 2266 1288 2266 781 
Q 2266 391 1970 151 
Q 1675 -88 1309 -88 
Q 1047 -88 709 6 
Q 606 38 541 38 
Q 469 38 428 -44 
L 325 -44 
L 325 978 
L 428 978 
Q 516 541 762 319 
Q 1009 97 1316 97 
Q 1531 97 1667 223 
Q 1803 350 1803 528 
Q 1803 744 1651 891 
Q 1500 1038 1047 1263 
Q 594 1488 453 1669 
Q 313 1847 313 2119 
Q 313 2472 555 2709 
Q 797 2947 1181 2947 
Q 1350 2947 1591 2875 
Q 1750 2828 1803 2828 
Q 1853 2828 1881 2850 
Q 1909 2872 1947 2947 
L 2050 2947 
z
" transform="scale(0.015625)"/>
      <path id="TimesNewRomanPSMT-6f" d="M 1600 2947 
Q 2250 2947 2644 2453 
Q 2978 2031 2978 1484 
Q 2978 1100 2793 706 
Q 2609 313 2286 112 
Q 1963 -88 1566 -88 
Q 919 -88 538 428 
Q 216 863 216 1403 
Q 216 1797 411 2186 
Q 606 2575 925 2761 
Q 1244 2947 1600 2947 
z
M 1503 2744 
Q 1338 2744 1170 2645 
Q 1003 2547 900 2300 
Q 797 2053 797 1666 
Q 797 1041 1045 587 
Q 1294 134 1700 134 
Q 2003 134 2200 384 
Q 2397 634 2397 1244 
Q 2397 2006 2069 2444 
Q 1847 2744 1503 2744 
z
" transform="scale(0.015625)"/>
      <path id="TimesNewRomanPSMT-6d" d="M 1050 2338 
Q 1363 2650 1419 2697 
Q 1559 2816 1721 2881 
Q 1884 2947 2044 2947 
Q 2313 2947 2506 2790 
Q 2700 2634 2766 2338 
Q 3088 2713 3309 2830 
Q 3531 2947 3766 2947 
Q 3994 2947 4170 2830 
Q 4347 2713 4450 2447 
Q 4519 2266 4519 1878 
L 4519 647 
Q 4519 378 4559 278 
Q 4591 209 4675 161 
Q 4759 113 4950 113 
L 4950 0 
L 3538 0 
L 3538 113 
L 3597 113 
Q 3781 113 3884 184 
Q 3956 234 3988 344 
Q 4000 397 4000 647 
L 4000 1878 
Q 4000 2228 3916 2372 
Q 3794 2572 3525 2572 
Q 3359 2572 3192 2489 
Q 3025 2406 2788 2181 
L 2781 2147 
L 2788 2013 
L 2788 647 
Q 2788 353 2820 281 
Q 2853 209 2943 161 
Q 3034 113 3253 113 
L 3253 0 
L 1806 0 
L 1806 113 
Q 2044 113 2133 169 
Q 2222 225 2256 338 
Q 2272 391 2272 647 
L 2272 1878 
Q 2272 2228 2169 2381 
Q 2031 2581 1784 2581 
Q 1616 2581 1450 2491 
Q 1191 2353 1050 2181 
L 1050 647 
Q 1050 366 1089 281 
Q 1128 197 1204 155 
Q 1281 113 1516 113 
L 1516 0 
L 100 0 
L 100 113 
Q 297 113 375 155 
Q 453 197 493 289 
Q 534 381 534 647 
L 534 1741 
Q 534 2213 506 2350 
Q 484 2453 437 2492 
Q 391 2531 309 2531 
Q 222 2531 100 2484 
L 53 2597 
L 916 2947 
L 1050 2947 
L 1050 2338 
z
" transform="scale(0.015625)"/>
     </defs>
     <use xlink:href="#TimesNewRomanPSMT-49"/>
     <use xlink:href="#TimesNewRomanPSMT-6e" x="33.300781"/>
     <use xlink:href="#TimesNewRomanPSMT-64" x="83.300781"/>
     <use xlink:href="#TimesNewRomanPSMT-65" x="133.300781"/>
     <use xlink:href="#TimesNewRomanPSMT-78" x="177.685547"/>
     <use xlink:href="#TimesNewRomanPSMT-20" x="227.685547"/>
     <use xlink:href="#TimesNewRomanPSMT-76" x="252.685547"/>
     <use xlink:href="#TimesNewRomanPSMT-61" x="302.685547"/>
     <use xlink:href="#TimesNewRomanPSMT-6c" x="347.070312"/>
     <use xlink:href="#TimesNewRomanPSMT-75" x="374.853516"/>
     <use xlink:href="#TimesNewRomanPSMT-65" x="424.853516"/>
     <use xlink:href="#TimesNewRomanPSMT-73" x="469.238281"/>
     <use xlink:href="#TimesNewRomanPSMT-20" x="508.154297"/>
     <use xlink:href="#TimesNewRomanPSMT-6f" x="533.154297"/>
     <use xlink:href="#TimesNewRomanPSMT-76" x="583.154297"/>
     <use xlink:href="#TimesNewRomanPSMT-65" x="633.154297"/>
     <use xlink:href="#TimesNewRomanPSMT-72" x="677.539062"/>
     <use xlink:href="#TimesNewRomanPSMT-20" x="710.839844"/>
     <use xlink:href="#TimesNewRomanPSMT-74" x="735.839844"/>
     <use xlink:href="#TimesNewRomanPSMT-69" x="763.623047"/>
     <use xlink:href="#TimesNewRomanPSMT-6d" x="791.40625"/>
     <use xlink:href="#TimesNewRomanPSMT-65" x="869.189453"/>
    </g>
   </g>
   <g id="legend_1">
    <g id="patch_7">
     <path d="M 79.266142 60.586624 
L 182.706142 60.586624 
Q 185.106142 60.586624 185.106142 58.186624 
L 185.106142 25.407874 
Q 185.106142 23.007874 182.706142 23.007874 
L 79.266142 23.007874 
Q 76.866142 23.007874 76.866142 25.407874 
L 76.866142 58.186624 
Q 76.866142 60.586624 79.266142 60.586624 
z
" style="fill: #ffffff; opacity: 0.8; stroke: #cccccc; stroke-linejoin: miter"/>
    </g>
    <g id="line2d_15">
     <path d="M 81.666142 32.007874 
L 93.666142 32.007874 
L 105.666142 32.007874 
" style="fill: none; stroke: #1f77b4; stroke-width: 1.5; stroke-linecap: square"/>
    </g>
    <g id="text_16">
     <!-- MSCI_EM -->
     <g transform="translate(115.266142 36.207874) scale(0.12 -0.12)">
      <defs>
       <path id="TimesNewRomanPSMT-4d" d="M 2619 0 
L 981 3566 
L 981 734 
Q 981 344 1066 247 
Q 1181 116 1431 116 
L 1581 116 
L 1581 0 
L 106 0 
L 106 116 
L 256 116 
Q 525 116 638 278 
Q 706 378 706 734 
L 706 3503 
Q 706 3784 644 3909 
Q 600 4000 483 4061 
Q 366 4122 106 4122 
L 106 4238 
L 1306 4238 
L 2844 922 
L 4356 4238 
L 5556 4238 
L 5556 4122 
L 5409 4122 
Q 5138 4122 5025 3959 
Q 4956 3859 4956 3503 
L 4956 734 
Q 4956 344 5044 247 
Q 5159 116 5409 116 
L 5556 116 
L 5556 0 
L 3756 0 
L 3756 116 
L 3906 116 
Q 4178 116 4288 278 
Q 4356 378 4356 734 
L 4356 3566 
L 2722 0 
L 2619 0 
z
" transform="scale(0.015625)"/>
       <path id="TimesNewRomanPSMT-53" d="M 2934 4334 
L 2934 2869 
L 2819 2869 
Q 2763 3291 2617 3541 
Q 2472 3791 2203 3937 
Q 1934 4084 1647 4084 
Q 1322 4084 1109 3886 
Q 897 3688 897 3434 
Q 897 3241 1031 3081 
Q 1225 2847 1953 2456 
Q 2547 2138 2764 1967 
Q 2981 1797 3098 1565 
Q 3216 1334 3216 1081 
Q 3216 600 2842 251 
Q 2469 -97 1881 -97 
Q 1697 -97 1534 -69 
Q 1438 -53 1133 45 
Q 828 144 747 144 
Q 669 144 623 97 
Q 578 50 556 -97 
L 441 -97 
L 441 1356 
L 556 1356 
Q 638 900 775 673 
Q 913 447 1195 297 
Q 1478 147 1816 147 
Q 2206 147 2432 353 
Q 2659 559 2659 841 
Q 2659 997 2573 1156 
Q 2488 1316 2306 1453 
Q 2184 1547 1640 1851 
Q 1097 2156 867 2337 
Q 638 2519 519 2737 
Q 400 2956 400 3219 
Q 400 3675 750 4004 
Q 1100 4334 1641 4334 
Q 1978 4334 2356 4169 
Q 2531 4091 2603 4091 
Q 2684 4091 2736 4139 
Q 2788 4188 2819 4334 
L 2934 4334 
z
" transform="scale(0.015625)"/>
       <path id="TimesNewRomanPSMT-43" d="M 3853 4334 
L 3950 2894 
L 3853 2894 
Q 3659 3541 3300 3825 
Q 2941 4109 2438 4109 
Q 2016 4109 1675 3895 
Q 1334 3681 1139 3212 
Q 944 2744 944 2047 
Q 944 1472 1128 1050 
Q 1313 628 1683 403 
Q 2053 178 2528 178 
Q 2941 178 3256 354 
Q 3572 531 3950 1056 
L 4047 994 
Q 3728 428 3303 165 
Q 2878 -97 2294 -97 
Q 1241 -97 663 684 
Q 231 1266 231 2053 
Q 231 2688 515 3219 
Q 800 3750 1298 4042 
Q 1797 4334 2388 4334 
Q 2847 4334 3294 4109 
Q 3425 4041 3481 4041 
Q 3566 4041 3628 4100 
Q 3709 4184 3744 4334 
L 3853 4334 
z
" transform="scale(0.015625)"/>
       <path id="TimesNewRomanPSMT-5f" d="M 3256 -1381 
L -53 -1381 
L -53 -1119 
L 3256 -1119 
L 3256 -1381 
z
" transform="scale(0.015625)"/>
       <path id="TimesNewRomanPSMT-45" d="M 1338 4006 
L 1338 2331 
L 2269 2331 
Q 2631 2331 2753 2441 
Q 2916 2584 2934 2947 
L 3050 2947 
L 3050 1472 
L 2934 1472 
Q 2891 1781 2847 1869 
Q 2791 1978 2662 2040 
Q 2534 2103 2269 2103 
L 1338 2103 
L 1338 706 
Q 1338 425 1363 364 
Q 1388 303 1450 267 
Q 1513 231 1688 231 
L 2406 231 
Q 2766 231 2928 281 
Q 3091 331 3241 478 
Q 3434 672 3638 1063 
L 3763 1063 
L 3397 0 
L 131 0 
L 131 116 
L 281 116 
Q 431 116 566 188 
Q 666 238 702 338 
Q 738 438 738 747 
L 738 3500 
Q 738 3903 656 3997 
Q 544 4122 281 4122 
L 131 4122 
L 131 4238 
L 3397 4238 
L 3444 3309 
L 3322 3309 
Q 3256 3644 3176 3769 
Q 3097 3894 2941 3959 
Q 2816 4006 2500 4006 
L 1338 4006 
z
" transform="scale(0.015625)"/>
      </defs>
      <use xlink:href="#TimesNewRomanPSMT-4d"/>
      <use xlink:href="#TimesNewRomanPSMT-53" x="88.916016"/>
      <use xlink:href="#TimesNewRomanPSMT-43" x="144.53125"/>
      <use xlink:href="#TimesNewRomanPSMT-49" x="211.230469"/>
      <use xlink:href="#TimesNewRomanPSMT-5f" x="244.53125"/>
      <use xlink:href="#TimesNewRomanPSMT-45" x="294.53125"/>
      <use xlink:href="#TimesNewRomanPSMT-4d" x="355.615234"/>
     </g>
    </g>
    <g id="line2d_16">
     <path d="M 81.666142 48.997249 
L 93.666142 48.997249 
L 105.666142 48.997249 
" style="fill: none; stroke: #ff7f0e; stroke-width: 1.5; stroke-linecap: square"/>
    </g>
    <g id="text_17">
     <!-- MSCI_World -->
     <g transform="translate(115.266142 53.197249) scale(0.12 -0.12)">
      <defs>
       <path id="TimesNewRomanPSMT-57" d="M 5991 4238 
L 5991 4122 
Q 5825 4122 5722 4062 
Q 5619 4003 5525 3841 
Q 5463 3731 5328 3319 
L 4147 -97 
L 4022 -97 
L 3056 2613 
L 2097 -97 
L 1984 -97 
L 725 3422 
Q 584 3816 547 3888 
Q 484 4006 376 4064 
Q 269 4122 84 4122 
L 84 4238 
L 1653 4238 
L 1653 4122 
L 1578 4122 
Q 1413 4122 1325 4047 
Q 1238 3972 1238 3866 
Q 1238 3756 1375 3363 
L 2209 984 
L 2913 3006 
L 2788 3363 
L 2688 3647 
Q 2622 3803 2541 3922 
Q 2500 3981 2441 4022 
Q 2363 4078 2284 4103 
Q 2225 4122 2097 4122 
L 2097 4238 
L 3747 4238 
L 3747 4122 
L 3634 4122 
Q 3459 4122 3378 4047 
Q 3297 3972 3297 3844 
Q 3297 3684 3438 3288 
L 4250 984 
L 5056 3319 
Q 5194 3706 5194 3856 
Q 5194 3928 5148 3990 
Q 5103 4053 5034 4078 
Q 4916 4122 4725 4122 
L 4725 4238 
L 5991 4238 
z
" transform="scale(0.015625)"/>
      </defs>
      <use xlink:href="#TimesNewRomanPSMT-4d"/>
      <use xlink:href="#TimesNewRomanPSMT-53" x="88.916016"/>
      <use xlink:href="#TimesNewRomanPSMT-43" x="144.53125"/>
      <use xlink:href="#TimesNewRomanPSMT-49" x="211.230469"/>
      <use xlink:href="#TimesNewRomanPSMT-5f" x="244.53125"/>
      <use xlink:href="#TimesNewRomanPSMT-57" x="294.53125"/>
      <use xlink:href="#TimesNewRomanPSMT-6f" x="380.916016"/>
      <use xlink:href="#TimesNewRomanPSMT-72" x="430.916016"/>
      <use xlink:href="#TimesNewRomanPSMT-6c" x="464.216797"/>
      <use xlink:href="#TimesNewRomanPSMT-64" x="492"/>
     </g>
    </g>
   </g>
  </g>
 </g>
 <defs>
  <clipPath id="p7b2ae2de22">
   <rect x="70.866142" y="17.007874" width="439.370079" height="109.133858"/>
  </clipPath>
 </defs>
</svg>
