<?xml version="1.0" encoding="utf-8" standalone="no"?>
<!DOCTYPE svg PUBLIC "-//W3C//DTD SVG 1.1//EN"
  "http://www.w3.org/Graphics/SVG/1.1/DTD/svg11.dtd">
<svg xmlns:xlink="http://www.w3.org/1999/xlink" width="425.19685pt" height="141.732283pt" viewBox="0 0 425.19685 141.732283" xmlns="http://www.w3.org/2000/svg" version="1.1">
 <metadata>
  <rdf:RDF xmlns:dc="http://purl.org/dc/elements/1.1/" xmlns:cc="http://creativecommons.org/ns#" xmlns:rdf="http://www.w3.org/1999/02/22-rdf-syntax-ns#">
   <cc:Work>
    <dc:type rdf:resource="http://purl.org/dc/dcmitype/StillImage"/>
    <dc:date>2023-02-22T13:03:32.901113</dc:date>
    <dc:format>image/svg+xml</dc:format>
    <dc:creator>
     <cc:Agent>
      <dc:title>Matplotlib v3.7.0, https://matplotlib.org/</dc:title>
     </cc:Agent>
    </dc:creator>
   </cc:Work>
  </rdf:RDF>
 </metadata>
 <defs>
  <style type="text/css">*{stroke-linejoin: round; stroke-linecap: butt}</style>
 </defs>
 <g id="figure_1">
  <g id="patch_1">
   <path d="M 0 141.732283 
L 425.19685 141.732283 
L 425.19685 0 
L 0 0 
z
" style="fill: #ffffff"/>
  </g>
  <g id="axes_1">
   <g id="patch_2">
    <path d="M 53.149606 126.141732 
L 382.677165 126.141732 
L 382.677165 17.007874 
L 53.149606 17.007874 
z
" style="fill: #ffffff"/>
   </g>
   <g id="matplotlib.axis_1">
    <g id="xtick_1">
     <g id="line2d_1">
      <defs>
       <path id="m2d14f22d8c" d="M 0 0 
L 0 3.5 
" style="stroke: #000000; stroke-width: 0.8"/>
      </defs>
      <g>
       <use xlink:href="#m2d14f22d8c" x="67.462419" y="126.141732" style="stroke: #000000; stroke-width: 0.8"/>
      </g>
     </g>
     <g id="text_1">
      <!-- 1988 -->
      <g transform="translate(55.462419 141.474232) scale(0.12 -0.12)">
       <defs>
        <path id="TimesNewRomanPSMT-31" d="M 750 3822 
L 1781 4325 
L 1884 4325 
L 1884 747 
Q 1884 391 1914 303 
Q 1944 216 2037 169 
Q 2131 122 2419 116 
L 2419 0 
L 825 0 
L 825 116 
Q 1125 122 1212 167 
Q 1300 213 1334 289 
Q 1369 366 1369 747 
L 1369 3034 
Q 1369 3497 1338 3628 
Q 1316 3728 1258 3775 
Q 1200 3822 1119 3822 
Q 1003 3822 797 3725 
L 750 3822 
z
" transform="scale(0.015625)"/>
        <path id="TimesNewRomanPSMT-39" d="M 338 -88 
L 338 28 
Q 744 34 1094 217 
Q 1444 400 1770 856 
Q 2097 1313 2225 1859 
Q 1734 1544 1338 1544 
Q 891 1544 572 1889 
Q 253 2234 253 2806 
Q 253 3363 572 3797 
Q 956 4325 1575 4325 
Q 2097 4325 2469 3894 
Q 2925 3359 2925 2575 
Q 2925 1869 2578 1258 
Q 2231 647 1613 244 
Q 1109 -88 516 -88 
L 338 -88 
z
M 2275 2091 
Q 2331 2497 2331 2741 
Q 2331 3044 2228 3395 
Q 2125 3747 1936 3934 
Q 1747 4122 1506 4122 
Q 1228 4122 1018 3872 
Q 809 3622 809 3128 
Q 809 2469 1088 2097 
Q 1291 1828 1588 1828 
Q 1731 1828 1928 1897 
Q 2125 1966 2275 2091 
z
" transform="scale(0.015625)"/>
        <path id="TimesNewRomanPSMT-38" d="M 1228 2134 
Q 725 2547 579 2797 
Q 434 3047 434 3316 
Q 434 3728 753 4026 
Q 1072 4325 1600 4325 
Q 2113 4325 2425 4047 
Q 2738 3769 2738 3413 
Q 2738 3175 2569 2928 
Q 2400 2681 1866 2347 
Q 2416 1922 2594 1678 
Q 2831 1359 2831 1006 
Q 2831 559 2490 242 
Q 2150 -75 1597 -75 
Q 994 -75 656 303 
Q 388 606 388 966 
Q 388 1247 577 1523 
Q 766 1800 1228 2134 
z
M 1719 2469 
Q 2094 2806 2194 3001 
Q 2294 3197 2294 3444 
Q 2294 3772 2109 3958 
Q 1925 4144 1606 4144 
Q 1288 4144 1088 3959 
Q 888 3775 888 3528 
Q 888 3366 970 3203 
Q 1053 3041 1206 2894 
L 1719 2469 
z
M 1375 2016 
Q 1116 1797 991 1539 
Q 866 1281 866 981 
Q 866 578 1086 336 
Q 1306 94 1647 94 
Q 1984 94 2187 284 
Q 2391 475 2391 747 
Q 2391 972 2272 1150 
Q 2050 1481 1375 2016 
z
" transform="scale(0.015625)"/>
       </defs>
       <use xlink:href="#TimesNewRomanPSMT-31"/>
       <use xlink:href="#TimesNewRomanPSMT-39" x="50"/>
       <use xlink:href="#TimesNewRomanPSMT-38" x="100"/>
       <use xlink:href="#TimesNewRomanPSMT-38" x="150"/>
      </g>
     </g>
    </g>
    <g id="xtick_2">
     <g id="line2d_2">
      <g>
       <use xlink:href="#m2d14f22d8c" x="102.198333" y="126.141732" style="stroke: #000000; stroke-width: 0.8"/>
      </g>
     </g>
     <g id="text_2">
      <!-- 1992 -->
      <g transform="translate(90.198333 141.474232) scale(0.12 -0.12)">
       <defs>
        <path id="TimesNewRomanPSMT-32" d="M 2934 816 
L 2638 0 
L 138 0 
L 138 116 
Q 1241 1122 1691 1759 
Q 2141 2397 2141 2925 
Q 2141 3328 1894 3587 
Q 1647 3847 1303 3847 
Q 991 3847 742 3664 
Q 494 3481 375 3128 
L 259 3128 
Q 338 3706 661 4015 
Q 984 4325 1469 4325 
Q 1984 4325 2329 3994 
Q 2675 3663 2675 3213 
Q 2675 2891 2525 2569 
Q 2294 2063 1775 1497 
Q 997 647 803 472 
L 1909 472 
Q 2247 472 2383 497 
Q 2519 522 2628 598 
Q 2738 675 2819 816 
L 2934 816 
z
" transform="scale(0.015625)"/>
       </defs>
       <use xlink:href="#TimesNewRomanPSMT-31"/>
       <use xlink:href="#TimesNewRomanPSMT-39" x="50"/>
       <use xlink:href="#TimesNewRomanPSMT-39" x="100"/>
       <use xlink:href="#TimesNewRomanPSMT-32" x="150"/>
      </g>
     </g>
    </g>
    <g id="xtick_3">
     <g id="line2d_3">
      <g>
       <use xlink:href="#m2d14f22d8c" x="136.934247" y="126.141732" style="stroke: #000000; stroke-width: 0.8"/>
      </g>
     </g>
     <g id="text_3">
      <!-- 1996 -->
      <g transform="translate(124.934247 141.474232) scale(0.12 -0.12)">
       <defs>
        <path id="TimesNewRomanPSMT-36" d="M 2869 4325 
L 2869 4209 
Q 2456 4169 2195 4045 
Q 1934 3922 1679 3669 
Q 1425 3416 1258 3105 
Q 1091 2794 978 2366 
Q 1428 2675 1881 2675 
Q 2316 2675 2634 2325 
Q 2953 1975 2953 1425 
Q 2953 894 2631 456 
Q 2244 -75 1606 -75 
Q 1172 -75 869 213 
Q 275 772 275 1663 
Q 275 2231 503 2743 
Q 731 3256 1154 3653 
Q 1578 4050 1965 4187 
Q 2353 4325 2688 4325 
L 2869 4325 
z
M 925 2138 
Q 869 1716 869 1456 
Q 869 1156 980 804 
Q 1091 453 1309 247 
Q 1469 100 1697 100 
Q 1969 100 2183 356 
Q 2397 613 2397 1088 
Q 2397 1622 2184 2012 
Q 1972 2403 1581 2403 
Q 1463 2403 1327 2353 
Q 1191 2303 925 2138 
z
" transform="scale(0.015625)"/>
       </defs>
       <use xlink:href="#TimesNewRomanPSMT-31"/>
       <use xlink:href="#TimesNewRomanPSMT-39" x="50"/>
       <use xlink:href="#TimesNewRomanPSMT-39" x="100"/>
       <use xlink:href="#TimesNewRomanPSMT-36" x="150"/>
      </g>
     </g>
    </g>
    <g id="xtick_4">
     <g id="line2d_4">
      <g>
       <use xlink:href="#m2d14f22d8c" x="171.670161" y="126.141732" style="stroke: #000000; stroke-width: 0.8"/>
      </g>
     </g>
     <g id="text_4">
      <!-- 2000 -->
      <g transform="translate(159.670161 141.474232) scale(0.12 -0.12)">
       <defs>
        <path id="TimesNewRomanPSMT-30" d="M 231 2094 
Q 231 2819 450 3342 
Q 669 3866 1031 4122 
Q 1313 4325 1613 4325 
Q 2100 4325 2488 3828 
Q 2972 3213 2972 2159 
Q 2972 1422 2759 906 
Q 2547 391 2217 158 
Q 1888 -75 1581 -75 
Q 975 -75 572 641 
Q 231 1244 231 2094 
z
M 844 2016 
Q 844 1141 1059 588 
Q 1238 122 1591 122 
Q 1759 122 1940 273 
Q 2122 425 2216 781 
Q 2359 1319 2359 2297 
Q 2359 3022 2209 3506 
Q 2097 3866 1919 4016 
Q 1791 4119 1609 4119 
Q 1397 4119 1231 3928 
Q 1006 3669 925 3112 
Q 844 2556 844 2016 
z
" transform="scale(0.015625)"/>
       </defs>
       <use xlink:href="#TimesNewRomanPSMT-32"/>
       <use xlink:href="#TimesNewRomanPSMT-30" x="50"/>
       <use xlink:href="#TimesNewRomanPSMT-30" x="100"/>
       <use xlink:href="#TimesNewRomanPSMT-30" x="150"/>
      </g>
     </g>
    </g>
    <g id="xtick_5">
     <g id="line2d_5">
      <g>
       <use xlink:href="#m2d14f22d8c" x="206.406074" y="126.141732" style="stroke: #000000; stroke-width: 0.8"/>
      </g>
     </g>
     <g id="text_5">
      <!-- 2004 -->
      <g transform="translate(194.406074 141.474232) scale(0.12 -0.12)">
       <defs>
        <path id="TimesNewRomanPSMT-34" d="M 2978 1563 
L 2978 1119 
L 2409 1119 
L 2409 0 
L 1894 0 
L 1894 1119 
L 100 1119 
L 100 1519 
L 2066 4325 
L 2409 4325 
L 2409 1563 
L 2978 1563 
z
M 1894 1563 
L 1894 3666 
L 406 1563 
L 1894 1563 
z
" transform="scale(0.015625)"/>
       </defs>
       <use xlink:href="#TimesNewRomanPSMT-32"/>
       <use xlink:href="#TimesNewRomanPSMT-30" x="50"/>
       <use xlink:href="#TimesNewRomanPSMT-30" x="100"/>
       <use xlink:href="#TimesNewRomanPSMT-34" x="150"/>
      </g>
     </g>
    </g>
    <g id="xtick_6">
     <g id="line2d_6">
      <g>
       <use xlink:href="#m2d14f22d8c" x="241.141988" y="126.141732" style="stroke: #000000; stroke-width: 0.8"/>
      </g>
     </g>
     <g id="text_6">
      <!-- 2008 -->
      <g transform="translate(229.141988 141.474232) scale(0.12 -0.12)">
       <use xlink:href="#TimesNewRomanPSMT-32"/>
       <use xlink:href="#TimesNewRomanPSMT-30" x="50"/>
       <use xlink:href="#TimesNewRomanPSMT-30" x="100"/>
       <use xlink:href="#TimesNewRomanPSMT-38" x="150"/>
      </g>
     </g>
    </g>
    <g id="xtick_7">
     <g id="line2d_7">
      <g>
       <use xlink:href="#m2d14f22d8c" x="275.877902" y="126.141732" style="stroke: #000000; stroke-width: 0.8"/>
      </g>
     </g>
     <g id="text_7">
      <!-- 2012 -->
      <g transform="translate(263.877902 141.474232) scale(0.12 -0.12)">
       <use xlink:href="#TimesNewRomanPSMT-32"/>
       <use xlink:href="#TimesNewRomanPSMT-30" x="50"/>
       <use xlink:href="#TimesNewRomanPSMT-31" x="100"/>
       <use xlink:href="#TimesNewRomanPSMT-32" x="150"/>
      </g>
     </g>
    </g>
    <g id="xtick_8">
     <g id="line2d_8">
      <g>
       <use xlink:href="#m2d14f22d8c" x="310.613815" y="126.141732" style="stroke: #000000; stroke-width: 0.8"/>
      </g>
     </g>
     <g id="text_8">
      <!-- 2016 -->
      <g transform="translate(298.613815 141.474232) scale(0.12 -0.12)">
       <use xlink:href="#TimesNewRomanPSMT-32"/>
       <use xlink:href="#TimesNewRomanPSMT-30" x="50"/>
       <use xlink:href="#TimesNewRomanPSMT-31" x="100"/>
       <use xlink:href="#TimesNewRomanPSMT-36" x="150"/>
      </g>
     </g>
    </g>
    <g id="xtick_9">
     <g id="line2d_9">
      <g>
       <use xlink:href="#m2d14f22d8c" x="345.349729" y="126.141732" style="stroke: #000000; stroke-width: 0.8"/>
      </g>
     </g>
     <g id="text_9">
      <!-- 2020 -->
      <g transform="translate(333.349729 141.474232) scale(0.12 -0.12)">
       <use xlink:href="#TimesNewRomanPSMT-32"/>
       <use xlink:href="#TimesNewRomanPSMT-30" x="50"/>
       <use xlink:href="#TimesNewRomanPSMT-32" x="100"/>
       <use xlink:href="#TimesNewRomanPSMT-30" x="150"/>
      </g>
     </g>
    </g>
    <g id="xtick_10">
     <g id="line2d_10">
      <g>
       <use xlink:href="#m2d14f22d8c" x="380.085643" y="126.141732" style="stroke: #000000; stroke-width: 0.8"/>
      </g>
     </g>
     <g id="text_10">
      <!-- 2024 -->
      <g transform="translate(368.085643 141.474232) scale(0.12 -0.12)">
       <use xlink:href="#TimesNewRomanPSMT-32"/>
       <use xlink:href="#TimesNewRomanPSMT-30" x="50"/>
       <use xlink:href="#TimesNewRomanPSMT-32" x="100"/>
       <use xlink:href="#TimesNewRomanPSMT-34" x="150"/>
      </g>
     </g>
    </g>
    <g id="text_11">
     <!-- date -->
     <g transform="translate(207.919636 156.373607) scale(0.12 -0.12)">
      <defs>
       <path id="TimesNewRomanPSMT-64" d="M 2222 322 
Q 2013 103 1813 7 
Q 1613 -88 1381 -88 
Q 913 -88 563 304 
Q 213 697 213 1313 
Q 213 1928 600 2439 
Q 988 2950 1597 2950 
Q 1975 2950 2222 2709 
L 2222 3238 
Q 2222 3728 2198 3840 
Q 2175 3953 2125 3993 
Q 2075 4034 2000 4034 
Q 1919 4034 1784 3984 
L 1744 4094 
L 2597 4444 
L 2738 4444 
L 2738 1134 
Q 2738 631 2761 520 
Q 2784 409 2836 365 
Q 2888 322 2956 322 
Q 3041 322 3181 375 
L 3216 266 
L 2366 -88 
L 2222 -88 
L 2222 322 
z
M 2222 541 
L 2222 2016 
Q 2203 2228 2109 2403 
Q 2016 2578 1861 2667 
Q 1706 2756 1559 2756 
Q 1284 2756 1069 2509 
Q 784 2184 784 1559 
Q 784 928 1059 592 
Q 1334 256 1672 256 
Q 1956 256 2222 541 
z
" transform="scale(0.015625)"/>
       <path id="TimesNewRomanPSMT-61" d="M 1822 413 
Q 1381 72 1269 19 
Q 1100 -59 909 -59 
Q 613 -59 420 144 
Q 228 347 228 678 
Q 228 888 322 1041 
Q 450 1253 767 1440 
Q 1084 1628 1822 1897 
L 1822 2009 
Q 1822 2438 1686 2597 
Q 1550 2756 1291 2756 
Q 1094 2756 978 2650 
Q 859 2544 859 2406 
L 866 2225 
Q 866 2081 792 2003 
Q 719 1925 600 1925 
Q 484 1925 411 2006 
Q 338 2088 338 2228 
Q 338 2497 613 2722 
Q 888 2947 1384 2947 
Q 1766 2947 2009 2819 
Q 2194 2722 2281 2516 
Q 2338 2381 2338 1966 
L 2338 994 
Q 2338 584 2353 492 
Q 2369 400 2405 369 
Q 2441 338 2488 338 
Q 2538 338 2575 359 
Q 2641 400 2828 588 
L 2828 413 
Q 2478 -56 2159 -56 
Q 2006 -56 1915 50 
Q 1825 156 1822 413 
z
M 1822 616 
L 1822 1706 
Q 1350 1519 1213 1441 
Q 966 1303 859 1153 
Q 753 1003 753 825 
Q 753 600 887 451 
Q 1022 303 1197 303 
Q 1434 303 1822 616 
z
" transform="scale(0.015625)"/>
       <path id="TimesNewRomanPSMT-74" d="M 1031 3803 
L 1031 2863 
L 1700 2863 
L 1700 2644 
L 1031 2644 
L 1031 788 
Q 1031 509 1111 412 
Q 1191 316 1316 316 
Q 1419 316 1516 380 
Q 1613 444 1666 569 
L 1788 569 
Q 1678 263 1478 108 
Q 1278 -47 1066 -47 
Q 922 -47 784 33 
Q 647 113 581 261 
Q 516 409 516 719 
L 516 2644 
L 63 2644 
L 63 2747 
Q 234 2816 414 2980 
Q 594 3144 734 3369 
Q 806 3488 934 3803 
L 1031 3803 
z
" transform="scale(0.015625)"/>
       <path id="TimesNewRomanPSMT-65" d="M 681 1784 
Q 678 1147 991 784 
Q 1303 422 1725 422 
Q 2006 422 2214 576 
Q 2422 731 2563 1106 
L 2659 1044 
Q 2594 616 2278 264 
Q 1963 -88 1488 -88 
Q 972 -88 605 314 
Q 238 716 238 1394 
Q 238 2128 614 2539 
Q 991 2950 1559 2950 
Q 2041 2950 2350 2633 
Q 2659 2316 2659 1784 
L 681 1784 
z
M 681 1966 
L 2006 1966 
Q 1991 2241 1941 2353 
Q 1863 2528 1708 2628 
Q 1553 2728 1384 2728 
Q 1125 2728 920 2526 
Q 716 2325 681 1966 
z
" transform="scale(0.015625)"/>
      </defs>
      <use xlink:href="#TimesNewRomanPSMT-64"/>
      <use xlink:href="#TimesNewRomanPSMT-61" x="50"/>
      <use xlink:href="#TimesNewRomanPSMT-74" x="94.384766"/>
      <use xlink:href="#TimesNewRomanPSMT-65" x="122.167969"/>
     </g>
    </g>
   </g>
   <g id="matplotlib.axis_2">
    <g id="ytick_1">
     <g id="line2d_11">
      <defs>
       <path id="mec9f3a3def" d="M 0 0 
L -3.5 0 
" style="stroke: #000000; stroke-width: 0.8"/>
      </defs>
      <g>
       <use xlink:href="#mec9f3a3def" x="53.149606" y="86.903118" style="stroke: #000000; stroke-width: 0.8"/>
      </g>
     </g>
     <g id="text_12">
      <!-- 5 -->
      <g transform="translate(40.149606 91.069368) scale(0.12 -0.12)">
       <defs>
        <path id="TimesNewRomanPSMT-35" d="M 2778 4238 
L 2534 3706 
L 1259 3706 
L 981 3138 
Q 1809 3016 2294 2522 
Q 2709 2097 2709 1522 
Q 2709 1188 2573 903 
Q 2438 619 2231 419 
Q 2025 219 1772 97 
Q 1413 -75 1034 -75 
Q 653 -75 479 54 
Q 306 184 306 341 
Q 306 428 378 495 
Q 450 563 559 563 
Q 641 563 702 538 
Q 763 513 909 409 
Q 1144 247 1384 247 
Q 1750 247 2026 523 
Q 2303 800 2303 1197 
Q 2303 1581 2056 1914 
Q 1809 2247 1375 2428 
Q 1034 2569 447 2591 
L 1259 4238 
L 2778 4238 
z
" transform="scale(0.015625)"/>
       </defs>
       <use xlink:href="#TimesNewRomanPSMT-35"/>
      </g>
     </g>
    </g>
    <g id="ytick_2">
     <g id="line2d_12">
      <g>
       <use xlink:href="#mec9f3a3def" x="53.149606" y="44.055638" style="stroke: #000000; stroke-width: 0.8"/>
      </g>
     </g>
     <g id="text_13">
      <!-- 10 -->
      <g transform="translate(34.149606 48.221888) scale(0.12 -0.12)">
       <use xlink:href="#TimesNewRomanPSMT-31"/>
       <use xlink:href="#TimesNewRomanPSMT-30" x="50"/>
      </g>
     </g>
    </g>
    <g id="text_14">
     <!-- price -->
     <g transform="translate(27.582731 83.566366) rotate(-90) scale(0.12 -0.12)">
      <defs>
       <path id="TimesNewRomanPSMT-70" d="M -6 2578 
L 875 2934 
L 994 2934 
L 994 2266 
Q 1216 2644 1439 2795 
Q 1663 2947 1909 2947 
Q 2341 2947 2628 2609 
Q 2981 2197 2981 1534 
Q 2981 794 2556 309 
Q 2206 -88 1675 -88 
Q 1444 -88 1275 -22 
Q 1150 25 994 166 
L 994 -706 
Q 994 -1000 1030 -1079 
Q 1066 -1159 1155 -1206 
Q 1244 -1253 1478 -1253 
L 1478 -1369 
L -22 -1369 
L -22 -1253 
L 56 -1253 
Q 228 -1256 350 -1188 
Q 409 -1153 442 -1076 
Q 475 -1000 475 -688 
L 475 2019 
Q 475 2297 450 2372 
Q 425 2447 370 2484 
Q 316 2522 222 2522 
Q 147 2522 31 2478 
L -6 2578 
z
M 994 2081 
L 994 1013 
Q 994 666 1022 556 
Q 1066 375 1236 237 
Q 1406 100 1666 100 
Q 1978 100 2172 344 
Q 2425 663 2425 1241 
Q 2425 1897 2138 2250 
Q 1938 2494 1663 2494 
Q 1513 2494 1366 2419 
Q 1253 2363 994 2081 
z
" transform="scale(0.015625)"/>
       <path id="TimesNewRomanPSMT-72" d="M 1038 2947 
L 1038 2303 
Q 1397 2947 1775 2947 
Q 1947 2947 2059 2842 
Q 2172 2738 2172 2600 
Q 2172 2478 2090 2393 
Q 2009 2309 1897 2309 
Q 1788 2309 1652 2417 
Q 1516 2525 1450 2525 
Q 1394 2525 1328 2463 
Q 1188 2334 1038 2041 
L 1038 669 
Q 1038 431 1097 309 
Q 1138 225 1241 169 
Q 1344 113 1538 113 
L 1538 0 
L 72 0 
L 72 113 
Q 291 113 397 181 
Q 475 231 506 341 
Q 522 394 522 644 
L 522 1753 
Q 522 2253 501 2348 
Q 481 2444 426 2487 
Q 372 2531 291 2531 
Q 194 2531 72 2484 
L 41 2597 
L 906 2947 
L 1038 2947 
z
" transform="scale(0.015625)"/>
       <path id="TimesNewRomanPSMT-69" d="M 928 4444 
Q 1059 4444 1151 4351 
Q 1244 4259 1244 4128 
Q 1244 3997 1151 3903 
Q 1059 3809 928 3809 
Q 797 3809 703 3903 
Q 609 3997 609 4128 
Q 609 4259 701 4351 
Q 794 4444 928 4444 
z
M 1188 2947 
L 1188 647 
Q 1188 378 1227 289 
Q 1266 200 1342 156 
Q 1419 113 1622 113 
L 1622 0 
L 231 0 
L 231 113 
Q 441 113 512 153 
Q 584 194 626 287 
Q 669 381 669 647 
L 669 1750 
Q 669 2216 641 2353 
Q 619 2453 572 2492 
Q 525 2531 444 2531 
Q 356 2531 231 2484 
L 188 2597 
L 1050 2947 
L 1188 2947 
z
" transform="scale(0.015625)"/>
       <path id="TimesNewRomanPSMT-63" d="M 2631 1088 
Q 2516 522 2178 217 
Q 1841 -88 1431 -88 
Q 944 -88 581 321 
Q 219 731 219 1428 
Q 219 2103 620 2525 
Q 1022 2947 1584 2947 
Q 2006 2947 2278 2723 
Q 2550 2500 2550 2259 
Q 2550 2141 2473 2067 
Q 2397 1994 2259 1994 
Q 2075 1994 1981 2113 
Q 1928 2178 1911 2362 
Q 1894 2547 1784 2644 
Q 1675 2738 1481 2738 
Q 1169 2738 978 2506 
Q 725 2200 725 1697 
Q 725 1184 976 792 
Q 1228 400 1656 400 
Q 1963 400 2206 609 
Q 2378 753 2541 1131 
L 2631 1088 
z
" transform="scale(0.015625)"/>
      </defs>
      <use xlink:href="#TimesNewRomanPSMT-70"/>
      <use xlink:href="#TimesNewRomanPSMT-72" x="50"/>
      <use xlink:href="#TimesNewRomanPSMT-69" x="83.300781"/>
      <use xlink:href="#TimesNewRomanPSMT-63" x="111.083984"/>
      <use xlink:href="#TimesNewRomanPSMT-65" x="155.46875"/>
     </g>
    </g>
   </g>
   <g id="line2d_13">
    <path d="M 68.128132 121.181102 
L 68.86517 120.699032 
L 69.602209 120.44138 
L 70.291696 120.339975 
L 71.05251 120.544059 
L 71.765774 120.572527 
L 72.455261 120.415685 
L 73.239851 120.944216 
L 73.953114 120.586371 
L 74.690152 119.992646 
L 75.403415 119.669595 
L 76.116679 119.595117 
L 76.877493 119.244235 
L 78.280243 119.41071 
L 78.945956 119.189229 
L 80.443808 119.597993 
L 81.180847 118.468157 
L 81.917885 118.758385 
L 82.607373 118.465651 
L 83.368187 118.859688 
L 84.770938 118.097556 
L 86.221239 119.154373 
L 86.934503 119.813045 
L 87.671541 119.975228 
L 88.40858 118.965098 
L 89.098067 119.061492 
L 89.858881 118.984056 
L 91.261632 121.05926 
L 92.046221 120.268578 
L 92.759485 120.445015 
L 93.496523 120.270899 
L 94.233562 119.945137 
L 94.899274 119.058082 
L 95.588762 119.393087 
L 96.349576 119.331899 
L 97.086614 119.115799 
L 97.752326 119.79193 
L 98.536916 119.34145 
L 99.250179 119.394443 
L 100.724256 118.991451 
L 101.413744 119.480792 
L 102.174558 118.754298 
L 103.577309 119.184854 
L 104.338123 119.702993 
L 105.051386 119.583512 
L 105.740873 119.199992 
L 106.501687 119.574659 
L 107.238726 119.57012 
L 107.975764 119.344346 
L 108.689028 119.461095 
L 109.402291 119.76034 
L 110.876368 119.539577 
L 111.565855 119.525179 
L 112.231568 119.302527 
L 113.72942 118.225355 
L 114.466459 117.979863 
L 115.179722 118.098521 
L 115.892985 117.87817 
L 116.653799 117.353643 
L 117.367062 117.602587 
L 118.05655 117.287587 
L 118.817364 118.012316 
L 119.554402 117.457575 
L 120.291441 116.666544 
L 120.957153 116.855881 
L 121.694192 117.432085 
L 122.383679 117.071364 
L 123.857756 117.114601 
L 125.331834 116.528311 
L 126.045097 116.896632 
L 126.782135 116.552301 
L 127.495398 117.14578 
L 128.208661 117.044847 
L 128.969475 117.256962 
L 129.635188 117.096526 
L 131.037938 116.070169 
L 131.822528 115.97585 
L 132.535791 116.002922 
L 133.27283 115.338047 
L 134.009868 115.681678 
L 134.699356 115.294708 
L 135.46017 115.54515 
L 136.862921 114.668591 
L 137.64751 114.4186 
L 138.336998 114.348642 
L 139.787299 113.772047 
L 141.19005 113.72536 
L 141.97464 114.315901 
L 142.687903 114.162859 
L 143.424941 113.576774 
L 144.16198 113.488145 
L 144.851467 112.601275 
L 145.612281 112.900479 
L 147.015032 112.549699 
L 147.752071 112.914528 
L 148.465334 112.388646 
L 149.915636 110.448348 
L 150.652674 109.583641 
L 151.342162 110.957162 
L 152.102976 109.960671 
L 152.840014 111.0271 
L 153.505727 110.720502 
L 154.290316 110.513152 
L 155.003579 110.001771 
L 155.669291 108.691143 
L 156.430105 107.827298 
L 157.143368 107.638824 
L 157.832856 107.941561 
L 158.59367 107.449714 
L 159.330709 107.511251 
L 160.067747 110.502861 
L 160.78101 110.188581 
L 161.494273 108.446493 
L 162.968351 106.130747 
L 163.657838 105.640009 
L 164.32355 106.307903 
L 165.821403 104.423782 
L 166.558442 105.375928 
L 167.271705 104.265769 
L 168.745782 104.442186 
L 169.459045 104.714626 
L 170.148533 103.440231 
L 170.909347 102.72682 
L 171.646385 100.565821 
L 172.383424 102.263215 
L 173.072911 102.215213 
L 173.80995 100.338794 
L 174.475662 101.608774 
L 175.260252 102.347634 
L 175.973515 101.452383 
L 176.710553 102.275518 
L 177.447592 101.408264 
L 178.137079 102.941051 
L 178.897893 103.415665 
L 179.611157 105.040039 
L 181.085234 104.194454 
L 181.750946 106.378725 
L 182.464209 107.952427 
L 183.201248 106.374452 
L 183.938286 106.723609 
L 184.627774 107.469206 
L 185.388588 107.779748 
L 186.125626 108.867067 
L 186.791339 110.730217 
L 187.575928 110.377404 
L 188.289191 109.253298 
L 189.02623 109.138522 
L 189.763268 109.77727 
L 190.42898 109.976219 
L 191.118468 109.136858 
L 191.879282 109.86288 
L 192.616321 109.871158 
L 194.066622 112.691239 
L 194.779885 112.690562 
L 195.516924 114.588506 
L 196.94345 112.631222 
L 197.704264 113.478614 
L 198.441303 113.986709 
L 199.107015 114.286878 
L 199.844054 114.373885 
L 200.557317 113.04549 
L 201.27058 112.134609 
L 202.744657 111.515723 
L 203.434145 111.155371 
L 204.194959 111.066701 
L 204.931997 109.976733 
L 205.597709 109.703306 
L 206.382299 108.464773 
L 207.761274 107.80072 
L 208.545864 107.995663 
L 209.259127 108.47835 
L 209.996165 108.335208 
L 210.709428 107.926711 
L 211.422691 108.656348 
L 212.183505 108.602123 
L 212.896769 108.227682 
L 213.586256 107.717533 
L 214.34707 106.595215 
L 215.084109 105.7325 
L 215.821147 106.286891 
L 216.48686 105.581285 
L 217.913386 106.671151 
L 218.6742 106.321254 
L 219.387463 106.154142 
L 220.076951 105.345857 
L 220.86154 105.209432 
L 221.574803 104.603362 
L 222.311842 105.228472 
L 223.025105 104.45757 
L 223.738368 103.916078 
L 224.499182 102.777369 
L 225.164894 102.85466 
L 225.901933 102.32847 
L 226.567645 101.541485 
L 227.352234 102.591853 
L 228.065497 102.639341 
L 228.802536 102.48942 
L 229.539575 101.83956 
L 230.229062 101.541814 
L 230.989876 100.5239 
L 232.392627 99.278116 
L 233.177216 98.936045 
L 233.842929 99.137172 
L 234.556192 98.649535 
L 235.29323 97.341577 
L 236.030269 96.540297 
L 236.719757 96.838351 
L 237.480571 97.589062 
L 238.217609 97.675863 
L 238.883321 96.197178 
L 239.667911 95.195347 
L 240.381174 96.662077 
L 241.118212 97.116809 
L 241.855251 99.632059 
L 242.544739 99.853602 
L 243.281777 100.226544 
L 243.99504 98.756198 
L 244.708304 98.412402 
L 245.445342 100.951067 
L 246.182381 101.678794 
L 246.871868 102.127323 
L 247.632682 105.463386 
L 248.369721 110.088921 
L 249.035433 111.410025 
L 249.820022 110.849286 
L 251.198998 114.327979 
L 251.959812 113.211576 
L 253.362563 109.826853 
L 254.123377 109.949189 
L 254.860415 108.291519 
L 256.310717 106.602486 
L 257.02398 107.030023 
L 257.761019 106.150157 
L 258.498057 105.750431 
L 259.187545 106.755467 
L 259.853257 106.471791 
L 260.637846 105.091882 
L 261.35111 105.132263 
L 262.088148 107.571639 
L 262.801411 108.361971 
L 263.514674 106.646831 
L 264.275488 107.553194 
L 264.988751 105.53012 
L 265.678239 104.646249 
L 266.439053 105.235086 
L 267.176092 103.458121 
L 267.91313 102.882759 
L 268.578842 101.98796 
L 269.315881 102.331428 
L 270.005369 101.22854 
L 270.766183 101.927162 
L 272.168933 102.924434 
L 272.953523 104.872229 
L 273.666786 107.073259 
L 274.403825 104.747511 
L 275.117088 105.419 
L 275.830351 105.460264 
L 277.280652 103.075073 
L 277.993916 102.802078 
L 278.730954 103.172206 
L 279.467993 105.561937 
L 280.15748 104.369166 
L 280.918294 104.064088 
L 282.321045 102.812492 
L 283.105635 103.017521 
L 283.818898 102.730558 
L 284.555936 102.257998 
L 285.292975 100.882525 
L 285.958687 100.8884 
L 286.648175 100.285863 
L 287.408989 99.430912 
L 288.146027 99.517303 
L 288.811739 100.305725 
L 289.596329 98.778279 
L 290.309592 99.500768 
L 291.783669 96.828081 
L 293.233971 95.632476 
L 293.971009 96.918538 
L 294.636722 95.338119 
L 295.37376 95.369463 
L 296.087023 95.084616 
L 297.537325 93.941101 
L 298.274363 94.53803 
L 298.963851 93.832794 
L 299.724665 94.865538 
L 300.461704 94.66663 
L 301.127416 94.021576 
L 302.625268 95.294226 
L 303.290981 93.336264 
L 304.051795 93.994525 
L 304.765058 93.222514 
L 305.454545 93.203884 
L 306.215359 94.101353 
L 306.952398 93.485342 
L 307.689437 95.953699 
L 308.4027 97.258144 
L 309.115963 94.713646 
L 309.853001 94.947924 
L 310.59004 95.597045 
L 311.279528 97.663683 
L 312.016566 97.971863 
L 312.753605 95.898488 
L 313.443092 95.432685 
L 314.203906 95.354284 
L 314.917169 95.793508 
L 315.606657 94.385316 
L 316.391247 94.431819 
L 317.10451 94.305683 
L 317.841548 95.0193 
L 318.554811 94.584532 
L 320.028888 92.934894 
L 320.694601 91.983981 
L 321.431639 91.676068 
L 322.881941 90.483729 
L 323.595204 90.387479 
L 324.332243 89.469882 
L 325.069281 89.497754 
L 325.758769 88.659523 
L 327.922334 86.546074 
L 328.706923 84.291003 
L 329.372635 86.247322 
L 330.085898 87.297894 
L 330.822937 86.893896 
L 331.559975 86.762256 
L 332.249463 86.836651 
L 333.010277 85.526311 
L 333.747316 85.066177 
L 334.413028 84.891362 
L 335.197617 88.219374 
L 335.91088 87.821373 
L 336.647919 91.055538 
L 337.384958 88.08566 
L 338.05067 86.907637 
L 338.740157 86.457876 
L 339.500971 85.000942 
L 340.23801 87.720995 
L 340.903722 85.007659 
L 341.688312 84.818343 
L 342.401575 85.825679 
L 343.138613 84.973337 
L 344.56514 82.667923 
L 345.325954 81.307999 
L 346.062992 81.637746 
L 346.728704 85.772214 
L 347.489518 91.695848 
L 348.202781 87.585452 
L 348.892269 85.633406 
L 349.653083 84.526184 
L 350.390122 82.406594 
L 351.12716 79.314729 
L 352.553686 82.654243 
L 353.290725 76.693206 
L 354.027764 74.497475 
L 354.717251 75.079842 
L 356.167553 71.998698 
L 356.880816 69.388801 
L 358.331118 67.777285 
L 359.044381 66.708658 
L 359.805195 65.227693 
L 360.518458 67.995377 
L 361.207946 64.542196 
L 361.96876 66.040147 
L 362.705798 63.371383 
L 363.442837 66.918206 
L 364.108549 68.583844 
L 364.845587 67.040972 
L 365.535075 72.329062 
L 366.295889 72.423586 
L 367.009152 77.452318 
L 367.69864 73.34065 
L 367.69864 73.34065 
" clip-path="url(#pe261a48f04)" style="fill: none; stroke: #1f77b4; stroke-width: 1.5; stroke-linecap: square"/>
   </g>
   <g id="line2d_14">
    <path d="M 68.128132 121.181102 
L 68.86517 121.160505 
L 69.602209 120.302059 
L 70.291696 119.861676 
L 71.765774 119.278676 
L 73.239851 119.888853 
L 73.953114 119.276639 
L 75.403415 119.431318 
L 76.116679 119.187748 
L 76.877493 119.360831 
L 77.543205 118.588379 
L 78.280243 117.53359 
L 78.945956 115.321102 
L 79.730545 115.177466 
L 80.443808 116.962416 
L 81.180847 116.162944 
L 81.917885 115.887969 
L 82.607373 114.166692 
L 83.368187 113.984602 
L 84.08145 114.741704 
L 84.770938 112.935844 
L 85.555527 112.421058 
L 86.221239 111.75645 
L 86.934503 114.255348 
L 87.671541 113.252406 
L 88.40858 111.925148 
L 89.098067 111.334629 
L 89.858881 109.762939 
L 91.261632 114.628299 
L 92.046221 114.929041 
L 92.759485 115.734935 
L 93.496523 115.249049 
L 94.233562 114.071927 
L 94.899274 111.766632 
L 95.588762 111.092547 
L 96.349576 111.036236 
L 97.086614 109.625334 
L 97.752326 110.385099 
L 98.536916 109.426328 
L 99.250179 109.053768 
L 99.987218 109.870392 
L 100.724256 109.077969 
L 101.413744 109.405652 
L 102.174558 107.132624 
L 102.911596 104.521966 
L 103.577309 103.438277 
L 104.338123 102.606695 
L 105.051386 102.93054 
L 105.740873 103.089683 
L 106.501687 105.822909 
L 107.238726 105.598841 
L 107.975764 106.768914 
L 108.689028 106.719652 
L 109.402291 105.501021 
L 110.139329 105.78093 
L 110.876368 105.085935 
L 111.565855 104.987254 
L 112.231568 104.59253 
L 113.016157 103.80418 
L 113.72942 103.34782 
L 115.892985 101.303011 
L 116.653799 98.935531 
L 117.367062 97.838371 
L 118.05655 94.994795 
L 118.817364 93.475736 
L 119.554402 87.510162 
L 120.291441 86.763477 
L 120.957153 87.554412 
L 121.694192 91.436487 
L 122.383679 92.286709 
L 123.144493 91.08805 
L 123.857756 92.222097 
L 124.547244 89.907873 
L 125.331834 85.00774 
L 126.045097 84.538614 
L 126.782135 85.414055 
L 127.495398 87.77245 
L 128.969475 95.303369 
L 129.635188 96.222041 
L 130.372226 96.089213 
L 131.822528 92.866342 
L 132.535791 92.832744 
L 133.27283 92.057785 
L 134.009868 92.997368 
L 134.699356 93.222533 
L 135.46017 94.655756 
L 136.173433 95.314881 
L 136.862921 93.851976 
L 137.64751 91.334047 
L 138.336998 92.007505 
L 139.026485 91.782262 
L 139.787299 90.398615 
L 140.524338 90.670536 
L 141.19005 90.509983 
L 141.97464 93.264355 
L 142.687903 92.382492 
L 143.424941 92.109632 
L 144.16198 93.142179 
L 144.851467 92.572336 
L 145.612281 92.446478 
L 146.34932 89.932465 
L 147.015032 88.25301 
L 147.752071 89.447441 
L 148.465334 89.518397 
L 149.178597 88.475904 
L 149.915636 86.352541 
L 150.652674 85.789121 
L 151.342162 91.434373 
L 152.102976 90.431352 
L 152.840014 96.915157 
L 153.505727 98.136059 
L 154.290316 97.447094 
L 155.003579 100.005592 
L 155.669291 96.917115 
L 156.430105 95.602622 
L 157.143368 96.041909 
L 157.832856 100.7652 
L 158.59367 103.864798 
L 159.330709 103.135421 
L 160.067747 110.929802 
L 160.78101 109.789646 
L 162.231312 105.900522 
L 163.657838 106.731791 
L 164.32355 106.52417 
L 165.10814 103.533982 
L 165.821403 100.329202 
L 166.558442 100.590394 
L 167.271705 97.341912 
L 167.984968 98.271392 
L 168.745782 98.008557 
L 169.459045 99.122789 
L 170.148533 98.497497 
L 170.909347 95.705846 
L 171.646385 91.420119 
L 172.383424 91.265597 
L 173.072911 90.768433 
L 173.80995 90.63819 
L 174.475662 94.400987 
L 175.260252 95.940409 
L 175.973515 94.858443 
L 176.710553 96.693908 
L 177.447592 96.578154 
L 178.137079 99.517356 
L 178.897893 101.724676 
L 179.611157 104.190993 
L 180.300644 103.608541 
L 181.085234 100.066288 
L 182.464209 105.226203 
L 183.201248 104.085029 
L 183.938286 103.862918 
L 184.627774 104.462601 
L 185.388588 106.124669 
L 186.125626 106.398547 
L 186.791339 110.061802 
L 187.575928 108.850533 
L 188.289191 106.691692 
L 189.02623 104.892411 
L 189.763268 104.082131 
L 190.42898 103.689052 
L 191.118468 102.227478 
L 191.879282 102.116971 
L 192.616321 102.630582 
L 193.282033 104.708206 
L 194.066622 106.676264 
L 194.779885 106.342393 
L 195.516924 108.909663 
L 196.253963 107.573947 
L 196.94345 106.070473 
L 197.704264 106.874644 
L 198.441303 107.004025 
L 199.844054 108.427145 
L 201.27058 105.046228 
L 202.744657 102.133731 
L 203.434145 100.340715 
L 204.194959 100.174994 
L 204.931997 97.70946 
L 205.597709 97.37974 
L 206.382299 95.073035 
L 207.095562 93.944235 
L 207.761274 92.335502 
L 208.545864 91.996384 
L 209.259127 95.188868 
L 209.996165 95.974869 
L 210.709428 95.901485 
L 211.422691 96.611047 
L 212.183505 95.310496 
L 212.896769 93.399141 
L 213.586256 92.606561 
L 214.34707 89.185701 
L 215.084109 87.288522 
L 215.821147 87.280064 
L 216.48686 83.646179 
L 217.223898 86.778279 
L 217.913386 88.086114 
L 219.387463 85.487674 
L 220.076951 82.558888 
L 220.86154 82.271773 
L 221.574803 77.957382 
L 222.311842 81.396019 
L 223.025105 77.43453 
L 223.738368 74.420141 
L 224.499182 68.367087 
L 225.164894 68.497486 
L 225.901933 68.051386 
L 226.567645 63.839591 
L 227.352234 70.933965 
L 228.065497 71.204711 
L 228.802536 70.554905 
L 229.539575 69.20094 
L 230.229062 68.806452 
L 230.989876 65.965303 
L 231.703139 61.294251 
L 232.392627 58.273676 
L 233.177216 59.148568 
L 233.842929 59.613386 
L 234.556192 57.000614 
L 236.030269 50.28577 
L 237.480571 42.612704 
L 238.217609 44.632451 
L 239.667911 25.004116 
L 240.381174 32.489689 
L 241.118212 32.211424 
L 241.855251 44.495786 
L 242.544739 38.314368 
L 243.281777 43.25366 
L 243.99504 36.44507 
L 244.708304 34.995792 
L 245.445342 44.609426 
L 246.182381 48.154341 
L 246.871868 54.858612 
L 247.632682 68.120149 
L 248.369721 85.068437 
L 249.035433 88.479115 
L 249.820022 85.340906 
L 251.198998 90.646022 
L 251.959812 85.111825 
L 252.673075 77.846796 
L 253.362563 69.201175 
L 254.123377 70.127366 
L 254.860415 63.648182 
L 255.597454 64.005626 
L 256.310717 58.164265 
L 257.02398 58.147505 
L 258.498057 52.257195 
L 259.187545 56.633536 
L 259.853257 56.45035 
L 260.637846 50.623087 
L 261.35111 49.863479 
L 262.088148 57.196331 
L 262.801411 57.855692 
L 263.514674 52.10518 
L 264.275488 53.778369 
L 264.988751 45.517133 
L 265.678239 43.149967 
L 266.439053 45.491758 
L 267.176092 39.57623 
L 267.91313 42.106377 
L 268.578842 42.992312 
L 269.315881 38.050201 
L 270.005369 35.453327 
L 270.766183 38.277167 
L 271.479446 39.980822 
L 272.168933 40.645587 
L 272.953523 48.836179 
L 273.666786 60.796617 
L 274.403825 51.780003 
L 275.117088 57.045882 
L 275.830351 57.980844 
L 276.591165 49.913524 
L 277.280652 45.210596 
L 277.993916 48.186373 
L 278.730954 49.394901 
L 279.467993 58.771153 
L 280.15748 56.338747 
L 280.918294 55.15348 
L 281.655333 55.557601 
L 282.321045 51.224414 
L 283.105635 51.798486 
L 283.818898 50.882476 
L 284.555936 47.109577 
L 285.292975 46.02769 
L 285.958687 47.155001 
L 286.648175 48.698809 
L 287.408989 48.342618 
L 288.146027 50.737118 
L 288.811739 56.105672 
L 289.596329 55.53998 
L 290.309592 56.951038 
L 291.046631 52.414693 
L 291.783669 48.736715 
L 293.233971 51.221516 
L 293.971009 56.403516 
L 295.37376 51.851194 
L 296.087023 51.801853 
L 296.800286 49.263562 
L 297.537325 47.455587 
L 298.274363 46.281049 
L 298.963851 44.549826 
L 299.724665 51.015304 
L 300.461704 50.173697 
L 301.127416 51.063157 
L 301.912005 54.854304 
L 302.625268 54.439453 
L 303.290981 52.194071 
L 304.051795 53.423901 
L 304.765058 47.690306 
L 305.454545 51.102081 
L 306.215359 53.605443 
L 306.952398 59.132983 
L 307.689437 65.629162 
L 308.4027 67.718769 
L 309.115963 63.349398 
L 309.853001 65.976346 
L 310.59004 67.555084 
L 311.279528 71.609459 
L 312.016566 71.769541 
L 312.753605 64.213717 
L 313.443092 63.948454 
L 314.203906 66.512277 
L 314.917169 64.425176 
L 315.606657 61.341947 
L 316.391247 59.759371 
L 317.10451 58.993263 
L 317.841548 58.865683 
L 318.554811 62.175174 
L 319.268074 62.218797 
L 320.028888 58.541524 
L 320.694601 56.415734 
L 322.097351 53.158638 
L 322.881941 51.015304 
L 323.595204 50.58659 
L 324.332243 46.245179 
L 325.069281 44.56408 
L 325.758769 45.032109 
L 326.519583 42.106377 
L 327.232846 41.97214 
L 327.922334 39.022599 
L 328.706923 31.493638 
L 329.372635 36.145268 
L 330.085898 38.049809 
L 330.822937 38.554726 
L 331.559975 41.97864 
L 332.249463 45.987982 
L 333.010277 44.583033 
L 333.747316 47.049742 
L 334.413028 47.68036 
L 335.197617 54.884378 
L 335.91088 51.846182 
L 336.647919 54.112788 
L 337.384958 47.522235 
L 338.05067 47.442038 
L 338.740157 46.880026 
L 339.500971 45.226886 
L 340.23801 51.58922 
L 340.903722 47.136205 
L 341.688312 48.533949 
L 342.401575 52.659359 
L 343.138613 51.354422 
L 343.875652 48.144552 
L 344.56514 48.296175 
L 345.325954 42.452465 
L 346.062992 46.549837 
L 346.728704 51.000424 
L 347.489518 63.291599 
L 348.202781 57.311224 
L 348.892269 56.886974 
L 349.653083 51.816342 
L 350.390122 45.251635 
L 351.12716 43.483211 
L 351.840423 45.01065 
L 352.553686 43.329785 
L 353.290725 35.371876 
L 354.027764 28.621163 
L 354.717251 25.62142 
L 355.382963 24.862282 
L 356.167553 26.650599 
L 357.617855 21.968504 
L 358.331118 22.091542 
L 359.044381 29.675247 
L 359.805195 27.257957 
L 360.518458 31.610332 
L 361.207946 30.697377 
L 361.96876 34.796237 
L 362.705798 33.261984 
L 363.442837 35.124077 
L 364.108549 38.015741 
L 364.845587 40.327928 
L 365.535075 45.465365 
L 366.295889 45.349768 
L 367.009152 51.38011 
L 367.69864 51.919409 
L 367.69864 51.919409 
" clip-path="url(#pe261a48f04)" style="fill: none; stroke: #ff7f0e; stroke-width: 1.5; stroke-linecap: square"/>
   </g>
   <g id="patch_3">
    <path d="M 53.149606 126.141732 
L 53.149606 17.007874 
" style="fill: none; stroke: #000000; stroke-width: 0.8; stroke-linejoin: miter; stroke-linecap: square"/>
   </g>
   <g id="patch_4">
    <path d="M 382.677165 126.141732 
L 382.677165 17.007874 
" style="fill: none; stroke: #000000; stroke-width: 0.8; stroke-linejoin: miter; stroke-linecap: square"/>
   </g>
   <g id="patch_5">
    <path d="M 53.149606 126.141732 
L 382.677165 126.141732 
" style="fill: none; stroke: #000000; stroke-width: 0.8; stroke-linejoin: miter; stroke-linecap: square"/>
   </g>
   <g id="patch_6">
    <path d="M 53.149606 17.007874 
L 382.677165 17.007874 
" style="fill: none; stroke: #000000; stroke-width: 0.8; stroke-linejoin: miter; stroke-linecap: square"/>
   </g>
   <g id="text_15">
    <!-- Index values over time -->
    <g transform="translate(152.134636 11.007874) scale(0.144 -0.144)">
     <defs>
      <path id="TimesNewRomanPSMT-49" d="M 1975 116 
L 1975 0 
L 159 0 
L 159 116 
L 309 116 
Q 572 116 691 269 
Q 766 369 766 750 
L 766 3488 
Q 766 3809 725 3913 
Q 694 3991 597 4047 
Q 459 4122 309 4122 
L 159 4122 
L 159 4238 
L 1975 4238 
L 1975 4122 
L 1822 4122 
Q 1563 4122 1444 3969 
Q 1366 3869 1366 3488 
L 1366 750 
Q 1366 428 1406 325 
Q 1438 247 1538 191 
Q 1672 116 1822 116 
L 1975 116 
z
" transform="scale(0.015625)"/>
      <path id="TimesNewRomanPSMT-6e" d="M 1034 2341 
Q 1538 2947 1994 2947 
Q 2228 2947 2397 2830 
Q 2566 2713 2666 2444 
Q 2734 2256 2734 1869 
L 2734 647 
Q 2734 375 2778 278 
Q 2813 200 2889 156 
Q 2966 113 3172 113 
L 3172 0 
L 1756 0 
L 1756 113 
L 1816 113 
Q 2016 113 2095 173 
Q 2175 234 2206 353 
Q 2219 400 2219 647 
L 2219 1819 
Q 2219 2209 2117 2386 
Q 2016 2563 1775 2563 
Q 1403 2563 1034 2156 
L 1034 647 
Q 1034 356 1069 288 
Q 1113 197 1189 155 
Q 1266 113 1500 113 
L 1500 0 
L 84 0 
L 84 113 
L 147 113 
Q 366 113 442 223 
Q 519 334 519 647 
L 519 1709 
Q 519 2225 495 2337 
Q 472 2450 423 2490 
Q 375 2531 294 2531 
Q 206 2531 84 2484 
L 38 2597 
L 900 2947 
L 1034 2947 
L 1034 2341 
z
" transform="scale(0.015625)"/>
      <path id="TimesNewRomanPSMT-78" d="M 84 2863 
L 1431 2863 
L 1431 2747 
Q 1303 2747 1251 2703 
Q 1200 2659 1200 2588 
Q 1200 2513 1309 2356 
Q 1344 2306 1413 2200 
L 1616 1875 
L 1850 2200 
Q 2075 2509 2075 2591 
Q 2075 2656 2022 2701 
Q 1969 2747 1850 2747 
L 1850 2863 
L 2819 2863 
L 2819 2747 
Q 2666 2738 2553 2663 
Q 2400 2556 2134 2200 
L 1744 1678 
L 2456 653 
Q 2719 275 2831 198 
Q 2944 122 3122 113 
L 3122 0 
L 1772 0 
L 1772 113 
Q 1913 113 1991 175 
Q 2050 219 2050 291 
Q 2050 363 1850 653 
L 1431 1266 
L 972 653 
Q 759 369 759 316 
Q 759 241 829 180 
Q 900 119 1041 113 
L 1041 0 
L 106 0 
L 106 113 
Q 219 128 303 191 
Q 422 281 703 653 
L 1303 1450 
L 759 2238 
Q 528 2575 401 2661 
Q 275 2747 84 2747 
L 84 2863 
z
" transform="scale(0.015625)"/>
      <path id="TimesNewRomanPSMT-20" transform="scale(0.015625)"/>
      <path id="TimesNewRomanPSMT-76" d="M 53 2863 
L 1400 2863 
L 1400 2747 
L 1313 2747 
Q 1191 2747 1127 2687 
Q 1063 2628 1063 2528 
Q 1063 2419 1128 2269 
L 1794 688 
L 2463 2328 
Q 2534 2503 2534 2594 
Q 2534 2638 2509 2666 
Q 2475 2713 2422 2730 
Q 2369 2747 2206 2747 
L 2206 2863 
L 3141 2863 
L 3141 2747 
Q 2978 2734 2916 2681 
Q 2806 2588 2719 2369 
L 1703 -88 
L 1575 -88 
L 553 2328 
Q 484 2497 421 2570 
Q 359 2644 263 2694 
Q 209 2722 53 2747 
L 53 2863 
z
" transform="scale(0.015625)"/>
      <path id="TimesNewRomanPSMT-6c" d="M 1184 4444 
L 1184 647 
Q 1184 378 1223 290 
Q 1263 203 1344 158 
Q 1425 113 1647 113 
L 1647 0 
L 244 0 
L 244 113 
Q 441 113 512 153 
Q 584 194 625 287 
Q 666 381 666 647 
L 666 3247 
Q 666 3731 644 3842 
Q 622 3953 573 3993 
Q 525 4034 450 4034 
Q 369 4034 244 3984 
L 191 4094 
L 1044 4444 
L 1184 4444 
z
" transform="scale(0.015625)"/>
      <path id="TimesNewRomanPSMT-75" d="M 2709 2863 
L 2709 1128 
Q 2709 631 2732 520 
Q 2756 409 2807 365 
Q 2859 322 2928 322 
Q 3025 322 3147 375 
L 3191 266 
L 2334 -88 
L 2194 -88 
L 2194 519 
Q 1825 119 1631 15 
Q 1438 -88 1222 -88 
Q 981 -88 804 51 
Q 628 191 559 409 
Q 491 628 491 1028 
L 491 2306 
Q 491 2509 447 2587 
Q 403 2666 317 2708 
Q 231 2750 6 2747 
L 6 2863 
L 1009 2863 
L 1009 947 
Q 1009 547 1148 422 
Q 1288 297 1484 297 
Q 1619 297 1789 381 
Q 1959 466 2194 703 
L 2194 2325 
Q 2194 2569 2105 2655 
Q 2016 2741 1734 2747 
L 1734 2863 
L 2709 2863 
z
" transform="scale(0.015625)"/>
      <path id="TimesNewRomanPSMT-73" d="M 2050 2947 
L 2050 1972 
L 1947 1972 
Q 1828 2431 1642 2597 
Q 1456 2763 1169 2763 
Q 950 2763 815 2647 
Q 681 2531 681 2391 
Q 681 2216 781 2091 
Q 878 1963 1175 1819 
L 1631 1597 
Q 2266 1288 2266 781 
Q 2266 391 1970 151 
Q 1675 -88 1309 -88 
Q 1047 -88 709 6 
Q 606 38 541 38 
Q 469 38 428 -44 
L 325 -44 
L 325 978 
L 428 978 
Q 516 541 762 319 
Q 1009 97 1316 97 
Q 1531 97 1667 223 
Q 1803 350 1803 528 
Q 1803 744 1651 891 
Q 1500 1038 1047 1263 
Q 594 1488 453 1669 
Q 313 1847 313 2119 
Q 313 2472 555 2709 
Q 797 2947 1181 2947 
Q 1350 2947 1591 2875 
Q 1750 2828 1803 2828 
Q 1853 2828 1881 2850 
Q 1909 2872 1947 2947 
L 2050 2947 
z
" transform="scale(0.015625)"/>
      <path id="TimesNewRomanPSMT-6f" d="M 1600 2947 
Q 2250 2947 2644 2453 
Q 2978 2031 2978 1484 
Q 2978 1100 2793 706 
Q 2609 313 2286 112 
Q 1963 -88 1566 -88 
Q 919 -88 538 428 
Q 216 863 216 1403 
Q 216 1797 411 2186 
Q 606 2575 925 2761 
Q 1244 2947 1600 2947 
z
M 1503 2744 
Q 1338 2744 1170 2645 
Q 1003 2547 900 2300 
Q 797 2053 797 1666 
Q 797 1041 1045 587 
Q 1294 134 1700 134 
Q 2003 134 2200 384 
Q 2397 634 2397 1244 
Q 2397 2006 2069 2444 
Q 1847 2744 1503 2744 
z
" transform="scale(0.015625)"/>
      <path id="TimesNewRomanPSMT-6d" d="M 1050 2338 
Q 1363 2650 1419 2697 
Q 1559 2816 1721 2881 
Q 1884 2947 2044 2947 
Q 2313 2947 2506 2790 
Q 2700 2634 2766 2338 
Q 3088 2713 3309 2830 
Q 3531 2947 3766 2947 
Q 3994 2947 4170 2830 
Q 4347 2713 4450 2447 
Q 4519 2266 4519 1878 
L 4519 647 
Q 4519 378 4559 278 
Q 4591 209 4675 161 
Q 4759 113 4950 113 
L 4950 0 
L 3538 0 
L 3538 113 
L 3597 113 
Q 3781 113 3884 184 
Q 3956 234 3988 344 
Q 4000 397 4000 647 
L 4000 1878 
Q 4000 2228 3916 2372 
Q 3794 2572 3525 2572 
Q 3359 2572 3192 2489 
Q 3025 2406 2788 2181 
L 2781 2147 
L 2788 2013 
L 2788 647 
Q 2788 353 2820 281 
Q 2853 209 2943 161 
Q 3034 113 3253 113 
L 3253 0 
L 1806 0 
L 1806 113 
Q 2044 113 2133 169 
Q 2222 225 2256 338 
Q 2272 391 2272 647 
L 2272 1878 
Q 2272 2228 2169 2381 
Q 2031 2581 1784 2581 
Q 1616 2581 1450 2491 
Q 1191 2353 1050 2181 
L 1050 647 
Q 1050 366 1089 281 
Q 1128 197 1204 155 
Q 1281 113 1516 113 
L 1516 0 
L 100 0 
L 100 113 
Q 297 113 375 155 
Q 453 197 493 289 
Q 534 381 534 647 
L 534 1741 
Q 534 2213 506 2350 
Q 484 2453 437 2492 
Q 391 2531 309 2531 
Q 222 2531 100 2484 
L 53 2597 
L 916 2947 
L 1050 2947 
L 1050 2338 
z
" transform="scale(0.015625)"/>
     </defs>
     <use xlink:href="#TimesNewRomanPSMT-49"/>
     <use xlink:href="#TimesNewRomanPSMT-6e" x="33.300781"/>
     <use xlink:href="#TimesNewRomanPSMT-64" x="83.300781"/>
     <use xlink:href="#TimesNewRomanPSMT-65" x="133.300781"/>
     <use xlink:href="#TimesNewRomanPSMT-78" x="177.685547"/>
     <use xlink:href="#TimesNewRomanPSMT-20" x="227.685547"/>
     <use xlink:href="#TimesNewRomanPSMT-76" x="252.685547"/>
     <use xlink:href="#TimesNewRomanPSMT-61" x="302.685547"/>
     <use xlink:href="#TimesNewRomanPSMT-6c" x="347.070312"/>
     <use xlink:href="#TimesNewRomanPSMT-75" x="374.853516"/>
     <use xlink:href="#TimesNewRomanPSMT-65" x="424.853516"/>
     <use xlink:href="#TimesNewRomanPSMT-73" x="469.238281"/>
     <use xlink:href="#TimesNewRomanPSMT-20" x="508.154297"/>
     <use xlink:href="#TimesNewRomanPSMT-6f" x="533.154297"/>
     <use xlink:href="#TimesNewRomanPSMT-76" x="583.154297"/>
     <use xlink:href="#TimesNewRomanPSMT-65" x="633.154297"/>
     <use xlink:href="#TimesNewRomanPSMT-72" x="677.539062"/>
     <use xlink:href="#TimesNewRomanPSMT-20" x="710.839844"/>
     <use xlink:href="#TimesNewRomanPSMT-74" x="735.839844"/>
     <use xlink:href="#TimesNewRomanPSMT-69" x="763.623047"/>
     <use xlink:href="#TimesNewRomanPSMT-6d" x="791.40625"/>
     <use xlink:href="#TimesNewRomanPSMT-65" x="869.189453"/>
    </g>
   </g>
   <g id="legend_1">
    <g id="patch_7">
     <path d="M 61.549606 60.586624 
L 164.989606 60.586624 
Q 167.389606 60.586624 167.389606 58.186624 
L 167.389606 25.407874 
Q 167.389606 23.007874 164.989606 23.007874 
L 61.549606 23.007874 
Q 59.149606 23.007874 59.149606 25.407874 
L 59.149606 58.186624 
Q 59.149606 60.586624 61.549606 60.586624 
z
" style="fill: #ffffff; opacity: 0.8; stroke: #cccccc; stroke-linejoin: miter"/>
    </g>
    <g id="line2d_15">
     <path d="M 63.949606 32.007874 
L 75.949606 32.007874 
L 87.949606 32.007874 
" style="fill: none; stroke: #1f77b4; stroke-width: 1.5; stroke-linecap: square"/>
    </g>
    <g id="text_16">
     <!-- MSCI_World -->
     <g transform="translate(97.549606 36.207874) scale(0.12 -0.12)">
      <defs>
       <path id="TimesNewRomanPSMT-4d" d="M 2619 0 
L 981 3566 
L 981 734 
Q 981 344 1066 247 
Q 1181 116 1431 116 
L 1581 116 
L 1581 0 
L 106 0 
L 106 116 
L 256 116 
Q 525 116 638 278 
Q 706 378 706 734 
L 706 3503 
Q 706 3784 644 3909 
Q 600 4000 483 4061 
Q 366 4122 106 4122 
L 106 4238 
L 1306 4238 
L 2844 922 
L 4356 4238 
L 5556 4238 
L 5556 4122 
L 5409 4122 
Q 5138 4122 5025 3959 
Q 4956 3859 4956 3503 
L 4956 734 
Q 4956 344 5044 247 
Q 5159 116 5409 116 
L 5556 116 
L 5556 0 
L 3756 0 
L 3756 116 
L 3906 116 
Q 4178 116 4288 278 
Q 4356 378 4356 734 
L 4356 3566 
L 2722 0 
L 2619 0 
z
" transform="scale(0.015625)"/>
       <path id="TimesNewRomanPSMT-53" d="M 2934 4334 
L 2934 2869 
L 2819 2869 
Q 2763 3291 2617 3541 
Q 2472 3791 2203 3937 
Q 1934 4084 1647 4084 
Q 1322 4084 1109 3886 
Q 897 3688 897 3434 
Q 897 3241 1031 3081 
Q 1225 2847 1953 2456 
Q 2547 2138 2764 1967 
Q 2981 1797 3098 1565 
Q 3216 1334 3216 1081 
Q 3216 600 2842 251 
Q 2469 -97 1881 -97 
Q 1697 -97 1534 -69 
Q 1438 -53 1133 45 
Q 828 144 747 144 
Q 669 144 623 97 
Q 578 50 556 -97 
L 441 -97 
L 441 1356 
L 556 1356 
Q 638 900 775 673 
Q 913 447 1195 297 
Q 1478 147 1816 147 
Q 2206 147 2432 353 
Q 2659 559 2659 841 
Q 2659 997 2573 1156 
Q 2488 1316 2306 1453 
Q 2184 1547 1640 1851 
Q 1097 2156 867 2337 
Q 638 2519 519 2737 
Q 400 2956 400 3219 
Q 400 3675 750 4004 
Q 1100 4334 1641 4334 
Q 1978 4334 2356 4169 
Q 2531 4091 2603 4091 
Q 2684 4091 2736 4139 
Q 2788 4188 2819 4334 
L 2934 4334 
z
" transform="scale(0.015625)"/>
       <path id="TimesNewRomanPSMT-43" d="M 3853 4334 
L 3950 2894 
L 3853 2894 
Q 3659 3541 3300 3825 
Q 2941 4109 2438 4109 
Q 2016 4109 1675 3895 
Q 1334 3681 1139 3212 
Q 944 2744 944 2047 
Q 944 1472 1128 1050 
Q 1313 628 1683 403 
Q 2053 178 2528 178 
Q 2941 178 3256 354 
Q 3572 531 3950 1056 
L 4047 994 
Q 3728 428 3303 165 
Q 2878 -97 2294 -97 
Q 1241 -97 663 684 
Q 231 1266 231 2053 
Q 231 2688 515 3219 
Q 800 3750 1298 4042 
Q 1797 4334 2388 4334 
Q 2847 4334 3294 4109 
Q 3425 4041 3481 4041 
Q 3566 4041 3628 4100 
Q 3709 4184 3744 4334 
L 3853 4334 
z
" transform="scale(0.015625)"/>
       <path id="TimesNewRomanPSMT-5f" d="M 3256 -1381 
L -53 -1381 
L -53 -1119 
L 3256 -1119 
L 3256 -1381 
z
" transform="scale(0.015625)"/>
       <path id="TimesNewRomanPSMT-57" d="M 5991 4238 
L 5991 4122 
Q 5825 4122 5722 4062 
Q 5619 4003 5525 3841 
Q 5463 3731 5328 3319 
L 4147 -97 
L 4022 -97 
L 3056 2613 
L 2097 -97 
L 1984 -97 
L 725 3422 
Q 584 3816 547 3888 
Q 484 4006 376 4064 
Q 269 4122 84 4122 
L 84 4238 
L 1653 4238 
L 1653 4122 
L 1578 4122 
Q 1413 4122 1325 4047 
Q 1238 3972 1238 3866 
Q 1238 3756 1375 3363 
L 2209 984 
L 2913 3006 
L 2788 3363 
L 2688 3647 
Q 2622 3803 2541 3922 
Q 2500 3981 2441 4022 
Q 2363 4078 2284 4103 
Q 2225 4122 2097 4122 
L 2097 4238 
L 3747 4238 
L 3747 4122 
L 3634 4122 
Q 3459 4122 3378 4047 
Q 3297 3972 3297 3844 
Q 3297 3684 3438 3288 
L 4250 984 
L 5056 3319 
Q 5194 3706 5194 3856 
Q 5194 3928 5148 3990 
Q 5103 4053 5034 4078 
Q 4916 4122 4725 4122 
L 4725 4238 
L 5991 4238 
z
" transform="scale(0.015625)"/>
      </defs>
      <use xlink:href="#TimesNewRomanPSMT-4d"/>
      <use xlink:href="#TimesNewRomanPSMT-53" x="88.916016"/>
      <use xlink:href="#TimesNewRomanPSMT-43" x="144.53125"/>
      <use xlink:href="#TimesNewRomanPSMT-49" x="211.230469"/>
      <use xlink:href="#TimesNewRomanPSMT-5f" x="244.53125"/>
      <use xlink:href="#TimesNewRomanPSMT-57" x="294.53125"/>
      <use xlink:href="#TimesNewRomanPSMT-6f" x="380.916016"/>
      <use xlink:href="#TimesNewRomanPSMT-72" x="430.916016"/>
      <use xlink:href="#TimesNewRomanPSMT-6c" x="464.216797"/>
      <use xlink:href="#TimesNewRomanPSMT-64" x="492"/>
     </g>
    </g>
    <g id="line2d_16">
     <path d="M 63.949606 48.997249 
L 75.949606 48.997249 
L 87.949606 48.997249 
" style="fill: none; stroke: #ff7f0e; stroke-width: 1.5; stroke-linecap: square"/>
    </g>
    <g id="text_17">
     <!-- MSCI_EM -->
     <g transform="translate(97.549606 53.197249) scale(0.12 -0.12)">
      <defs>
       <path id="TimesNewRomanPSMT-45" d="M 1338 4006 
L 1338 2331 
L 2269 2331 
Q 2631 2331 2753 2441 
Q 2916 2584 2934 2947 
L 3050 2947 
L 3050 1472 
L 2934 1472 
Q 2891 1781 2847 1869 
Q 2791 1978 2662 2040 
Q 2534 2103 2269 2103 
L 1338 2103 
L 1338 706 
Q 1338 425 1363 364 
Q 1388 303 1450 267 
Q 1513 231 1688 231 
L 2406 231 
Q 2766 231 2928 281 
Q 3091 331 3241 478 
Q 3434 672 3638 1063 
L 3763 1063 
L 3397 0 
L 131 0 
L 131 116 
L 281 116 
Q 431 116 566 188 
Q 666 238 702 338 
Q 738 438 738 747 
L 738 3500 
Q 738 3903 656 3997 
Q 544 4122 281 4122 
L 131 4122 
L 131 4238 
L 3397 4238 
L 3444 3309 
L 3322 3309 
Q 3256 3644 3176 3769 
Q 3097 3894 2941 3959 
Q 2816 4006 2500 4006 
L 1338 4006 
z
" transform="scale(0.015625)"/>
      </defs>
      <use xlink:href="#TimesNewRomanPSMT-4d"/>
      <use xlink:href="#TimesNewRomanPSMT-53" x="88.916016"/>
      <use xlink:href="#TimesNewRomanPSMT-43" x="144.53125"/>
      <use xlink:href="#TimesNewRomanPSMT-49" x="211.230469"/>
      <use xlink:href="#TimesNewRomanPSMT-5f" x="244.53125"/>
      <use xlink:href="#TimesNewRomanPSMT-45" x="294.53125"/>
      <use xlink:href="#TimesNewRomanPSMT-4d" x="355.615234"/>
     </g>
    </g>
   </g>
  </g>
 </g>
 <defs>
  <clipPath id="pe261a48f04">
   <rect x="53.149606" y="17.007874" width="329.527559" height="109.133858"/>
  </clipPath>
 </defs>
</svg>
