<?xml version="1.0" encoding="utf-8" standalone="no"?>
<!DOCTYPE svg PUBLIC "-//W3C//DTD SVG 1.1//EN"
  "http://www.w3.org/Graphics/SVG/1.1/DTD/svg11.dtd">
<svg xmlns:xlink="http://www.w3.org/1999/xlink" width="460.8pt" height="345.6pt" viewBox="0 0 460.8 345.6" xmlns="http://www.w3.org/2000/svg" version="1.1">
 <metadata>
  <rdf:RDF xmlns:dc="http://purl.org/dc/elements/1.1/" xmlns:cc="http://creativecommons.org/ns#" xmlns:rdf="http://www.w3.org/1999/02/22-rdf-syntax-ns#">
   <cc:Work>
    <dc:type rdf:resource="http://purl.org/dc/dcmitype/StillImage"/>
    <dc:date>2023-02-21T13:57:25.276678</dc:date>
    <dc:format>image/svg+xml</dc:format>
    <dc:creator>
     <cc:Agent>
      <dc:title>Matplotlib v3.7.0, https://matplotlib.org/</dc:title>
     </cc:Agent>
    </dc:creator>
   </cc:Work>
  </rdf:RDF>
 </metadata>
 <defs>
  <style type="text/css">*{stroke-linejoin: round; stroke-linecap: butt}</style>
 </defs>
 <g id="figure_1">
  <g id="patch_1">
   <path d="M 0 345.6 
L 460.8 345.6 
L 460.8 0 
L 0 0 
z
" style="fill: #ffffff"/>
  </g>
  <g id="axes_1">
   <g id="patch_2">
    <path d="M 57.6 307.584 
L 414.72 307.584 
L 414.72 41.472 
L 57.6 41.472 
z
" style="fill: #ffffff"/>
   </g>
   <g id="matplotlib.axis_1">
    <g id="xtick_1">
     <g id="line2d_1">
      <defs>
       <path id="m5d854a12db" d="M 0 0 
L 0 3.5 
" style="stroke: #000000; stroke-width: 0.8"/>
      </defs>
      <g>
       <use xlink:href="#m5d854a12db" x="73.111273" y="307.584" style="stroke: #000000; stroke-width: 0.8"/>
      </g>
     </g>
     <g id="text_1">
      <!-- 1988 -->
      <g transform="translate(60.386273 322.182437) scale(0.1 -0.1)">
       <defs>
        <path id="DejaVuSans-31" d="M 794 531 
L 1825 531 
L 1825 4091 
L 703 3866 
L 703 4441 
L 1819 4666 
L 2450 4666 
L 2450 531 
L 3481 531 
L 3481 0 
L 794 0 
L 794 531 
z
" transform="scale(0.015625)"/>
        <path id="DejaVuSans-39" d="M 703 97 
L 703 672 
Q 941 559 1184 500 
Q 1428 441 1663 441 
Q 2288 441 2617 861 
Q 2947 1281 2994 2138 
Q 2813 1869 2534 1725 
Q 2256 1581 1919 1581 
Q 1219 1581 811 2004 
Q 403 2428 403 3163 
Q 403 3881 828 4315 
Q 1253 4750 1959 4750 
Q 2769 4750 3195 4129 
Q 3622 3509 3622 2328 
Q 3622 1225 3098 567 
Q 2575 -91 1691 -91 
Q 1453 -91 1209 -44 
Q 966 3 703 97 
z
M 1959 2075 
Q 2384 2075 2632 2365 
Q 2881 2656 2881 3163 
Q 2881 3666 2632 3958 
Q 2384 4250 1959 4250 
Q 1534 4250 1286 3958 
Q 1038 3666 1038 3163 
Q 1038 2656 1286 2365 
Q 1534 2075 1959 2075 
z
" transform="scale(0.015625)"/>
        <path id="DejaVuSans-38" d="M 2034 2216 
Q 1584 2216 1326 1975 
Q 1069 1734 1069 1313 
Q 1069 891 1326 650 
Q 1584 409 2034 409 
Q 2484 409 2743 651 
Q 3003 894 3003 1313 
Q 3003 1734 2745 1975 
Q 2488 2216 2034 2216 
z
M 1403 2484 
Q 997 2584 770 2862 
Q 544 3141 544 3541 
Q 544 4100 942 4425 
Q 1341 4750 2034 4750 
Q 2731 4750 3128 4425 
Q 3525 4100 3525 3541 
Q 3525 3141 3298 2862 
Q 3072 2584 2669 2484 
Q 3125 2378 3379 2068 
Q 3634 1759 3634 1313 
Q 3634 634 3220 271 
Q 2806 -91 2034 -91 
Q 1263 -91 848 271 
Q 434 634 434 1313 
Q 434 1759 690 2068 
Q 947 2378 1403 2484 
z
M 1172 3481 
Q 1172 3119 1398 2916 
Q 1625 2713 2034 2713 
Q 2441 2713 2670 2916 
Q 2900 3119 2900 3481 
Q 2900 3844 2670 4047 
Q 2441 4250 2034 4250 
Q 1625 4250 1398 4047 
Q 1172 3844 1172 3481 
z
" transform="scale(0.015625)"/>
       </defs>
       <use xlink:href="#DejaVuSans-31"/>
       <use xlink:href="#DejaVuSans-39" x="63.623047"/>
       <use xlink:href="#DejaVuSans-38" x="127.246094"/>
       <use xlink:href="#DejaVuSans-38" x="190.869141"/>
      </g>
     </g>
    </g>
    <g id="xtick_2">
     <g id="line2d_2">
      <g>
       <use xlink:href="#m5d854a12db" x="110.75574" y="307.584" style="stroke: #000000; stroke-width: 0.8"/>
      </g>
     </g>
     <g id="text_2">
      <!-- 1992 -->
      <g transform="translate(98.03074 322.182437) scale(0.1 -0.1)">
       <defs>
        <path id="DejaVuSans-32" d="M 1228 531 
L 3431 531 
L 3431 0 
L 469 0 
L 469 531 
Q 828 903 1448 1529 
Q 2069 2156 2228 2338 
Q 2531 2678 2651 2914 
Q 2772 3150 2772 3378 
Q 2772 3750 2511 3984 
Q 2250 4219 1831 4219 
Q 1534 4219 1204 4116 
Q 875 4013 500 3803 
L 500 4441 
Q 881 4594 1212 4672 
Q 1544 4750 1819 4750 
Q 2544 4750 2975 4387 
Q 3406 4025 3406 3419 
Q 3406 3131 3298 2873 
Q 3191 2616 2906 2266 
Q 2828 2175 2409 1742 
Q 1991 1309 1228 531 
z
" transform="scale(0.015625)"/>
       </defs>
       <use xlink:href="#DejaVuSans-31"/>
       <use xlink:href="#DejaVuSans-39" x="63.623047"/>
       <use xlink:href="#DejaVuSans-39" x="127.246094"/>
       <use xlink:href="#DejaVuSans-32" x="190.869141"/>
      </g>
     </g>
    </g>
    <g id="xtick_3">
     <g id="line2d_3">
      <g>
       <use xlink:href="#m5d854a12db" x="148.400208" y="307.584" style="stroke: #000000; stroke-width: 0.8"/>
      </g>
     </g>
     <g id="text_3">
      <!-- 1996 -->
      <g transform="translate(135.675208 322.182437) scale(0.1 -0.1)">
       <defs>
        <path id="DejaVuSans-36" d="M 2113 2584 
Q 1688 2584 1439 2293 
Q 1191 2003 1191 1497 
Q 1191 994 1439 701 
Q 1688 409 2113 409 
Q 2538 409 2786 701 
Q 3034 994 3034 1497 
Q 3034 2003 2786 2293 
Q 2538 2584 2113 2584 
z
M 3366 4563 
L 3366 3988 
Q 3128 4100 2886 4159 
Q 2644 4219 2406 4219 
Q 1781 4219 1451 3797 
Q 1122 3375 1075 2522 
Q 1259 2794 1537 2939 
Q 1816 3084 2150 3084 
Q 2853 3084 3261 2657 
Q 3669 2231 3669 1497 
Q 3669 778 3244 343 
Q 2819 -91 2113 -91 
Q 1303 -91 875 529 
Q 447 1150 447 2328 
Q 447 3434 972 4092 
Q 1497 4750 2381 4750 
Q 2619 4750 2861 4703 
Q 3103 4656 3366 4563 
z
" transform="scale(0.015625)"/>
       </defs>
       <use xlink:href="#DejaVuSans-31"/>
       <use xlink:href="#DejaVuSans-39" x="63.623047"/>
       <use xlink:href="#DejaVuSans-39" x="127.246094"/>
       <use xlink:href="#DejaVuSans-36" x="190.869141"/>
      </g>
     </g>
    </g>
    <g id="xtick_4">
     <g id="line2d_4">
      <g>
       <use xlink:href="#m5d854a12db" x="186.044675" y="307.584" style="stroke: #000000; stroke-width: 0.8"/>
      </g>
     </g>
     <g id="text_4">
      <!-- 2000 -->
      <g transform="translate(173.319675 322.182437) scale(0.1 -0.1)">
       <defs>
        <path id="DejaVuSans-30" d="M 2034 4250 
Q 1547 4250 1301 3770 
Q 1056 3291 1056 2328 
Q 1056 1369 1301 889 
Q 1547 409 2034 409 
Q 2525 409 2770 889 
Q 3016 1369 3016 2328 
Q 3016 3291 2770 3770 
Q 2525 4250 2034 4250 
z
M 2034 4750 
Q 2819 4750 3233 4129 
Q 3647 3509 3647 2328 
Q 3647 1150 3233 529 
Q 2819 -91 2034 -91 
Q 1250 -91 836 529 
Q 422 1150 422 2328 
Q 422 3509 836 4129 
Q 1250 4750 2034 4750 
z
" transform="scale(0.015625)"/>
       </defs>
       <use xlink:href="#DejaVuSans-32"/>
       <use xlink:href="#DejaVuSans-30" x="63.623047"/>
       <use xlink:href="#DejaVuSans-30" x="127.246094"/>
       <use xlink:href="#DejaVuSans-30" x="190.869141"/>
      </g>
     </g>
    </g>
    <g id="xtick_5">
     <g id="line2d_5">
      <g>
       <use xlink:href="#m5d854a12db" x="223.689143" y="307.584" style="stroke: #000000; stroke-width: 0.8"/>
      </g>
     </g>
     <g id="text_5">
      <!-- 2004 -->
      <g transform="translate(210.964143 322.182437) scale(0.1 -0.1)">
       <defs>
        <path id="DejaVuSans-34" d="M 2419 4116 
L 825 1625 
L 2419 1625 
L 2419 4116 
z
M 2253 4666 
L 3047 4666 
L 3047 1625 
L 3713 1625 
L 3713 1100 
L 3047 1100 
L 3047 0 
L 2419 0 
L 2419 1100 
L 313 1100 
L 313 1709 
L 2253 4666 
z
" transform="scale(0.015625)"/>
       </defs>
       <use xlink:href="#DejaVuSans-32"/>
       <use xlink:href="#DejaVuSans-30" x="63.623047"/>
       <use xlink:href="#DejaVuSans-30" x="127.246094"/>
       <use xlink:href="#DejaVuSans-34" x="190.869141"/>
      </g>
     </g>
    </g>
    <g id="xtick_6">
     <g id="line2d_6">
      <g>
       <use xlink:href="#m5d854a12db" x="261.33361" y="307.584" style="stroke: #000000; stroke-width: 0.8"/>
      </g>
     </g>
     <g id="text_6">
      <!-- 2008 -->
      <g transform="translate(248.60861 322.182437) scale(0.1 -0.1)">
       <use xlink:href="#DejaVuSans-32"/>
       <use xlink:href="#DejaVuSans-30" x="63.623047"/>
       <use xlink:href="#DejaVuSans-30" x="127.246094"/>
       <use xlink:href="#DejaVuSans-38" x="190.869141"/>
      </g>
     </g>
    </g>
    <g id="xtick_7">
     <g id="line2d_7">
      <g>
       <use xlink:href="#m5d854a12db" x="298.978078" y="307.584" style="stroke: #000000; stroke-width: 0.8"/>
      </g>
     </g>
     <g id="text_7">
      <!-- 2012 -->
      <g transform="translate(286.253078 322.182437) scale(0.1 -0.1)">
       <use xlink:href="#DejaVuSans-32"/>
       <use xlink:href="#DejaVuSans-30" x="63.623047"/>
       <use xlink:href="#DejaVuSans-31" x="127.246094"/>
       <use xlink:href="#DejaVuSans-32" x="190.869141"/>
      </g>
     </g>
    </g>
    <g id="xtick_8">
     <g id="line2d_8">
      <g>
       <use xlink:href="#m5d854a12db" x="336.622545" y="307.584" style="stroke: #000000; stroke-width: 0.8"/>
      </g>
     </g>
     <g id="text_8">
      <!-- 2016 -->
      <g transform="translate(323.897545 322.182437) scale(0.1 -0.1)">
       <use xlink:href="#DejaVuSans-32"/>
       <use xlink:href="#DejaVuSans-30" x="63.623047"/>
       <use xlink:href="#DejaVuSans-31" x="127.246094"/>
       <use xlink:href="#DejaVuSans-36" x="190.869141"/>
      </g>
     </g>
    </g>
    <g id="xtick_9">
     <g id="line2d_9">
      <g>
       <use xlink:href="#m5d854a12db" x="374.267013" y="307.584" style="stroke: #000000; stroke-width: 0.8"/>
      </g>
     </g>
     <g id="text_9">
      <!-- 2020 -->
      <g transform="translate(361.542013 322.182437) scale(0.1 -0.1)">
       <use xlink:href="#DejaVuSans-32"/>
       <use xlink:href="#DejaVuSans-30" x="63.623047"/>
       <use xlink:href="#DejaVuSans-32" x="127.246094"/>
       <use xlink:href="#DejaVuSans-30" x="190.869141"/>
      </g>
     </g>
    </g>
    <g id="xtick_10">
     <g id="line2d_10">
      <g>
       <use xlink:href="#m5d854a12db" x="411.911481" y="307.584" style="stroke: #000000; stroke-width: 0.8"/>
      </g>
     </g>
     <g id="text_10">
      <!-- 2024 -->
      <g transform="translate(399.186481 322.182437) scale(0.1 -0.1)">
       <use xlink:href="#DejaVuSans-32"/>
       <use xlink:href="#DejaVuSans-30" x="63.623047"/>
       <use xlink:href="#DejaVuSans-32" x="127.246094"/>
       <use xlink:href="#DejaVuSans-34" x="190.869141"/>
      </g>
     </g>
    </g>
    <g id="text_11">
     <!-- date -->
     <g transform="translate(224.885 335.860562) scale(0.1 -0.1)">
      <defs>
       <path id="DejaVuSans-64" d="M 2906 2969 
L 2906 4863 
L 3481 4863 
L 3481 0 
L 2906 0 
L 2906 525 
Q 2725 213 2448 61 
Q 2172 -91 1784 -91 
Q 1150 -91 751 415 
Q 353 922 353 1747 
Q 353 2572 751 3078 
Q 1150 3584 1784 3584 
Q 2172 3584 2448 3432 
Q 2725 3281 2906 2969 
z
M 947 1747 
Q 947 1113 1208 752 
Q 1469 391 1925 391 
Q 2381 391 2643 752 
Q 2906 1113 2906 1747 
Q 2906 2381 2643 2742 
Q 2381 3103 1925 3103 
Q 1469 3103 1208 2742 
Q 947 2381 947 1747 
z
" transform="scale(0.015625)"/>
       <path id="DejaVuSans-61" d="M 2194 1759 
Q 1497 1759 1228 1600 
Q 959 1441 959 1056 
Q 959 750 1161 570 
Q 1363 391 1709 391 
Q 2188 391 2477 730 
Q 2766 1069 2766 1631 
L 2766 1759 
L 2194 1759 
z
M 3341 1997 
L 3341 0 
L 2766 0 
L 2766 531 
Q 2569 213 2275 61 
Q 1981 -91 1556 -91 
Q 1019 -91 701 211 
Q 384 513 384 1019 
Q 384 1609 779 1909 
Q 1175 2209 1959 2209 
L 2766 2209 
L 2766 2266 
Q 2766 2663 2505 2880 
Q 2244 3097 1772 3097 
Q 1472 3097 1187 3025 
Q 903 2953 641 2809 
L 641 3341 
Q 956 3463 1253 3523 
Q 1550 3584 1831 3584 
Q 2591 3584 2966 3190 
Q 3341 2797 3341 1997 
z
" transform="scale(0.015625)"/>
       <path id="DejaVuSans-74" d="M 1172 4494 
L 1172 3500 
L 2356 3500 
L 2356 3053 
L 1172 3053 
L 1172 1153 
Q 1172 725 1289 603 
Q 1406 481 1766 481 
L 2356 481 
L 2356 0 
L 1766 0 
Q 1100 0 847 248 
Q 594 497 594 1153 
L 594 3053 
L 172 3053 
L 172 3500 
L 594 3500 
L 594 4494 
L 1172 4494 
z
" transform="scale(0.015625)"/>
       <path id="DejaVuSans-65" d="M 3597 1894 
L 3597 1613 
L 953 1613 
Q 991 1019 1311 708 
Q 1631 397 2203 397 
Q 2534 397 2845 478 
Q 3156 559 3463 722 
L 3463 178 
Q 3153 47 2828 -22 
Q 2503 -91 2169 -91 
Q 1331 -91 842 396 
Q 353 884 353 1716 
Q 353 2575 817 3079 
Q 1281 3584 2069 3584 
Q 2775 3584 3186 3129 
Q 3597 2675 3597 1894 
z
M 3022 2063 
Q 3016 2534 2758 2815 
Q 2500 3097 2075 3097 
Q 1594 3097 1305 2825 
Q 1016 2553 972 2059 
L 3022 2063 
z
" transform="scale(0.015625)"/>
      </defs>
      <use xlink:href="#DejaVuSans-64"/>
      <use xlink:href="#DejaVuSans-61" x="63.476562"/>
      <use xlink:href="#DejaVuSans-74" x="124.755859"/>
      <use xlink:href="#DejaVuSans-65" x="163.964844"/>
     </g>
    </g>
   </g>
   <g id="matplotlib.axis_2">
    <g id="ytick_1">
     <g id="line2d_11">
      <defs>
       <path id="mf7e299d7a7" d="M 0 0 
L -3.5 0 
" style="stroke: #000000; stroke-width: 0.8"/>
      </defs>
      <g>
       <use xlink:href="#mf7e299d7a7" x="57.6" y="274.592141" style="stroke: #000000; stroke-width: 0.8"/>
      </g>
     </g>
     <g id="text_12">
      <!-- 2 -->
      <g transform="translate(44.2375 278.39136) scale(0.1 -0.1)">
       <use xlink:href="#DejaVuSans-32"/>
      </g>
     </g>
    </g>
    <g id="ytick_2">
     <g id="line2d_12">
      <g>
       <use xlink:href="#mf7e299d7a7" x="57.6" y="232.800423" style="stroke: #000000; stroke-width: 0.8"/>
      </g>
     </g>
     <g id="text_13">
      <!-- 4 -->
      <g transform="translate(44.2375 236.599641) scale(0.1 -0.1)">
       <use xlink:href="#DejaVuSans-34"/>
      </g>
     </g>
    </g>
    <g id="ytick_3">
     <g id="line2d_13">
      <g>
       <use xlink:href="#mf7e299d7a7" x="57.6" y="191.008704" style="stroke: #000000; stroke-width: 0.8"/>
      </g>
     </g>
     <g id="text_14">
      <!-- 6 -->
      <g transform="translate(44.2375 194.807923) scale(0.1 -0.1)">
       <use xlink:href="#DejaVuSans-36"/>
      </g>
     </g>
    </g>
    <g id="ytick_4">
     <g id="line2d_14">
      <g>
       <use xlink:href="#mf7e299d7a7" x="57.6" y="149.216986" style="stroke: #000000; stroke-width: 0.8"/>
      </g>
     </g>
     <g id="text_15">
      <!-- 8 -->
      <g transform="translate(44.2375 153.016205) scale(0.1 -0.1)">
       <use xlink:href="#DejaVuSans-38"/>
      </g>
     </g>
    </g>
    <g id="ytick_5">
     <g id="line2d_15">
      <g>
       <use xlink:href="#mf7e299d7a7" x="57.6" y="107.425268" style="stroke: #000000; stroke-width: 0.8"/>
      </g>
     </g>
     <g id="text_16">
      <!-- 10 -->
      <g transform="translate(37.875 111.224487) scale(0.1 -0.1)">
       <use xlink:href="#DejaVuSans-31"/>
       <use xlink:href="#DejaVuSans-30" x="63.623047"/>
      </g>
     </g>
    </g>
    <g id="ytick_6">
     <g id="line2d_16">
      <g>
       <use xlink:href="#mf7e299d7a7" x="57.6" y="65.63355" style="stroke: #000000; stroke-width: 0.8"/>
      </g>
     </g>
     <g id="text_17">
      <!-- 12 -->
      <g transform="translate(37.875 69.432768) scale(0.1 -0.1)">
       <use xlink:href="#DejaVuSans-31"/>
       <use xlink:href="#DejaVuSans-32" x="63.623047"/>
      </g>
     </g>
    </g>
    <g id="text_18">
     <!-- price -->
     <g transform="translate(31.795313 186.972531) rotate(-90) scale(0.1 -0.1)">
      <defs>
       <path id="DejaVuSans-70" d="M 1159 525 
L 1159 -1331 
L 581 -1331 
L 581 3500 
L 1159 3500 
L 1159 2969 
Q 1341 3281 1617 3432 
Q 1894 3584 2278 3584 
Q 2916 3584 3314 3078 
Q 3713 2572 3713 1747 
Q 3713 922 3314 415 
Q 2916 -91 2278 -91 
Q 1894 -91 1617 61 
Q 1341 213 1159 525 
z
M 3116 1747 
Q 3116 2381 2855 2742 
Q 2594 3103 2138 3103 
Q 1681 3103 1420 2742 
Q 1159 2381 1159 1747 
Q 1159 1113 1420 752 
Q 1681 391 2138 391 
Q 2594 391 2855 752 
Q 3116 1113 3116 1747 
z
" transform="scale(0.015625)"/>
       <path id="DejaVuSans-72" d="M 2631 2963 
Q 2534 3019 2420 3045 
Q 2306 3072 2169 3072 
Q 1681 3072 1420 2755 
Q 1159 2438 1159 1844 
L 1159 0 
L 581 0 
L 581 3500 
L 1159 3500 
L 1159 2956 
Q 1341 3275 1631 3429 
Q 1922 3584 2338 3584 
Q 2397 3584 2469 3576 
Q 2541 3569 2628 3553 
L 2631 2963 
z
" transform="scale(0.015625)"/>
       <path id="DejaVuSans-69" d="M 603 3500 
L 1178 3500 
L 1178 0 
L 603 0 
L 603 3500 
z
M 603 4863 
L 1178 4863 
L 1178 4134 
L 603 4134 
L 603 4863 
z
" transform="scale(0.015625)"/>
       <path id="DejaVuSans-63" d="M 3122 3366 
L 3122 2828 
Q 2878 2963 2633 3030 
Q 2388 3097 2138 3097 
Q 1578 3097 1268 2742 
Q 959 2388 959 1747 
Q 959 1106 1268 751 
Q 1578 397 2138 397 
Q 2388 397 2633 464 
Q 2878 531 3122 666 
L 3122 134 
Q 2881 22 2623 -34 
Q 2366 -91 2075 -91 
Q 1284 -91 818 406 
Q 353 903 353 1747 
Q 353 2603 823 3093 
Q 1294 3584 2113 3584 
Q 2378 3584 2631 3529 
Q 2884 3475 3122 3366 
z
" transform="scale(0.015625)"/>
      </defs>
      <use xlink:href="#DejaVuSans-70"/>
      <use xlink:href="#DejaVuSans-72" x="63.476562"/>
      <use xlink:href="#DejaVuSans-69" x="104.589844"/>
      <use xlink:href="#DejaVuSans-63" x="132.373047"/>
      <use xlink:href="#DejaVuSans-65" x="187.353516"/>
     </g>
    </g>
   </g>
   <g id="line2d_17">
    <path d="M 73.832727 295.488 
L 74.631481 294.312519 
L 75.430234 293.684261 
L 76.177455 293.436994 
L 77.001974 293.934633 
L 77.774961 294.00405 
L 78.522182 293.621605 
L 79.372468 294.910377 
L 80.145455 294.037806 
L 80.944208 292.590067 
L 81.717195 291.80234 
L 82.490182 291.620734 
L 83.314701 290.765142 
L 84.834909 291.171076 
L 85.556364 290.631016 
L 86.406649 291.303449 
L 87.179636 291.627746 
L 87.97839 288.872753 
L 88.777143 289.580446 
L 89.524364 288.866643 
L 90.348883 289.827462 
L 91.869091 287.969081 
L 93.440831 290.546023 
L 94.213818 292.152129 
L 95.012571 292.547595 
L 95.811325 290.084495 
L 96.558545 290.319541 
L 97.383065 290.130723 
L 98.903273 295.190899 
L 99.753558 293.262901 
L 100.526545 293.693126 
L 101.325299 293.26856 
L 102.124052 292.474222 
L 102.845506 290.311227 
L 103.592727 291.128104 
L 104.417247 290.978902 
L 105.216 290.451964 
L 105.937455 292.100642 
L 106.78774 291.002191 
L 107.560727 291.131409 
L 108.359481 290.518677 
L 109.158234 290.148753 
L 109.905455 291.341964 
L 110.729974 289.570479 
L 112.250182 290.620348 
L 113.074701 291.883777 
L 113.847688 291.592436 
L 114.594909 290.65726 
L 115.419429 291.57085 
L 116.218182 291.559781 
L 117.016935 291.009253 
L 117.789922 291.293933 
L 118.562909 292.023613 
L 119.361662 291.63651 
L 120.907636 291.450196 
L 121.629091 290.907282 
L 123.252364 288.280706 
L 124.051117 287.682097 
L 124.824104 287.971435 
L 125.597091 287.434129 
L 126.42161 286.155124 
L 127.194597 286.762147 
L 127.941818 285.994053 
L 128.766338 287.761231 
L 129.565091 286.408551 
L 130.363844 284.479701 
L 131.085299 284.941379 
L 131.884052 286.346397 
L 132.631273 285.466814 
L 133.455792 285.436413 
L 134.228779 285.572242 
L 134.976 285.036339 
L 135.826286 284.142633 
L 136.599273 285.040747 
L 137.398026 284.201132 
L 138.171013 285.64827 
L 138.944 285.402156 
L 139.768519 285.919377 
L 140.489974 285.528168 
L 142.010182 283.025501 
L 142.860468 282.795513 
L 143.633455 282.861525 
L 144.432208 281.240293 
L 145.230961 282.078205 
L 145.978182 281.134615 
L 146.802701 281.745294 
L 148.322909 279.607892 
L 149.173195 278.998315 
L 149.920416 278.827728 
L 150.667636 278.260422 
L 151.492156 277.421759 
L 152.290909 277.4464 
L 153.012364 277.307917 
L 153.862649 278.747893 
L 154.635636 278.374714 
L 155.43439 276.945606 
L 156.233143 276.729492 
L 156.980364 274.566948 
L 157.804883 275.296528 
L 159.325091 274.441187 
L 160.123844 275.330785 
L 160.896831 274.048475 
L 161.669818 271.496024 
L 163.267325 267.20875 
L 164.014545 270.557943 
L 164.839065 268.128099 
L 165.637818 270.728481 
L 166.359273 269.980871 
L 167.209558 269.475269 
L 167.982545 268.228318 
L 168.704 265.032483 
L 169.528519 262.926084 
L 170.301506 262.466509 
L 171.048727 263.204703 
L 171.873247 262.005382 
L 172.672 262.155435 
L 173.470753 269.450177 
L 174.24374 268.683835 
L 175.016727 264.435928 
L 176.614234 258.789213 
L 177.361455 257.592597 
L 178.082909 259.221191 
L 179.706182 254.62695 
L 180.504935 256.948662 
L 181.277922 254.241651 
L 182.875429 254.671826 
L 183.648416 255.336145 
L 184.395636 252.228659 
L 185.220156 250.489078 
L 186.018909 245.219699 
L 186.817662 249.358623 
L 187.564883 249.241576 
L 188.363636 244.666116 
L 189.085091 247.762834 
L 189.935377 249.56447 
L 190.708364 247.381491 
L 191.507117 249.388623 
L 192.30587 247.27391 
L 193.053091 251.011458 
L 193.87761 252.168758 
L 194.650597 256.129632 
L 196.248104 254.067758 
L 196.969558 259.393882 
L 197.742545 263.231198 
L 198.541299 259.383465 
L 199.340052 260.234849 
L 200.087273 262.052913 
L 200.911792 262.810138 
L 201.710545 265.461456 
L 202.432 270.004561 
L 203.282286 269.144261 
L 204.055273 266.403243 
L 204.854026 266.123371 
L 205.652779 267.680896 
L 206.374234 268.166013 
L 207.121455 266.119314 
L 207.945974 267.889647 
L 208.744727 267.909831 
L 210.316468 274.786318 
L 211.089455 274.784665 
L 211.888208 279.412613 
L 212.686961 276.722881 
L 213.434182 274.639971 
L 214.258701 276.706253 
L 215.057455 277.945191 
L 215.778909 278.677124 
L 216.577662 278.889281 
L 217.350649 275.650124 
L 218.123636 273.429031 
L 218.92239 272.757049 
L 220.468364 271.041258 
L 221.292883 270.825043 
L 222.091636 268.167265 
L 222.813091 267.500542 
L 223.663377 264.480503 
L 225.157818 262.861275 
L 226.008104 263.336626 
L 226.781091 264.513609 
L 227.579844 264.164571 
L 228.352831 263.168492 
L 229.125818 264.94764 
L 229.950338 264.815417 
L 230.723325 263.902379 
L 231.470545 262.658433 
L 232.295065 259.921772 
L 233.093818 257.818127 
L 233.892571 259.169955 
L 234.614026 257.449406 
L 236.16 260.106934 
L 236.984519 259.253746 
L 237.757506 258.846259 
L 238.504727 256.875338 
L 239.355013 256.542678 
L 240.128 255.064838 
L 240.926753 256.589106 
L 241.69974 254.709339 
L 242.472727 253.388964 
L 243.297247 250.612335 
L 244.018701 250.800803 
L 244.817455 249.517741 
L 245.538909 247.598758 
L 246.389195 250.159973 
L 247.162182 250.275768 
L 247.960935 249.910202 
L 248.759688 248.325582 
L 249.506909 247.599559 
L 250.331429 245.117477 
L 251.851636 242.079758 
L 252.701922 241.245653 
L 253.423377 241.736079 
L 254.196364 240.547026 
L 254.995117 237.357702 
L 255.79387 235.403859 
L 256.541091 236.130634 
L 257.36561 237.961168 
L 258.164364 238.172825 
L 258.885818 234.5672 
L 259.736104 232.124333 
L 260.509091 235.70081 
L 261.307844 236.809628 
L 262.106597 242.942812 
L 262.853818 243.483023 
L 263.652571 244.392405 
L 264.425558 240.807114 
L 265.198545 239.968801 
L 265.997299 246.159082 
L 266.796052 247.933572 
L 267.543273 249.027265 
L 268.367792 257.161921 
L 269.166545 268.440826 
L 269.888 271.662204 
L 270.738286 270.2949 
L 271.511273 274.371719 
L 272.232727 278.777343 
L 273.057247 276.055106 
L 274.577455 267.801799 
L 275.401974 268.100102 
L 276.200727 264.058041 
L 277.772468 259.939501 
L 278.545455 260.982008 
L 279.344208 258.836543 
L 280.142961 257.861851 
L 280.890182 260.31253 
L 281.611636 259.620814 
L 282.461922 256.256045 
L 283.234909 256.354511 
L 284.033662 262.302683 
L 284.806649 264.229831 
L 285.579636 260.047634 
L 286.404156 262.257708 
L 287.177143 257.324645 
L 287.924364 255.169414 
L 288.748883 256.605233 
L 289.547636 252.272282 
L 290.34639 250.869318 
L 291.067844 248.687442 
L 291.866597 249.524953 
L 292.613818 246.835672 
L 293.438338 248.539192 
L 294.958545 250.97094 
L 295.808831 255.720442 
L 296.581818 261.087436 
L 297.380571 255.41633 
L 298.153558 257.053689 
L 298.926545 257.154308 
L 300.498286 251.338259 
L 301.271273 250.672587 
L 302.070026 251.575108 
L 302.868779 257.402226 
L 303.616 254.493776 
L 304.440519 253.749872 
L 305.239273 252.315505 
L 305.960727 250.69798 
L 306.811013 251.197922 
L 307.584 250.498193 
L 308.382753 249.345901 
L 309.181506 245.99195 
L 309.902961 246.006274 
L 310.650182 244.537049 
L 311.474701 242.452336 
L 312.273455 242.662991 
L 312.994909 244.58548 
L 313.845195 240.860954 
L 314.618182 242.622673 
L 315.416935 239.069987 
L 316.215688 236.105592 
L 316.962909 234.825234 
L 317.787429 233.190229 
L 318.586182 236.326163 
L 319.307636 232.47247 
L 320.10639 232.548899 
L 320.879377 231.854328 
L 322.451117 229.06598 
L 323.24987 230.521533 
L 323.997091 228.801885 
L 324.82161 231.320128 
L 325.620364 230.835111 
L 326.341818 229.262211 
L 327.192104 230.755978 
L 327.965091 232.36544 
L 328.686545 227.591145 
L 329.511065 229.19625 
L 330.284052 227.313778 
L 331.031273 227.268351 
L 331.855792 229.456739 
L 332.654545 227.954658 
L 333.453299 233.973499 
L 334.226286 237.154259 
L 334.999273 230.949754 
L 335.798026 231.521017 
L 336.596779 233.103834 
L 337.344 238.143125 
L 338.142753 238.894591 
L 338.941506 233.838872 
L 339.688727 232.703059 
L 340.513247 232.511886 
L 341.286234 233.582891 
L 342.033455 230.149155 
L 342.88374 230.262546 
L 343.656727 229.954978 
L 344.455481 231.69506 
L 345.228468 230.634924 
L 346.825974 226.612446 
L 347.547429 224.293739 
L 348.346182 223.542924 
L 349.067636 222.311549 
L 349.917922 220.635525 
L 350.690909 220.40083 
L 351.489662 218.163359 
L 352.288416 218.231324 
L 353.035636 216.18738 
L 353.860156 214.371771 
L 354.633143 212.340548 
L 355.380364 211.033947 
L 356.230649 205.535181 
L 356.952104 210.305469 
L 357.725091 212.867186 
L 358.523844 211.882076 
L 359.322597 211.561085 
L 360.069818 211.74249 
L 360.894338 208.547357 
L 361.693091 207.425366 
L 362.414545 206.999098 
L 363.264831 215.114122 
L 364.037818 214.143636 
L 364.836571 222.029824 
L 365.635325 214.788072 
L 366.356779 211.915582 
L 367.104 210.818884 
L 367.928519 207.266298 
L 368.727273 213.898874 
L 369.448727 207.282676 
L 370.299013 206.821048 
L 371.072 209.277337 
L 371.870753 207.198985 
L 372.669506 204.519069 
L 374.241247 198.261425 
L 375.04 199.06548 
L 375.761455 209.146967 
L 376.585974 223.591155 
L 377.358961 213.568367 
L 378.106182 208.808497 
L 378.930701 206.108648 
L 379.729455 200.940239 
L 380.528208 193.401035 
L 381.301195 197.820582 
L 382.074182 201.544106 
L 382.872935 187.008714 
L 383.671688 181.654643 
L 384.418909 183.074686 
L 385.990649 175.561626 
L 386.763636 169.197653 
L 387.56239 167.347686 
L 388.335377 165.268132 
L 389.108364 162.662391 
L 389.932883 159.051207 
L 390.70587 165.799928 
L 391.453091 157.37969 
L 392.27761 161.032295 
L 393.076364 154.52478 
L 393.875117 163.173352 
L 394.596571 167.234846 
L 395.395325 163.472707 
L 396.142545 176.367184 
L 396.967065 176.597672 
L 397.740052 188.859733 
L 398.487273 178.83384 
L 398.487273 178.83384 
" clip-path="url(#p123465e25c)" style="fill: none; stroke: #1f77b4; stroke-width: 1.5; stroke-linecap: square"/>
   </g>
   <g id="line2d_18">
    <path d="M 73.832727 295.488 
L 74.631481 295.437775 
L 75.430234 293.344541 
L 76.177455 292.270711 
L 77.001974 291.630767 
L 77.774961 290.849123 
L 79.372468 292.336978 
L 80.145455 290.844157 
L 81.717195 291.221325 
L 82.490182 290.627405 
L 83.314701 291.049451 
L 84.036156 289.165904 
L 84.834909 286.593906 
L 85.556364 281.198975 
L 86.406649 280.848734 
L 87.179636 285.201155 
L 87.97839 283.251722 
L 88.777143 282.581223 
L 89.524364 278.384062 
L 90.348883 277.940054 
L 91.12187 279.786171 
L 91.869091 275.382761 
L 92.719377 274.127508 
L 93.440831 272.506928 
L 94.213818 278.600241 
L 95.012571 276.154666 
L 95.811325 272.91828 
L 96.558545 271.478358 
L 97.383065 267.645952 
L 98.903273 279.509645 
L 99.753558 280.242974 
L 100.526545 282.208066 
L 101.325299 281.023281 
L 102.124052 278.152987 
L 102.845506 272.531754 
L 103.592727 270.888067 
L 104.417247 270.750759 
L 105.216 267.310416 
L 105.937455 269.163025 
L 106.78774 266.825158 
L 107.560727 265.916709 
L 108.359481 267.907964 
L 109.158234 265.975719 
L 109.905455 266.774742 
L 110.729974 261.23219 
L 111.528727 254.866361 
L 112.250182 252.223895 
L 113.074701 250.196165 
L 113.847688 250.98583 
L 114.594909 251.373883 
L 115.419429 258.038581 
L 116.218182 257.492213 
L 117.016935 260.34532 
L 117.789922 260.225199 
L 118.562909 257.25369 
L 119.361662 257.936221 
L 120.160416 256.241544 
L 120.907636 256.00092 
L 121.629091 255.038426 
L 122.479377 253.116112 
L 123.252364 252.003324 
L 124.051117 250.423611 
L 125.597091 247.017261 
L 126.42161 241.244398 
L 127.194597 238.569085 
L 127.941818 231.635308 
L 128.766338 227.931234 
L 129.565091 213.38478 
L 130.363844 211.564062 
L 131.085299 213.492679 
L 131.884052 222.958731 
L 132.631273 225.031912 
L 133.455792 222.1091 
L 134.228779 224.874361 
L 134.976 219.231358 
L 135.826286 207.282874 
L 136.599273 206.138957 
L 137.398026 208.273631 
L 138.171013 214.024342 
L 138.944 222.315731 
L 139.768519 232.387734 
L 140.489974 234.627824 
L 141.288727 234.303938 
L 142.860468 226.445289 
L 143.633455 226.363362 
L 144.432208 224.473704 
L 145.230961 226.764783 
L 145.978182 227.313825 
L 146.802701 230.808595 
L 147.575688 232.415807 
L 148.322909 228.848659 
L 149.173195 222.708941 
L 149.920416 224.3511 
L 150.667636 223.801868 
L 151.492156 220.427983 
L 152.290909 221.091034 
L 153.012364 220.699543 
L 153.862649 227.415803 
L 154.635636 225.26547 
L 155.43439 224.600127 
L 156.233143 227.117889 
L 156.980364 225.728383 
L 157.804883 225.421493 
L 158.603636 219.291323 
L 159.325091 215.19614 
L 160.123844 218.108639 
L 160.896831 218.281659 
L 161.669818 215.739644 
L 162.468571 210.562037 
L 163.267325 209.188192 
L 164.014545 222.953574 
L 164.839065 220.507808 
L 165.637818 236.317918 
L 166.359273 239.294965 
L 167.209558 237.614993 
L 167.982545 243.853635 
L 168.704 236.322692 
L 169.528519 233.117435 
L 170.301506 234.188591 
L 171.048727 245.705863 
L 171.873247 253.263923 
L 172.672 251.48541 
L 173.470753 270.491229 
L 174.24374 267.711073 
L 175.016727 262.644229 
L 175.815481 258.227833 
L 177.361455 260.2548 
L 178.082909 259.748536 
L 178.933195 252.457262 
L 179.706182 244.642727 
L 180.504935 245.279616 
L 181.277922 237.358519 
L 182.050909 239.624963 
L 182.875429 238.984065 
L 183.648416 241.701009 
L 184.395636 240.176297 
L 185.220156 233.369134 
L 186.018909 222.918818 
L 186.817662 222.542032 
L 187.564883 221.329748 
L 188.363636 221.012163 
L 189.085091 230.187366 
L 189.935377 233.941093 
L 190.708364 231.302828 
L 191.507117 235.778425 
L 192.30587 235.49617 
L 193.053091 242.663121 
L 193.87761 248.045449 
L 194.650597 254.059318 
L 195.397818 252.639066 
L 196.248104 244.001637 
L 197.742545 256.583573 
L 198.541299 253.800934 
L 199.340052 253.25934 
L 200.087273 254.721605 
L 200.911792 258.774392 
L 201.710545 259.442218 
L 202.432 268.374697 
L 203.282286 265.421139 
L 204.055273 260.157023 
L 204.854026 255.769654 
L 205.652779 253.793868 
L 206.374234 252.835384 
L 207.121455 249.271483 
L 207.945974 249.002023 
L 208.744727 250.254411 
L 209.466182 255.32049 
L 210.316468 260.119401 
L 211.089455 259.305292 
L 211.888208 265.565322 
L 212.686961 262.308311 
L 213.434182 258.64224 
L 214.258701 260.603131 
L 215.057455 260.918615 
L 216.577662 264.38875 
L 218.123636 256.144721 
L 218.92239 252.850853 
L 219.721143 249.042891 
L 220.468364 244.6708 
L 221.292883 244.266705 
L 222.091636 238.254746 
L 222.813091 237.450758 
L 223.663377 231.826088 
L 224.436364 229.073623 
L 225.157818 225.150887 
L 226.008104 224.323983 
L 226.781091 232.108535 
L 227.579844 234.02512 
L 228.352831 233.84618 
L 229.125818 235.576378 
L 229.950338 232.405113 
L 230.723325 227.744465 
L 231.470545 225.811838 
L 232.295065 217.470414 
L 233.093818 212.844332 
L 233.892571 212.823707 
L 234.614026 203.962842 
L 235.412779 211.600156 
L 236.16 214.789181 
L 237.757506 208.453144 
L 238.504727 201.311591 
L 239.355013 200.611492 
L 240.128 190.09128 
L 240.926753 198.476054 
L 241.69974 188.816357 
L 242.472727 181.466073 
L 243.297247 166.706304 
L 244.018701 167.024271 
L 244.817455 165.9365 
L 245.538909 155.66646 
L 246.389195 172.96538 
L 247.162182 173.625566 
L 247.960935 172.04108 
L 248.759688 168.739573 
L 249.506909 167.777652 
L 250.331429 160.849795 
L 251.104416 149.459901 
L 251.851636 142.094531 
L 252.701922 144.227868 
L 253.423377 145.361281 
L 254.196364 138.990297 
L 255.79387 122.616822 
L 257.36561 103.906818 
L 258.164364 108.83177 
L 259.736104 60.970037 
L 260.509091 79.222857 
L 261.307844 78.544337 
L 262.106597 108.498525 
L 262.853818 93.425755 
L 263.652571 105.469725 
L 264.425558 88.867658 
L 265.198545 85.333739 
L 265.997299 108.775624 
L 266.796052 117.419546 
L 267.543273 133.767239 
L 268.367792 166.104172 
L 269.166545 207.430876 
L 269.888 215.747474 
L 270.738286 208.095264 
L 272.232727 221.03126 
L 273.057247 207.536674 
L 273.830234 189.821628 
L 274.577455 168.740146 
L 275.401974 170.998569 
L 276.200727 155.199727 
L 276.999481 156.071318 
L 277.772468 141.827744 
L 278.545455 141.786876 
L 280.142961 127.423945 
L 280.890182 138.095215 
L 281.611636 137.648534 
L 282.461922 123.439335 
L 283.234909 121.587107 
L 284.033662 139.467533 
L 284.806649 141.075318 
L 285.579636 127.05327 
L 286.404156 131.133175 
L 287.177143 110.988978 
L 287.924364 105.216879 
L 288.748883 110.927104 
L 289.547636 96.50268 
L 290.34639 102.67219 
L 291.067844 104.832454 
L 291.866597 92.781609 
L 292.613818 86.449392 
L 293.438338 93.335043 
L 294.211325 97.489236 
L 294.958545 99.110198 
L 295.808831 119.08214 
L 296.581818 148.246471 
L 297.380571 126.260359 
L 298.153558 139.100678 
L 298.926545 141.38049 
L 299.751065 121.709137 
L 300.498286 110.241518 
L 301.271273 117.497653 
L 302.070026 120.444527 
L 302.868779 143.307579 
L 303.616 137.3764 
L 304.440519 134.486245 
L 305.239273 135.471655 
L 305.960727 124.90561 
L 306.811013 126.305428 
L 307.584 124.071831 
L 308.382753 114.871992 
L 309.181506 112.233918 
L 309.902961 114.982755 
L 310.650182 118.747176 
L 311.474701 117.87864 
L 312.273455 123.717388 
L 312.994909 136.808071 
L 313.845195 135.428687 
L 314.618182 138.869412 
L 315.416935 127.807988 
L 316.215688 118.839606 
L 317.787429 124.898544 
L 318.586182 137.534333 
L 319.307636 131.825445 
L 320.10639 126.433951 
L 320.879377 126.31364 
L 321.652364 120.124268 
L 322.451117 115.715702 
L 323.24987 112.85171 
L 323.997091 108.630295 
L 324.82161 124.395718 
L 325.620364 122.343543 
L 326.341818 124.512401 
L 327.192104 133.756735 
L 327.965091 132.745162 
L 328.686545 127.270022 
L 329.511065 130.268841 
L 330.284052 116.288042 
L 331.031273 124.607313 
L 331.855792 130.711511 
L 332.654545 144.189865 
L 333.453299 160.030148 
L 334.226286 165.125446 
L 334.999273 154.471172 
L 335.798026 160.876722 
L 336.596779 164.726316 
L 337.344 174.612505 
L 338.142753 175.002849 
L 338.941506 156.578728 
L 339.688727 155.93191 
L 340.513247 162.183537 
L 341.286234 157.09435 
L 342.033455 149.576203 
L 342.88374 145.717251 
L 343.656727 143.849172 
L 344.455481 143.538081 
L 345.228468 151.607943 
L 346.001455 151.714314 
L 346.825974 142.747652 
L 347.547429 137.564125 
L 349.067636 129.622022 
L 349.917922 124.395718 
L 350.690909 123.350342 
L 351.489662 112.764245 
L 352.288416 108.665052 
L 353.035636 109.806295 
L 353.860156 102.67219 
L 354.633143 102.344866 
L 355.380364 95.152706 
L 356.230649 76.794088 
L 356.952104 88.136621 
L 357.725091 92.780654 
L 358.523844 94.011845 
L 359.322597 102.360716 
L 360.069818 112.137096 
L 360.894338 108.711267 
L 361.693091 114.72609 
L 362.414545 116.263789 
L 363.264831 133.830068 
L 364.037818 126.421729 
L 364.836571 131.948622 
L 365.635325 115.878219 
L 366.356779 115.682664 
L 367.104 114.312256 
L 367.928519 110.28124 
L 368.727273 125.795153 
L 369.448727 114.936922 
L 370.299013 118.345182 
L 371.072 128.404581 
L 371.870753 125.222622 
L 372.669506 117.395674 
L 373.416727 117.765394 
L 374.241247 103.516091 
L 375.04 113.507122 
L 375.761455 124.359433 
L 376.585974 154.330235 
L 377.358961 139.747688 
L 378.106182 138.713198 
L 378.930701 126.348969 
L 379.729455 110.341587 
L 380.528208 106.029461 
L 381.301195 109.753969 
L 382.074182 105.655348 
L 382.872935 86.250782 
L 383.671688 69.789843 
L 384.418909 62.475271 
L 385.140364 60.624189 
L 385.990649 64.984821 
L 387.56239 53.568 
L 388.335377 53.868015 
L 389.108364 72.360122 
L 389.932883 66.465801 
L 390.70587 77.078634 
L 391.453091 74.852485 
L 392.27761 84.847145 
L 393.076364 81.106023 
L 393.875117 85.64655 
L 394.596571 92.697582 
L 395.395325 98.33562 
L 396.142545 110.862746 
L 396.967065 110.580873 
L 397.740052 125.285261 
L 398.487273 126.600287 
L 398.487273 126.600287 
" clip-path="url(#p123465e25c)" style="fill: none; stroke: #ff7f0e; stroke-width: 1.5; stroke-linecap: square"/>
   </g>
   <g id="line2d_19">
    <path d="M 73.832727 295.488 
L 74.631481 294.315275 
L 75.430234 293.672247 
L 76.177455 293.421897 
L 77.001974 293.913408 
L 77.774961 293.973648 
L 78.522182 293.596489 
L 79.372468 294.886016 
L 80.145455 293.999785 
L 80.944208 292.573852 
L 81.717195 291.815654 
L 82.490182 291.634324 
L 83.314701 290.78342 
L 84.834909 291.166092 
L 85.556364 290.580036 
L 86.406649 291.234908 
L 87.179636 291.629219 
L 87.97839 288.879248 
L 88.777143 289.572509 
L 89.524364 288.808799 
L 90.348883 289.744242 
L 91.869091 287.88377 
L 93.440831 290.431582 
L 94.213818 292.084791 
L 95.012571 292.442755 
L 95.811325 289.99255 
L 96.558545 290.221868 
L 97.383065 290.009907 
L 98.903273 295.089196 
L 99.753558 293.183595 
L 100.526545 293.627527 
L 101.325299 293.194009 
L 102.124052 292.390888 
L 102.845506 290.188787 
L 103.592727 290.973531 
L 104.417247 290.815479 
L 105.216 290.258011 
L 105.937455 291.903461 
L 106.78774 290.790158 
L 107.560727 290.895322 
L 108.359481 290.299872 
L 109.158234 289.899231 
L 109.905455 291.092988 
L 110.729974 289.270088 
L 112.250182 290.186337 
L 113.074701 291.407866 
L 113.847688 291.130357 
L 114.594909 290.219417 
L 115.419429 291.210403 
L 116.218182 291.187533 
L 117.016935 290.680503 
L 117.789922 290.955765 
L 118.562909 291.631465 
L 119.361662 291.272072 
L 120.160416 291.087066 
L 120.907636 291.049697 
L 121.629091 290.505911 
L 123.252364 287.889691 
L 124.051117 287.276681 
L 124.824104 287.520292 
L 125.597091 286.976302 
L 126.42161 285.634703 
L 127.194597 286.203606 
L 127.941818 285.362708 
L 128.766338 287.027556 
L 129.565091 285.492579 
L 130.363844 283.496517 
L 131.085299 284.024989 
L 131.884052 285.535053 
L 132.631273 284.752556 
L 133.455792 284.623297 
L 134.228779 284.83444 
L 134.976 284.190391 
L 135.826286 283.099551 
L 136.599273 283.937795 
L 137.398026 283.164895 
L 138.171013 284.665362 
L 138.944 284.611045 
L 139.768519 285.314108 
L 140.489974 285.040479 
L 142.010182 282.541266 
L 142.860468 282.232515 
L 143.633455 282.289283 
L 144.432208 280.702439 
L 145.230961 281.544971 
L 145.978182 280.648734 
L 146.802701 281.307077 
L 148.322909 279.24077 
L 149.173195 278.476243 
L 149.920416 278.383536 
L 150.667636 277.864253 
L 151.492156 276.994562 
L 152.290909 277.022334 
L 153.012364 276.874288 
L 153.862649 278.417433 
L 154.635636 278.01577 
L 155.43439 276.664574 
L 156.233143 276.569621 
L 156.980364 274.506989 
L 157.804883 275.179422 
L 159.325091 274.045087 
L 160.123844 274.963378 
L 160.896831 273.707339 
L 162.468571 268.992753 
L 163.267325 266.918891 
L 164.014545 270.455647 
L 164.839065 268.073646 
L 165.637818 271.01577 
L 166.359273 270.386423 
L 167.209558 269.851621 
L 167.982545 268.891674 
L 168.704 265.708593 
L 169.528519 263.620641 
L 170.301506 263.198762 
L 171.048727 264.283885 
L 171.873247 263.415215 
L 172.672 263.471778 
L 173.470753 270.959002 
L 174.24374 270.126884 
L 175.016727 265.972012 
L 175.815481 262.979859 
L 176.614234 260.5756 
L 177.361455 259.503546 
L 178.082909 261.002379 
L 179.706182 256.162005 
L 180.504935 258.369007 
L 181.277922 255.5541 
L 182.050909 255.876941 
L 182.875429 256.022332 
L 183.648416 256.746019 
L 184.395636 253.796953 
L 185.220156 251.921982 
L 186.018909 246.623586 
L 186.817662 250.460926 
L 187.564883 250.306141 
L 188.363636 246.037121 
L 189.085091 249.266351 
L 189.935377 251.085371 
L 190.708364 248.954945 
L 191.507117 251.006958 
L 192.30587 249.046427 
L 193.053091 252.814339 
L 193.87761 254.124082 
L 194.650597 258.047391 
L 195.397818 257.142577 
L 196.248104 255.680909 
L 196.969558 260.847799 
L 197.742545 264.697187 
L 198.541299 261.027292 
L 199.340052 261.785897 
L 200.087273 263.527729 
L 200.911792 264.406201 
L 201.710545 266.882747 
L 202.432 271.467666 
L 203.282286 270.544474 
L 204.055273 267.784089 
L 204.854026 267.368949 
L 205.652779 268.752409 
L 206.374234 269.17102 
L 207.121455 267.136569 
L 207.945974 268.778342 
L 208.744727 268.841032 
L 210.316468 275.599055 
L 211.089455 275.575163 
L 211.888208 280.112707 
L 212.686961 277.485869 
L 213.434182 275.420379 
L 214.258701 277.422975 
L 215.057455 278.599988 
L 215.778909 279.338582 
L 216.577662 279.586686 
L 217.350649 276.410957 
L 218.123636 274.209265 
L 218.92239 273.485577 
L 220.468364 271.643891 
L 221.292883 271.428868 
L 222.091636 268.756901 
L 222.813091 268.105909 
L 223.663377 265.102729 
L 225.157818 263.391527 
L 226.008104 263.816469 
L 226.781091 265.143365 
L 227.579844 264.868511 
L 228.352831 263.925717 
L 229.125818 265.649987 
L 229.950338 265.434351 
L 230.723325 264.440711 
L 231.470545 263.214281 
L 232.295065 260.398149 
L 233.093818 258.284468 
L 233.892571 259.555004 
L 234.614026 257.677379 
L 236.16 260.493715 
L 236.984519 259.60095 
L 237.757506 259.118219 
L 238.504727 257.049257 
L 239.355013 256.716002 
L 240.128 255.000308 
L 240.926753 256.69211 
L 241.69974 254.627029 
L 242.472727 253.157192 
L 243.297247 250.088464 
L 244.018701 250.274899 
L 244.817455 249.040301 
L 245.538909 246.916818 
L 246.389195 249.867927 
L 247.162182 249.996573 
L 247.960935 249.60267 
L 248.759688 248.015622 
L 249.506909 247.307658 
L 250.331429 244.760458 
L 251.851636 241.282104 
L 252.701922 240.584145 
L 253.423377 241.079332 
L 254.196364 239.748352 
L 254.995117 236.505645 
L 255.79387 234.394209 
L 256.541091 234.748089 
L 257.36561 236.063754 
L 258.164364 236.441526 
L 258.885818 232.269909 
L 259.736104 229.061712 
L 260.509091 233.049752 
L 261.307844 234.040738 
L 262.106597 240.843685 
L 262.853818 240.746485 
L 263.652571 242.058679 
L 264.425558 238.114746 
L 265.198545 237.206257 
L 265.997299 243.811334 
L 267.543273 247.443452 
L 268.367792 256.18753 
L 269.166545 268.169824 
L 269.888 271.449492 
L 270.738286 269.890828 
L 272.232727 278.16402 
L 273.057247 275.127964 
L 274.577455 266.008768 
L 275.401974 266.374083 
L 276.200727 262.037473 
L 276.999481 260.209059 
L 277.772468 257.730879 
L 278.545455 258.679188 
L 279.344208 256.416848 
L 280.142961 255.239018 
L 280.890182 257.915681 
L 281.611636 257.268365 
L 282.461922 253.611743 
L 283.234909 253.623178 
L 284.033662 259.784934 
L 284.806649 261.60763 
L 285.579636 257.216498 
L 286.404156 259.398791 
L 287.177143 254.069152 
L 287.924364 251.867256 
L 288.748883 253.412239 
L 289.547636 248.867752 
L 290.34639 247.857979 
L 291.067844 245.970756 
L 291.866597 246.212326 
L 292.613818 243.504216 
L 293.438338 245.343247 
L 294.958545 247.793656 
L 295.808831 252.955442 
L 296.581818 259.077175 
L 297.380571 252.993014 
L 298.153558 255.032367 
L 298.926545 255.223499 
L 300.498286 248.604129 
L 301.271273 248.324374 
L 302.070026 249.268598 
L 302.868779 255.535109 
L 303.616 252.65057 
L 304.440519 251.851533 
L 305.239273 250.603254 
L 305.960727 248.675395 
L 306.811013 249.188143 
L 307.584 248.458125 
L 308.382753 247.006871 
L 309.181506 243.871777 
L 309.902961 244.009 
L 310.650182 242.859962 
L 311.474701 240.947623 
L 312.273455 241.402378 
L 312.994909 243.726999 
L 313.845195 240.321135 
L 314.618182 242.0597 
L 315.416935 238.364892 
L 316.215688 235.293918 
L 316.962909 234.285574 
L 317.787429 232.957861 
L 318.586182 236.353311 
L 319.307636 232.635224 
L 320.10639 232.453077 
L 320.879377 231.825568 
L 322.451117 228.83362 
L 323.24987 229.998176 
L 323.997091 228.261245 
L 324.82161 231.262791 
L 325.620364 230.731665 
L 326.341818 229.430907 
L 327.965091 232.594588 
L 328.686545 228.072359 
L 329.511065 229.647972 
L 330.284052 227.291904 
L 331.031273 227.655586 
L 331.855792 229.903019 
L 332.654545 229.234874 
L 333.453299 235.370697 
L 334.226286 238.450452 
L 334.999273 232.406519 
L 335.798026 233.233941 
L 336.596779 234.833853 
L 337.344 239.80512 
L 338.142753 240.490213 
L 338.941506 235.059904 
L 339.688727 234.021543 
L 340.513247 234.177961 
L 341.286234 234.848556 
L 342.033455 231.418392 
L 342.88374 231.311187 
L 343.656727 230.939337 
L 344.455481 232.454302 
L 345.228468 231.961158 
L 346.001455 230.244034 
L 347.547429 225.616029 
L 348.346182 224.725101 
L 349.067636 223.437207 
L 349.917922 221.676793 
L 350.690909 221.412557 
L 351.489662 218.861069 
L 352.288416 218.693012 
L 355.380364 211.623583 
L 356.230649 205.773845 
L 356.952104 210.591757 
L 357.725091 213.097504 
L 358.523844 212.30398 
L 359.322597 212.492866 
L 360.069818 213.222067 
L 360.894338 210.236652 
L 361.693091 209.611185 
L 362.414545 209.331022 
L 363.264831 217.434115 
L 364.037818 216.150509 
L 364.836571 223.337353 
L 365.635325 216.081693 
L 366.356779 213.572679 
L 367.104 212.537994 
L 367.928519 209.210339 
L 368.727273 215.893624 
L 369.448727 209.496629 
L 370.299013 209.311214 
L 371.072 212.062411 
L 371.870753 210.066553 
L 373.416727 204.748349 
L 374.241247 200.96063 
L 375.04 202.313052 
L 375.761455 211.678513 
L 376.585974 226.05649 
L 377.358961 216.4952 
L 378.106182 212.349721 
L 378.930701 209.19727 
L 379.729455 203.68671 
L 380.528208 196.954212 
L 381.301195 200.980234 
L 382.074182 203.870286 
L 382.872935 190.1335 
L 383.671688 184.415472 
L 384.418909 185.10179 
L 385.990649 178.897968 
L 386.763636 173.069672 
L 388.335377 169.365471 
L 389.108364 168.499864 
L 389.932883 165.015791 
L 390.70587 171.501002 
L 391.453091 164.207565 
L 392.27761 168.02571 
L 393.076364 162.247442 
L 393.875117 169.895372 
L 394.596571 173.847676 
L 395.395325 171.083207 
L 396.142545 182.904591 
L 396.967065 183.078774 
L 397.740052 194.522182 
L 398.487273 186.161592 
L 398.487273 186.161592 
" clip-path="url(#p123465e25c)" style="fill: none; stroke: #2ca02c; stroke-width: 1.5; stroke-linecap: square"/>
   </g>
   <g id="patch_3">
    <path d="M 57.6 307.584 
L 57.6 41.472 
" style="fill: none; stroke: #000000; stroke-width: 0.8; stroke-linejoin: miter; stroke-linecap: square"/>
   </g>
   <g id="patch_4">
    <path d="M 414.72 307.584 
L 414.72 41.472 
" style="fill: none; stroke: #000000; stroke-width: 0.8; stroke-linejoin: miter; stroke-linecap: square"/>
   </g>
   <g id="patch_5">
    <path d="M 57.6 307.584 
L 414.72 307.584 
" style="fill: none; stroke: #000000; stroke-width: 0.8; stroke-linejoin: miter; stroke-linecap: square"/>
   </g>
   <g id="patch_6">
    <path d="M 57.6 41.472 
L 414.72 41.472 
" style="fill: none; stroke: #000000; stroke-width: 0.8; stroke-linejoin: miter; stroke-linecap: square"/>
   </g>
   <g id="text_19">
    <!-- Index values over time -->
    <g transform="translate(167.468437 35.472) scale(0.12 -0.12)">
     <defs>
      <path id="DejaVuSans-49" d="M 628 4666 
L 1259 4666 
L 1259 0 
L 628 0 
L 628 4666 
z
" transform="scale(0.015625)"/>
      <path id="DejaVuSans-6e" d="M 3513 2113 
L 3513 0 
L 2938 0 
L 2938 2094 
Q 2938 2591 2744 2837 
Q 2550 3084 2163 3084 
Q 1697 3084 1428 2787 
Q 1159 2491 1159 1978 
L 1159 0 
L 581 0 
L 581 3500 
L 1159 3500 
L 1159 2956 
Q 1366 3272 1645 3428 
Q 1925 3584 2291 3584 
Q 2894 3584 3203 3211 
Q 3513 2838 3513 2113 
z
" transform="scale(0.015625)"/>
      <path id="DejaVuSans-78" d="M 3513 3500 
L 2247 1797 
L 3578 0 
L 2900 0 
L 1881 1375 
L 863 0 
L 184 0 
L 1544 1831 
L 300 3500 
L 978 3500 
L 1906 2253 
L 2834 3500 
L 3513 3500 
z
" transform="scale(0.015625)"/>
      <path id="DejaVuSans-20" transform="scale(0.015625)"/>
      <path id="DejaVuSans-76" d="M 191 3500 
L 800 3500 
L 1894 563 
L 2988 3500 
L 3597 3500 
L 2284 0 
L 1503 0 
L 191 3500 
z
" transform="scale(0.015625)"/>
      <path id="DejaVuSans-6c" d="M 603 4863 
L 1178 4863 
L 1178 0 
L 603 0 
L 603 4863 
z
" transform="scale(0.015625)"/>
      <path id="DejaVuSans-75" d="M 544 1381 
L 544 3500 
L 1119 3500 
L 1119 1403 
Q 1119 906 1312 657 
Q 1506 409 1894 409 
Q 2359 409 2629 706 
Q 2900 1003 2900 1516 
L 2900 3500 
L 3475 3500 
L 3475 0 
L 2900 0 
L 2900 538 
Q 2691 219 2414 64 
Q 2138 -91 1772 -91 
Q 1169 -91 856 284 
Q 544 659 544 1381 
z
M 1991 3584 
L 1991 3584 
z
" transform="scale(0.015625)"/>
      <path id="DejaVuSans-73" d="M 2834 3397 
L 2834 2853 
Q 2591 2978 2328 3040 
Q 2066 3103 1784 3103 
Q 1356 3103 1142 2972 
Q 928 2841 928 2578 
Q 928 2378 1081 2264 
Q 1234 2150 1697 2047 
L 1894 2003 
Q 2506 1872 2764 1633 
Q 3022 1394 3022 966 
Q 3022 478 2636 193 
Q 2250 -91 1575 -91 
Q 1294 -91 989 -36 
Q 684 19 347 128 
L 347 722 
Q 666 556 975 473 
Q 1284 391 1588 391 
Q 1994 391 2212 530 
Q 2431 669 2431 922 
Q 2431 1156 2273 1281 
Q 2116 1406 1581 1522 
L 1381 1569 
Q 847 1681 609 1914 
Q 372 2147 372 2553 
Q 372 3047 722 3315 
Q 1072 3584 1716 3584 
Q 2034 3584 2315 3537 
Q 2597 3491 2834 3397 
z
" transform="scale(0.015625)"/>
      <path id="DejaVuSans-6f" d="M 1959 3097 
Q 1497 3097 1228 2736 
Q 959 2375 959 1747 
Q 959 1119 1226 758 
Q 1494 397 1959 397 
Q 2419 397 2687 759 
Q 2956 1122 2956 1747 
Q 2956 2369 2687 2733 
Q 2419 3097 1959 3097 
z
M 1959 3584 
Q 2709 3584 3137 3096 
Q 3566 2609 3566 1747 
Q 3566 888 3137 398 
Q 2709 -91 1959 -91 
Q 1206 -91 779 398 
Q 353 888 353 1747 
Q 353 2609 779 3096 
Q 1206 3584 1959 3584 
z
" transform="scale(0.015625)"/>
      <path id="DejaVuSans-6d" d="M 3328 2828 
Q 3544 3216 3844 3400 
Q 4144 3584 4550 3584 
Q 5097 3584 5394 3201 
Q 5691 2819 5691 2113 
L 5691 0 
L 5113 0 
L 5113 2094 
Q 5113 2597 4934 2840 
Q 4756 3084 4391 3084 
Q 3944 3084 3684 2787 
Q 3425 2491 3425 1978 
L 3425 0 
L 2847 0 
L 2847 2094 
Q 2847 2600 2669 2842 
Q 2491 3084 2119 3084 
Q 1678 3084 1418 2786 
Q 1159 2488 1159 1978 
L 1159 0 
L 581 0 
L 581 3500 
L 1159 3500 
L 1159 2956 
Q 1356 3278 1631 3431 
Q 1906 3584 2284 3584 
Q 2666 3584 2933 3390 
Q 3200 3197 3328 2828 
z
" transform="scale(0.015625)"/>
     </defs>
     <use xlink:href="#DejaVuSans-49"/>
     <use xlink:href="#DejaVuSans-6e" x="29.492188"/>
     <use xlink:href="#DejaVuSans-64" x="92.871094"/>
     <use xlink:href="#DejaVuSans-65" x="156.347656"/>
     <use xlink:href="#DejaVuSans-78" x="216.121094"/>
     <use xlink:href="#DejaVuSans-20" x="275.300781"/>
     <use xlink:href="#DejaVuSans-76" x="307.087891"/>
     <use xlink:href="#DejaVuSans-61" x="366.267578"/>
     <use xlink:href="#DejaVuSans-6c" x="427.546875"/>
     <use xlink:href="#DejaVuSans-75" x="455.330078"/>
     <use xlink:href="#DejaVuSans-65" x="518.708984"/>
     <use xlink:href="#DejaVuSans-73" x="580.232422"/>
     <use xlink:href="#DejaVuSans-20" x="632.332031"/>
     <use xlink:href="#DejaVuSans-6f" x="664.119141"/>
     <use xlink:href="#DejaVuSans-76" x="725.300781"/>
     <use xlink:href="#DejaVuSans-65" x="784.480469"/>
     <use xlink:href="#DejaVuSans-72" x="846.003906"/>
     <use xlink:href="#DejaVuSans-20" x="887.117188"/>
     <use xlink:href="#DejaVuSans-74" x="918.904297"/>
     <use xlink:href="#DejaVuSans-69" x="958.113281"/>
     <use xlink:href="#DejaVuSans-6d" x="985.896484"/>
     <use xlink:href="#DejaVuSans-65" x="1083.308594"/>
    </g>
   </g>
   <g id="legend_1">
    <g id="patch_7">
     <path d="M 64.6 94.34075 
L 155.165625 94.34075 
Q 157.165625 94.34075 157.165625 92.34075 
L 157.165625 48.472 
Q 157.165625 46.472 155.165625 46.472 
L 64.6 46.472 
Q 62.6 46.472 62.6 48.472 
L 62.6 92.34075 
Q 62.6 94.34075 64.6 94.34075 
z
" style="fill: #ffffff; opacity: 0.8; stroke: #cccccc; stroke-linejoin: miter"/>
    </g>
    <g id="line2d_20">
     <path d="M 66.6 54.570438 
L 76.6 54.570438 
L 86.6 54.570438 
" style="fill: none; stroke: #1f77b4; stroke-width: 1.5; stroke-linecap: square"/>
    </g>
    <g id="text_20">
     <!-- MSCI_World -->
     <g transform="translate(94.6 58.070438) scale(0.1 -0.1)">
      <defs>
       <path id="DejaVuSans-4d" d="M 628 4666 
L 1569 4666 
L 2759 1491 
L 3956 4666 
L 4897 4666 
L 4897 0 
L 4281 0 
L 4281 4097 
L 3078 897 
L 2444 897 
L 1241 4097 
L 1241 0 
L 628 0 
L 628 4666 
z
" transform="scale(0.015625)"/>
       <path id="DejaVuSans-53" d="M 3425 4513 
L 3425 3897 
Q 3066 4069 2747 4153 
Q 2428 4238 2131 4238 
Q 1616 4238 1336 4038 
Q 1056 3838 1056 3469 
Q 1056 3159 1242 3001 
Q 1428 2844 1947 2747 
L 2328 2669 
Q 3034 2534 3370 2195 
Q 3706 1856 3706 1288 
Q 3706 609 3251 259 
Q 2797 -91 1919 -91 
Q 1588 -91 1214 -16 
Q 841 59 441 206 
L 441 856 
Q 825 641 1194 531 
Q 1563 422 1919 422 
Q 2459 422 2753 634 
Q 3047 847 3047 1241 
Q 3047 1584 2836 1778 
Q 2625 1972 2144 2069 
L 1759 2144 
Q 1053 2284 737 2584 
Q 422 2884 422 3419 
Q 422 4038 858 4394 
Q 1294 4750 2059 4750 
Q 2388 4750 2728 4690 
Q 3069 4631 3425 4513 
z
" transform="scale(0.015625)"/>
       <path id="DejaVuSans-43" d="M 4122 4306 
L 4122 3641 
Q 3803 3938 3442 4084 
Q 3081 4231 2675 4231 
Q 1875 4231 1450 3742 
Q 1025 3253 1025 2328 
Q 1025 1406 1450 917 
Q 1875 428 2675 428 
Q 3081 428 3442 575 
Q 3803 722 4122 1019 
L 4122 359 
Q 3791 134 3420 21 
Q 3050 -91 2638 -91 
Q 1578 -91 968 557 
Q 359 1206 359 2328 
Q 359 3453 968 4101 
Q 1578 4750 2638 4750 
Q 3056 4750 3426 4639 
Q 3797 4528 4122 4306 
z
" transform="scale(0.015625)"/>
       <path id="DejaVuSans-5f" d="M 3263 -1063 
L 3263 -1509 
L -63 -1509 
L -63 -1063 
L 3263 -1063 
z
" transform="scale(0.015625)"/>
       <path id="DejaVuSans-57" d="M 213 4666 
L 850 4666 
L 1831 722 
L 2809 4666 
L 3519 4666 
L 4500 722 
L 5478 4666 
L 6119 4666 
L 4947 0 
L 4153 0 
L 3169 4050 
L 2175 0 
L 1381 0 
L 213 4666 
z
" transform="scale(0.015625)"/>
      </defs>
      <use xlink:href="#DejaVuSans-4d"/>
      <use xlink:href="#DejaVuSans-53" x="86.279297"/>
      <use xlink:href="#DejaVuSans-43" x="149.755859"/>
      <use xlink:href="#DejaVuSans-49" x="219.580078"/>
      <use xlink:href="#DejaVuSans-5f" x="249.072266"/>
      <use xlink:href="#DejaVuSans-57" x="299.072266"/>
      <use xlink:href="#DejaVuSans-6f" x="392.074219"/>
      <use xlink:href="#DejaVuSans-72" x="453.255859"/>
      <use xlink:href="#DejaVuSans-6c" x="494.369141"/>
      <use xlink:href="#DejaVuSans-64" x="522.152344"/>
     </g>
    </g>
    <g id="line2d_21">
     <path d="M 66.6 69.526688 
L 76.6 69.526688 
L 86.6 69.526688 
" style="fill: none; stroke: #ff7f0e; stroke-width: 1.5; stroke-linecap: square"/>
    </g>
    <g id="text_21">
     <!-- MSCI_EM -->
     <g transform="translate(94.6 73.026688) scale(0.1 -0.1)">
      <defs>
       <path id="DejaVuSans-45" d="M 628 4666 
L 3578 4666 
L 3578 4134 
L 1259 4134 
L 1259 2753 
L 3481 2753 
L 3481 2222 
L 1259 2222 
L 1259 531 
L 3634 531 
L 3634 0 
L 628 0 
L 628 4666 
z
" transform="scale(0.015625)"/>
      </defs>
      <use xlink:href="#DejaVuSans-4d"/>
      <use xlink:href="#DejaVuSans-53" x="86.279297"/>
      <use xlink:href="#DejaVuSans-43" x="149.755859"/>
      <use xlink:href="#DejaVuSans-49" x="219.580078"/>
      <use xlink:href="#DejaVuSans-5f" x="249.072266"/>
      <use xlink:href="#DejaVuSans-45" x="299.072266"/>
      <use xlink:href="#DejaVuSans-4d" x="362.255859"/>
     </g>
    </g>
    <g id="line2d_22">
     <path d="M 66.6 84.482938 
L 76.6 84.482938 
L 86.6 84.482938 
" style="fill: none; stroke: #2ca02c; stroke-width: 1.5; stroke-linecap: square"/>
    </g>
    <g id="text_22">
     <!-- MSCI_ACWI -->
     <g transform="translate(94.6 87.982938) scale(0.1 -0.1)">
      <defs>
       <path id="DejaVuSans-41" d="M 2188 4044 
L 1331 1722 
L 3047 1722 
L 2188 4044 
z
M 1831 4666 
L 2547 4666 
L 4325 0 
L 3669 0 
L 3244 1197 
L 1141 1197 
L 716 0 
L 50 0 
L 1831 4666 
z
" transform="scale(0.015625)"/>
      </defs>
      <use xlink:href="#DejaVuSans-4d"/>
      <use xlink:href="#DejaVuSans-53" x="86.279297"/>
      <use xlink:href="#DejaVuSans-43" x="149.755859"/>
      <use xlink:href="#DejaVuSans-49" x="219.580078"/>
      <use xlink:href="#DejaVuSans-5f" x="249.072266"/>
      <use xlink:href="#DejaVuSans-41" x="299.072266"/>
      <use xlink:href="#DejaVuSans-43" x="365.730469"/>
      <use xlink:href="#DejaVuSans-57" x="435.554688"/>
      <use xlink:href="#DejaVuSans-49" x="534.431641"/>
     </g>
    </g>
   </g>
  </g>
 </g>
 <defs>
  <clipPath id="p123465e25c">
   <rect x="57.6" y="41.472" width="357.12" height="266.112"/>
  </clipPath>
 </defs>
</svg>
